<?xml version="1.0" standalone="no"?>
<!DOCTYPE svg PUBLIC "-//W3C//DTD SVG 1.1//EN" "http://www.w3.org/Graphics/SVG/1.1/DTD/svg11.dtd" >
<svg xmlns="http://www.w3.org/2000/svg" xmlns:xlink="http://www.w3.org/1999/xlink" version="1.1">
<metadata>
Created by FontForge 20170731 at Sat Feb 15 12:29:57 2014
 By Aleksey,,,
Copyright (c) 2005 by Frantisek Storm, www.stormtype.com. All rights reserved.
</metadata>
<defs>
<font id="EtelkaMediumPro" horiz-adv-x="588" >
  <font-face 
    font-family="Etelka Medium Pro"
    font-weight="400"
    font-stretch="normal"
    units-per-em="1000"
    panose-1="2 0 8 3 7 0 0 2 0 4"
    ascent="800"
    descent="-200"
    x-height="509"
    cap-height="697"
    bbox="-202 -314 1343 972"
    underline-thickness="50"
    underline-position="-250"
    unicode-range="U+0020-FB04"
  />
<missing-glyph horiz-adv-x="530" 
d="M530 0h-530v697h530v-697zM133 615l132 -196l132 196h-264zM445 545l-132 -196l132 -197v393zM265 279l-132 -197h264zM217 349l-132 196v-393z" />
    <glyph glyph-name="ff" unicode="ff" horiz-adv-x="687" 
d="M525 536v-27h165v-108h-165v-401h-124v401h-187v-401h-124v401h-85v108h85v30q0 110 63 149q53 36 142 36q90 0 169 -29q43 29 121 29q81 0 141 -22l-28 -98q-44 14 -92 14q-43 0 -62 -19t-19 -63zM214 532v-23h187v34q0 39 8 61q-50 14 -94 14q-54 0 -77.5 -20
t-23.5 -66z" />
    <glyph glyph-name="fi" unicode="fi" horiz-adv-x="594" 
d="M214 509h311v-509h-124v401h-187v-401h-124v401h-85v108h85v30q0 101 59 143t180 42q105 0 189 -31l-29 -97q-65 22 -144 22q-69 0 -100 -18.5t-31 -67.5v-23z" />
    <glyph glyph-name="fl" unicode="fl" horiz-adv-x="599" 
d="M525 693v-550q0 -71 39 -120l-110 -47q-53 62 -53 162v469q-46 11 -86 11q-54 0 -77.5 -18.5t-23.5 -67.5v-23h135v-108h-135v-401h-124v401h-85v108h85v30q0 106 58 145q58 40 169 40q106 0 208 -31z" />
    <glyph glyph-name="ffi" unicode="ffi" horiz-adv-x="905" 
d="M525 509h311v-509h-124v401h-187v-401h-124v401h-187v-401h-124v401h-85v108h85v30q0 104 55 144q56 41 149 41q97 0 178 -34q55 34 168 34q105 0 189 -31l-29 -97q-65 22 -144 22q-72 0 -101.5 -20t-29.5 -68v-21zM214 532v-23h187v30q0 40 10 64q-47 15 -96 15
q-54 0 -77.5 -20t-23.5 -66z" />
    <glyph glyph-name="ffl" unicode="ffl" horiz-adv-x="911" 
d="M836 693v-550q0 -71 39 -120l-110 -47q-53 62 -53 162v469q-46 11 -86 11q-54 0 -77.5 -18.5t-23.5 -67.5v-23h135v-108h-135v-401h-124v401h-187v-401h-124v401h-85v108h85v30q0 104 55 144q56 41 149 41q94 0 176 -33q52 33 158 33t208 -31zM401 509v30q0 41 10 64
q-53 15 -96 15q-54 0 -77.5 -18.5t-23.5 -67.5v-23h187z" />
    <glyph glyph-name="fj" unicode="fj" horiz-adv-x="594" 
d="M401 -13v414h-187v-401h-124v401h-85v108h85v30q0 101 59.5 143t179.5 42q105 0 189 -31l-29 -97q-65 22 -144 22q-69 0 -100 -18.5t-31 -67.5v-23h311v-519q0 -111 -52 -151q-51 -42 -158 -42v103q46 0 66 19.5t20 67.5z" />
    <glyph glyph-name="fk" unicode="fk" horiz-adv-x="883" 
d="M525 693v-693h-124v607q-46 11 -86 11q-54 0 -77.5 -18.5t-23.5 -67.5v-23h135v-108h-135v-401h-124v401h-85v108h85v30q0 106 58 145q58 40 169 40q106 0 208 -31zM884 0h-147q-173 252 -212 269q47 38 197 240h146q-136 -187 -194 -231q22 -13 78.5 -87.5t131.5 -190.5
z" />
    <glyph glyph-name="ffk" unicode="ffk" horiz-adv-x="1194" 
d="M836 693v-693h-124v607q-46 11 -86 11q-55 0 -78 -19.5t-23 -66.5v-23h135v-108h-135v-401h-124v401h-187v-401h-124v401h-85v108h85v30q0 103 55 143.5t148 40.5q96 0 177 -32q52 33 158 33q109 0 208 -31zM1195 0h-147q-173 252 -212 269q47 38 197 240h146
q-136 -187 -194 -231q22 -13 78.5 -87.5t131.5 -190.5zM214 532v-23h187v30q0 41 10 64q-53 15 -96 15q-54 0 -77.5 -20t-23.5 -66z" />
    <glyph glyph-name="Th" unicode="Th" horiz-adv-x="1083" 
d="M1018 293v-293h-124v246q0 102 -21 134t-82 32q-41 0 -69 -12.5t-28 -32.5v-367h-124v583h-199v-583h-133v583h-235v114h691v-208q67 35 140 35q64 0 101 -18q83 -37 83 -213z" />
    <glyph glyph-name=".notdef" horiz-adv-x="530" 
d="M530 0h-530v697h530v-697zM133 615l132 -196l132 196h-264zM445 545l-132 -196l132 -197v393zM265 279l-132 -197h264zM217 349l-132 196v-393z" />
    <glyph glyph-name=".null" horiz-adv-x="0" 
 />
    <glyph glyph-name="nonmarkingreturn" horiz-adv-x="333" 
 />
    <glyph glyph-name="space" unicode=" " horiz-adv-x="266" 
 />
    <glyph glyph-name="exclam" unicode="!" horiz-adv-x="332" 
d="M120 223l-31 474h153l-31 -474h-91zM166 143q48 0 64 -13.5t16 -56.5q0 -47 -16 -62.5t-64 -15.5q-46 0 -62 15.5t-16 62.5q0 43 15.5 56.5t62.5 13.5z" />
    <glyph glyph-name="quotedbl" unicode="&#x22;" horiz-adv-x="370" 
d="M56 457l-11 240h112l-19 -240h-82zM225 457l-9 240h109l-19 -240h-81z" />
    <glyph glyph-name="numbersign" unicode="#" horiz-adv-x="712" 
d="M169 435h-129l7 100h129l10 162h116l-11 -162h138l11 162h115l-10 -162h137l-7 -100h-137l-10 -159h139l-7 -99h-138l-12 -177h-115l11 177h-138l-11 -177h-116l12 177h-128l7 99h127zM423 435h-138l-11 -159h138z" />
    <glyph glyph-name="dollar" unicode="$" horiz-adv-x="622" 
d="M266 682v143h88v-138q111 -1 189 -27l-29 -110q-54 22 -160 23v-171q103 -14 153.5 -61t50.5 -131q0 -95 -49.5 -143t-154.5 -59v-145h-88v142q-117 1 -195 26l29 111q59 -20 166 -24v180q-104 12 -154 54t-50 122q0 95 50 145.5t154 62.5zM354 285v-163q81 13 81 81
q0 37 -17.5 55t-63.5 27zM185 488q0 -34 17.5 -50.5t63.5 -23.5v155q-81 -13 -81 -81z" />
    <glyph glyph-name="percent" unicode="%" horiz-adv-x="959" 
d="M205 0l428 697h117l-429 -697h-116zM35 491q0 129 41 176t141 47t141 -47t41 -176q0 -131 -42 -181q-41 -50 -140 -50t-141 50q-41 50 -41 181zM217 349q43 0 57 27q15 28 15 114q0 84 -15 110q-14 26 -57 26t-58 -26t-15 -110t15 -113q16 -28 58 -28zM560 217
q0 128 41 175t141 47t141 -47t41 -175q0 -131 -42 -181q-41 -50 -140 -50t-141 50q-41 50 -41 181zM669 216q0 -86 15 -114q16 -28 58 -28q44 0 57 28q15 28 15 114q0 84 -15 110q-13 25 -57 25q-43 0 -58 -25q-15 -26 -15 -110z" />
    <glyph glyph-name="ampersand" unicode="&#x26;" horiz-adv-x="796" 
d="M628 396h133q0 -129 -95 -242q21 -28 108 -154h-150q-17 30 -49 75q-64 -48 -123.5 -68.5t-138.5 -20.5q-146 0 -204 43q-59 44 -59 153q0 173 187 180q-86 8 -114 47q-27 40 -27 119q0 96 53 141t189 45q133 0 188 -41q54 -41 54 -134q0 -78 -37 -118.5t-123 -47.5
q69 -6 167 -126q41 68 41 149zM313 94q63 0 105.5 15.5t88.5 54.5q-106 145 -188 145q-69 0 -99 -24.5t-30 -83.5q0 -61 26 -84t97 -23zM333 418q59 0 86.5 22.5t27.5 73.5t-24.5 70.5t-84.5 19.5q-61 0 -85 -19.5t-24 -69.5q0 -53 24 -75t80 -22z" />
    <glyph glyph-name="quotesingle" unicode="'" horiz-adv-x="202" 
d="M56 457l-11 240h112l-19 -240h-82z" />
    <glyph glyph-name="parenleft" unicode="(" horiz-adv-x="303" 
d="M288 816l57 -93q-146 -71 -146 -449q0 -191 38.5 -303t107.5 -146l-57 -93q-102 46 -161 184t-59 358t59 358t161 184z" />
    <glyph glyph-name="parenright" unicode=")" horiz-adv-x="303" 
d="M15 -268l-58 93q146 71 146 449q0 191 -38.5 303t-107.5 146l58 93q102 -46 161 -184t59 -358t-59 -358t-161 -184z" />
    <glyph glyph-name="asterisk" unicode="*" horiz-adv-x="494" 
d="M159 479h-129v100h129l-65 113l89 50l64 -112l64 112l89 -50l-66 -113h130v-100h-130l65 -113l-88 -49l-64 110l-64 -110l-89 50z" />
    <glyph glyph-name="plus" unicode="+" horiz-adv-x="582" 
d="M231 303h-183v118h183v184h119v-184h184v-118h-184v-184h-119v184z" />
    <glyph glyph-name="comma" unicode="," horiz-adv-x="285" 
d="M88 103h148l-115 -262h-111z" />
    <glyph glyph-name="hyphen" unicode="-" horiz-adv-x="304" 
d="M275 222h-246v118h246v-118z" />
    <glyph glyph-name="hyphen" unicode="&#xad;" horiz-adv-x="304" 
d="M275 222h-246v118h246v-118z" />
    <glyph glyph-name="period" unicode="." horiz-adv-x="285" 
d="M141 143q49 0 64.5 -13t15.5 -57q0 -47 -16 -62.5t-64 -15.5q-46 0 -61.5 15.5t-15.5 62.5q0 44 15 57t62 13z" />
    <glyph glyph-name="slash" unicode="/" horiz-adv-x="467" 
d="M15 0l356 697h134l-356 -697h-134z" />
    <glyph glyph-name="zero" unicode="0" horiz-adv-x="626" 
d="M313 -14q-136 0 -199 82t-63 290q0 138 30 217q30 78 84 108.5t148 30.5q91 0 146 -30q116 -62 116 -326q-2 -142 -31 -224t-83.5 -115t-147.5 -33zM183 358q2 -84 7 -130t20.5 -74.5t38 -37.5t64.5 -11q34 2 54.5 8.5t36.5 20.5t23.5 44t11.5 71t5 109q-2 68 -6 107.5
t-11 67.5t-23.5 40.5t-35.5 17.5t-55 6q-25 -1 -41 -3.5t-31 -8t-23 -17t-15.5 -27t-11 -43t-5.5 -59.5t-3 -81z" />
    <glyph glyph-name="one" unicode="1" horiz-adv-x="626" 
d="M410 726v-726h-129v556l-156 -67l-37 108z" />
    <glyph glyph-name="two" unicode="2" horiz-adv-x="626" 
d="M102 568l-28 114q105 32 222 32q136 0 197 -45q61 -43 61 -160q0 -57 -12 -96q-10 -37 -50 -85q-35 -42 -98 -92q-48 -38 -168 -122h327v-114h-506v106l148 113q72 57 100 82q39 34 66 61q19 20 33 47q14 24 17 40t3 49q0 56 -28 76.5t-101 20.5q-109 0 -183 -27z" />
    <glyph glyph-name="three" unicode="3" horiz-adv-x="626" 
d="M396 369q90 -4 126.5 -47.5t36.5 -133.5q0 -112 -65 -157q-64 -45 -215 -45q-119 0 -229 25l25 114q72 -20 178 -20q99 0 130 21q33 22 33 80q0 59 -27.5 81.5t-96.5 22.5h-99v112h96q65 0 91 19.5t26 69.5q0 49 -30 67t-120 18q-106 0 -175 -22l-26 114q122 26 226 26
q146 0 205 -41t59 -137q0 -81 -32.5 -120t-116.5 -47z" />
    <glyph glyph-name="four" unicode="4" horiz-adv-x="622" 
d="M365 0v179h-348v41q160 288 298 477h176v-409h93v-109h-93v-179h-126zM177 288h188v295q-94 -125 -188 -295z" />
    <glyph glyph-name="five" unicode="5" horiz-adv-x="626" 
d="M96 306v391h432v-114h-307v-155q47 4 83 4q145 0 200 -49q56 -50 56 -168q0 -131 -61 -180t-213 -49q-121 0 -222 25q21 91 26 114q68 -20 171 -20q94 0 125 20q31 21 31 83q0 68 -28 90t-122 22q-95 0 -171 -14z" />
    <glyph glyph-name="six" unicode="6" horiz-adv-x="626" 
d="M369 714q101 0 193 -27l-29 -116q-63 23 -164 23q-88 0 -127 -30q-41 -32 -47 -143q66 11 132 11q146 0 201 -49q57 -49 57 -168q0 -131 -58 -180t-204 -49q-151 0 -210 78q-59 80 -59 290t73 287q39 40 95.5 56.5t146.5 16.5zM323 105q74 0 99 22t25 81q0 65 -27 89
q-26 24 -107 24q-56 0 -120 -11q1 -123 31 -165q28 -40 99 -40z" />
    <glyph glyph-name="seven" unicode="7" horiz-adv-x="626" 
d="M67 697h535v-40q-70 -111 -161 -311q-90 -197 -141 -346h-149q58 160 137 328q79 170 139 255h-360v114z" />
    <glyph glyph-name="eight" unicode="8" horiz-adv-x="626" 
d="M438 201q0 61 -28 87t-97 26q-68 0 -96 -26t-28 -87t26.5 -84t97.5 -23t98 23.5t27 83.5zM313 417q60 0 86.5 22.5t26.5 75.5q0 51 -25 70t-88 19q-64 0 -89 -19t-25 -70q0 -53 26.5 -75.5t87.5 -22.5zM313 -14q-143 0 -203 45q-59 47 -59 157q0 90 36.5 133.5
t126.5 47.5q-84 8 -116 47t-32 120q0 95 53 136q53 42 194 42t194 -42q53 -41 53 -136q0 -81 -32 -120t-116 -47q90 -4 126.5 -47.5t36.5 -133.5q0 -110 -59 -157q-58 -45 -203 -45z" />
    <glyph glyph-name="nine" unicode="9" horiz-adv-x="626" 
d="M309 268q-147 0 -202 46q-56 47 -56 164q0 132 58 184t204 52q156 0 211 -50q55 -49 55 -191q0 -137 -65 -250q-63 -110 -179 -223h-164q167 158 225 273q-45 -5 -87 -5zM440 459q0 86 -26 112q-25 25 -101 25q-73 0 -98.5 -24t-25.5 -88q0 -66 25 -85t109 -19
q65 0 108 7q9 35 9 72z" />
    <glyph glyph-name="colon" unicode=":" horiz-adv-x="285" 
d="M141 143q49 0 64.5 -13t15.5 -57q0 -47 -16 -62.5t-64 -15.5q-46 0 -61.5 15.5t-15.5 62.5q0 44 15 57t62 13zM141 515q49 0 64.5 -13.5t15.5 -57.5q0 -47 -16 -62t-64 -15q-46 0 -61.5 15t-15.5 62q0 44 15 57.5t62 13.5z" />
    <glyph glyph-name="semicolon" unicode=";" horiz-adv-x="285" 
d="M88 103h148l-115 -262h-111zM141 515q49 0 64.5 -13.5t15.5 -57.5q0 -47 -16 -62t-64 -15q-46 0 -61.5 15t-15.5 62q0 44 15 57.5t62 13.5z" />
    <glyph glyph-name="less" unicode="&#x3c;" horiz-adv-x="582" 
d="M448 675l67 -88l-268 -225l268 -227l-65 -90l-366 285v61z" />
    <glyph glyph-name="equal" unicode="=" horiz-adv-x="582" 
d="M534 432h-486v118h486v-118zM534 168h-486v118h486v-118z" />
    <glyph glyph-name="greater" unicode="&#x3e;" horiz-adv-x="582" 
d="M151 46l-66 88l268 225l-268 228l65 89l365 -285v-61z" />
    <glyph glyph-name="question" unicode="?" horiz-adv-x="565" 
d="M288 281v-74h-125v175h65q95 0 126 22t31 87q0 61 -28 82q-28 22 -113 22q-106 0 -178 -21l-24 115q109 25 210 25q150 0 212 -50q61 -49 61 -180q0 -113 -57 -158q-56 -45 -180 -45zM220 143q49 0 64.5 -13t15.5 -57q0 -47 -16 -62.5t-64 -15.5q-46 0 -61.5 15.5
t-15.5 62.5q0 44 15 57t62 13z" />
    <glyph glyph-name="at" unicode="@" horiz-adv-x="939" 
d="M440 430q81 0 125 -10q-2 63 -29 85q-29 23 -107 23q-84 0 -128 -9.5t-76 -37.5q-31 -27 -43 -76t-12 -137q0 -90 13 -139.5t48 -79.5t88.5 -41t149.5 -11q179 0 241 62q63 62 63 242q0 130 -22 187h113q20 -69 20 -191q0 -227 -96 -316q-94 -88 -318 -88
q-116 0 -190.5 17.5t-126.5 59.5q-52 41 -75.5 112.5t-23.5 183.5q0 214 98 292q50 39 114.5 56t158.5 17q77 0 120 -10.5t75 -39.5q32 -30 46 -83.5t14 -144.5q0 -87 -10.5 -135.5t-37.5 -77.5q-27 -27 -64.5 -36t-109.5 -9q-117 0 -161 35q-43 34 -43 134q0 102 40 133
q40 33 146 33zM471 342q-57 0 -77 -14q-19 -13 -19 -60t19 -63q20 -15 78 -15q54 0 73.5 20.5t19.5 77.5v47q-34 7 -94 7z" />
    <glyph glyph-name="A" unicode="A" horiz-adv-x="682" 
d="M701 0h-146q-52 130 -67 174h-305l-54 -174h-139q112 351 253 697h207q125 -397 251 -697zM353 585h-27q-51 -131 -108 -298h232q-52 147 -97 298z" />
    <glyph glyph-name="B" unicode="B" horiz-adv-x="712" 
d="M220 111h220q67 0 67 98q0 103 -71 103h-216v-201zM220 419h214q60 0 60 84q0 43 -13.5 62.5t-46.5 19.5h-214v-166zM489 369q90 -4 125 -46t35 -132q0 -191 -180 -191h-381v697h375q95 0 133 -40t38 -127q0 -77 -29 -115q-29 -39 -116 -46z" />
    <glyph glyph-name="C" unicode="C" horiz-adv-x="592" 
d="M53 355q0 209 81 286q42 40 99.5 56.5t146.5 16.5q104 0 200 -26l-29 -116q-60 22 -148 22q-66 0 -100 -8t-61 -32q-26 -24 -37 -71t-11 -129q0 -156 48 -204q26 -25 61 -34t100 -9q88 0 148 22l29 -118q-88 -25 -200 -25q-114 0 -184 32q-143 68 -143 337z" />
    <glyph glyph-name="D" unicode="D" horiz-adv-x="736" 
d="M88 0v697h266q170 0 246 -71q83 -76 83 -275q0 -196 -79 -274q-79 -77 -250 -77h-266zM542 350q0 81 -9.5 125t-34.5 68q-24 24 -58 32t-99 8h-121v-469h121q64 1 99 9.5t59 35t32.5 70t10.5 121.5z" />
    <glyph glyph-name="E" unicode="E" horiz-adv-x="620" 
d="M88 0v697h506v-114h-374v-161h267v-113h-267v-195h374v-114h-506z" />
    <glyph glyph-name="F" unicode="F" horiz-adv-x="584" 
d="M88 0v697h496v-114h-364v-197h267v-113h-267v-273h-132z" />
    <glyph glyph-name="G" unicode="G" horiz-adv-x="700" 
d="M493 116v180h-152v111h287v-391q-94 -30 -248 -30q-114 0 -184 32q-143 68 -143 337q0 209 88 287q45 39 106 55.5t152 16.5q114 0 210 -26l-27 -115q-60 21 -173 21q-98 0 -143 -23q-38 -18 -55 -69.5t-17 -147.5q0 -157 48 -205q26 -25 61.5 -34t99.5 -9q50 0 90 10z
" />
    <glyph glyph-name="H" unicode="H" horiz-adv-x="736" 
d="M518 309h-298v-309h-132v697h132v-266h298v266h130v-697h-130v309z" />
    <glyph glyph-name="I" unicode="I" horiz-adv-x="308" 
d="M88 0v697h132v-697h-132z" />
    <glyph glyph-name="J" unicode="J" horiz-adv-x="461" 
d="M242 697h133l1 -505q0 -206 -212 -206q-84 0 -158 27l26 118q53 -21 119 -21q91 0 91 99v488z" />
    <glyph glyph-name="K" unicode="K" horiz-adv-x="662" 
d="M88 697h132v-697h-132v697zM675 0h-162q-97 159 -178 257q-79 97 -114 111q34 23 112 115q69 81 160 214h160q-89 -126 -159 -209q-71 -84 -104 -111q34 -23 112 -122q82 -103 173 -255z" />
    <glyph glyph-name="L" unicode="L" horiz-adv-x="551" 
d="M88 0v697h132v-582h329v-115h-461z" />
    <glyph glyph-name="M" unicode="M" horiz-adv-x="916" 
d="M464 251q84 221 193 446h171v-697h-129v519q-71 -155 -194 -455h-103q-135 342 -187 455v-519h-127v697h180q97 -198 196 -446z" />
    <glyph glyph-name="N" unicode="N" horiz-adv-x="774" 
d="M554 697h131v-697h-161q-137 255 -307 525v-525h-129v697h173q149 -234 293 -503v503z" />
    <glyph glyph-name="O" unicode="O" horiz-adv-x="770" 
d="M385 -14q-170 0 -249 76q-83 82 -83 293q0 209 83 286q44 39 102.5 56t146.5 17t147 -17t101 -56q83 -77 83 -286q0 -107 -20 -179t-63 -113.5t-102 -59t-146 -17.5zM194 353q0 -107 17 -159t55.5 -70.5t118.5 -18.5t118.5 18.5t55.5 70.5t17 159q0 85 -8 129.5t-31 69.5
q-22 26 -55 34.5t-97 8.5t-97 -8.5t-56 -34.5q-22 -25 -30 -69.5t-8 -129.5z" />
    <glyph glyph-name="P" unicode="P" horiz-adv-x="673" 
d="M220 585v-245h194q86 0 86 119q0 126 -83 126h-197zM220 230v-230h-132v697h311q135 0 191 -57q55 -55 55 -182q0 -96 -50 -163q-50 -65 -141 -65h-234z" />
    <glyph glyph-name="Q" unicode="Q" horiz-adv-x="783" 
d="M723 355q0 -160 -47.5 -240.5t-147.5 -99.5q72 -19 207 -207h-154q-53 82 -104 128t-88 50q-114 1 -185 33q-144 67 -144 336q0 209 83 286q42 39 101 56t147 17t147 -17t101 -56q84 -75 84 -286zM391 105q91 0 133 26q34 24 45.5 72.5t13.5 149.5q0 106 -17 157t-55 68
q-39 17 -120 17q-62 0 -95.5 -7.5t-56.5 -34.5t-30.5 -72.5t-7.5 -127.5q0 -85 8 -130t30 -72q23 -27 56 -36.5t96 -9.5z" />
    <glyph glyph-name="R" unicode="R" horiz-adv-x="706" 
d="M420 585h-200v-210h197q37 0 59 26t22 76q0 108 -78 108zM462 303q36 -13 88 -82q56 -71 145 -221h-163q-151 266 -219 266h-93v-266h-132v697h363q194 0 194 -203q0 -184 -183 -191z" />
    <glyph glyph-name="S" unicode="S" horiz-adv-x="622" 
d="M346 714q120 0 213 -31l-29 -114q-69 25 -184 25q-85 0 -121 -20.5t-36 -70.5q0 -41 30 -61q31 -19 123 -28q123 -13 178.5 -62t55.5 -147q0 -118 -71.5 -168.5t-229.5 -50.5q-127 0 -217 31l29 114q78 -25 186 -25q87 0 124 20.5t37 71.5q0 44 -33 66q-33 24 -126 31
q-121 12 -173.5 55.5t-52.5 136.5q0 119 72.5 173t224.5 54z" />
    <glyph glyph-name="T" unicode="T" horiz-adv-x="609" 
d="M371 583v-583h-133v583h-235v114h603v-114h-235z" />
    <glyph glyph-name="U" unicode="U" horiz-adv-x="742" 
d="M532 231v466h132v-486q0 -129 -73 -177q-72 -48 -220 -48q-147 0 -221 48q-72 48 -72 177v486h133v-467q0 -69 37 -96t123 -27q89 0 125 27t36 97z" />
    <glyph glyph-name="V" unicode="V" horiz-adv-x="648" 
d="M326 134q95 234 192 563h139q-106 -345 -255 -697h-169q-127 414 -252 697h146q120 -291 199 -563z" />
    <glyph glyph-name="W" unicode="W" horiz-adv-x="975" 
d="M691 164q85 267 145 533h136q-88 -360 -202 -697h-168q-40 212 -109 478q-37 -183 -128 -478h-167q-109 441 -200 697h144q81 -242 150 -533q104 344 140 533h122q102 -365 137 -533z" />
    <glyph glyph-name="X" unicode="X" horiz-adv-x="674" 
d="M0 697h169l175 -230l160 230h162l-241 -342l252 -355h-164l-170 241l-185 -241h-161l265 352z" />
    <glyph glyph-name="Y" unicode="Y" horiz-adv-x="638" 
d="M-38 697h172q90 -112 194 -266q108 144 184 266h160q-127 -191 -281 -396v-301h-132v300q-182 257 -297 397z" />
    <glyph glyph-name="Z" unicode="Z" horiz-adv-x="621" 
d="M597 0h-580v32q186 252 382 551h-360v114h565v-30q-74 -120 -193 -293q-115 -167 -189 -260h375v-114z" />
    <glyph glyph-name="bracketleft" unicode="[" horiz-adv-x="341" 
d="M90 -260v1065h270v-108h-141v-850h141v-107h-270z" />
    <glyph glyph-name="backslash" unicode="\" horiz-adv-x="467" 
d="M327 0l-356 697h134l356 -697h-134z" />
    <glyph glyph-name="bracketright" unicode="]" horiz-adv-x="341" 
d="M-19 697v108h270v-1065h-270v107h141v850h-141z" />
    <glyph glyph-name="asciicircum" unicode="^" horiz-adv-x="531" 
d="M518 296h-134l-121 266l-119 -266h-131l192 401h119z" />
    <glyph glyph-name="underscore" unicode="_" horiz-adv-x="470" 
d="M441 -166h-412v118h412v-118z" />
    <glyph glyph-name="grave" unicode="`" horiz-adv-x="481" 
d="M225 697l122 -129h-110l-144 129h132z" />
    <glyph glyph-name="a" unicode="a" horiz-adv-x="560" 
d="M494 326v-300q-101 -40 -230 -40q-122 0 -169 35q-46 36 -46 135q0 100 49 133q49 34 151 34q56 0 126 -14q0 68 -24 89q-23 22 -103 22q-85 0 -154 -25l-23 102q102 27 203 27q116 0 168 -44q52 -43 52 -154zM375 98v127q-42 9 -101 9q-58 0 -76.5 -13.5t-18.5 -59.5
q0 -51 18 -66q19 -14 76 -14q51 0 102 17z" />
    <glyph glyph-name="b" unicode="b" 
d="M325 524q110 0 160 -59q51 -59 51 -207q0 -153 -57 -213q-57 -59 -187 -59q-133 0 -223 37v699h124v-232q55 34 132 34zM292 88q69 0 93 31t24 137q0 94 -25 126q-24 33 -90 33q-43 0 -72 -13.5t-29 -34.5v-263q41 -16 99 -16z" />
    <glyph glyph-name="c" unicode="c" horiz-adv-x="470" 
d="M430 118l28 -106q-66 -26 -155 -26q-124 0 -188 61t-64 210t64 207q65 60 188 60q91 0 155 -24l-28 -106q-57 22 -118 22q-75 0 -102 -29.5t-31 -131.5q0 -96 30 -129q32 -32 103 -32q60 0 118 24z" />
    <glyph glyph-name="d" unicode="d" 
d="M272 524q69 0 122 -29v227h124v-699q-90 -37 -222 -37q-131 0 -188 58t-57 211q0 143 54.5 206t166.5 63zM296 92q54 0 98 15v263q0 22 -28.5 35.5t-71.5 13.5q-66 0 -91 -34q-24 -35 -24 -128q0 -101 24 -133q26 -32 93 -32z" />
    <glyph glyph-name="e" unicode="e" horiz-adv-x="552" 
d="M288 524q66 0 106 -13t69 -45q56 -62 50 -244h-332q2 -78 31 -105q31 -26 101 -26q73 0 143 21l20 -98q-83 -28 -178 -28q-119 0 -183 61t-64 210q0 143 58 205t179 62zM293 426q-58 0 -81.5 -23t-29.5 -86h209q-3 65 -23 87q-19 22 -75 22z" />
    <glyph glyph-name="f" unicode="f" horiz-adv-x="376" 
d="M214 536v-27h165v-108h-165v-401h-124v401h-85v108h85v34q0 103 49 142t135 39q78 0 141 -22l-14 -50l-14 -48q-44 14 -92 14q-43 0 -62 -18.5t-19 -63.5z" />
    <glyph glyph-name="g" unicode="g" 
d="M518 486v-447q0 -147 -76 -196q-68 -47 -196 -47q-101 0 -179 30l25 100q76 -25 153 -25t113 27.5t36 92.5q-54 -33 -129 -33q-111 0 -163 58q-51 58 -51 207q0 153 57 211q59 60 188 60t222 -38zM394 143v262q-46 17 -98 17q-69 0 -93 -32t-24 -136q0 -94 24 -127
q24 -32 90 -32q43 0 72 13.5t29 34.5z" />
    <glyph glyph-name="h" unicode="h" horiz-adv-x="583" 
d="M333 524q63 0 101 -18q83 -37 83 -213v-293h-124v283q0 75 -23 102t-79 27q-42 0 -70 -12t-28 -33v-367h-124v722h124v-233q68 35 140 35z" />
    <glyph glyph-name="i" unicode="i" horiz-adv-x="262" 
d="M69 509h124v-509h-124v509zM132 721q43 0 57 -11.5t14 -49.5q0 -42 -14 -55.5t-57 -13.5t-57.5 13.5t-14.5 55.5q0 38 14.5 49.5t57.5 11.5z" />
    <glyph glyph-name="j" unicode="j" horiz-adv-x="262" 
d="M132 721q43 0 57 -11.5t14 -49.5q0 -42 -14 -55.5t-57 -13.5t-57.5 13.5t-14.5 55.5q0 38 14.5 49.5t57.5 11.5zM69 509h124v-519q0 -109 -50 -151q-49 -42 -159 -42v103q45 0 65 19.5t20 67.5v522z" />
    <glyph glyph-name="k" unicode="k" horiz-adv-x="551" 
d="M552 0h-146q-174 253 -213 269v-269h-124v722h124v-453q47 38 197 240h147q-139 -187 -195 -231q23 -13 80 -88t130 -190z" />
    <glyph glyph-name="l" unicode="l" horiz-adv-x="268" 
d="M69 722h124v-579q0 -67 39 -120l-109 -47q-54 62 -54 162v584z" />
    <glyph glyph-name="m" unicode="m" horiz-adv-x="881" 
d="M193 400v-400h-124v480q115 44 235 44q87 0 130 -34q93 34 181 34q109 0 154 -53q46 -52 46 -187v-284h-124v271q0 85 -21 113q-19 28 -81 28q-51 0 -99 -14q14 -48 14 -114v-284h-124v271q0 85 -21 113q-19 28 -81 28q-42 0 -85 -12z" />
    <glyph glyph-name="n" unicode="n" horiz-adv-x="583" 
d="M193 400v-400h-124v480q115 44 241 44q110 0 158 -53q49 -52 49 -187v-284h-124v271q0 85 -22 113q-21 28 -87 28q-46 0 -91 -12z" />
    <glyph glyph-name="o" unicode="o" 
d="M293 -14q-126 0 -185 59q-57 60 -57 212q0 150 58 208q59 59 184 59q127 0 186 -59q58 -58 58 -208q0 -153 -58 -212q-59 -59 -186 -59zM293 424q-68 0 -91 -32t-23 -137q0 -102 23 -136q24 -33 91 -33q68 0 92 33t24 136q-2 76 -12 110t-32 46t-72 13z" />
    <glyph glyph-name="p" unicode="p" 
d="M315 -14q-62 0 -122 29v-207h-124v678q93 38 223 38t187 -59t57 -210q0 -147 -56 -209q-56 -60 -165 -60zM292 417q-60 0 -99 -15v-262q0 -21 28.5 -35t71.5 -14q66 0 91 34t25 127q0 102 -25 133q-24 32 -92 32z" />
    <glyph glyph-name="q" unicode="q" 
d="M262 -14q-110 0 -161 58q-50 59 -50 209q0 153 57 211q59 60 188 60t222 -38v-678h-124v212q-55 -34 -132 -34zM296 422q-69 0 -93 -32t-24 -136q0 -94 24 -127q24 -32 90 -32q43 0 72 13.5t29 34.5v262q-46 17 -98 17z" />
    <glyph glyph-name="r" unicode="r" horiz-adv-x="379" 
d="M323 524q25 0 52 -3v-118q-29 7 -65 7q-50 0 -83.5 -15.5t-33.5 -41.5v-353h-124v509h124v-38q35 53 130 53z" />
    <glyph glyph-name="s" unicode="s" horiz-adv-x="491" 
d="M434 496l-27 -97q-73 24 -148 24q-53 0 -72.5 -11.5t-19.5 -47.5q0 -26 21.5 -37.5t83.5 -17.5q96 -10 136.5 -44.5t40.5 -108.5q0 -94 -56 -132t-162 -38q-105 0 -182 27l26 98q67 -24 151 -24q57 0 78.5 12.5t21.5 49.5q0 28 -23 41.5t-86 19.5q-92 7 -132 39.5
t-40 105.5q0 90 54.5 129.5t163.5 39.5q88 0 171 -28z" />
    <glyph glyph-name="t" unicode="t" horiz-adv-x="415" 
d="M388 509v-108h-169v-219q0 -46 18 -67.5t59 -21.5q42 0 87 14l22 -98q-66 -23 -140 -23q-89 0 -130 38q-40 39 -40 147v230h-85v108h85v86l124 51v-137h169z" />
    <glyph glyph-name="u" unicode="u" horiz-adv-x="583" 
d="M390 110v399h124v-479q-117 -44 -241 -44q-109 0 -159 53q-48 52 -48 187v283h124v-271q0 -84 21 -113q23 -27 87 -27q47 0 92 12z" />
    <glyph glyph-name="v" unicode="v" horiz-adv-x="511" 
d="M255 125q84 222 126 384h126q-68 -229 -183 -509h-153q-83 295 -171 509h129q67 -171 126 -384z" />
    <glyph glyph-name="w" unicode="w" horiz-adv-x="830" 
d="M699 509h126q-74 -266 -174 -509h-154q-39 198 -82 341q-37 -167 -98 -341h-153q-77 277 -164 509h131q66 -179 116 -382q27 78 60 193q29 101 50 189h121q58 -173 103 -382q83 229 118 382z" />
    <glyph glyph-name="x" unicode="x" horiz-adv-x="521" 
d="M377 509h138l-175 -251q104 -147 176 -258h-140q-39 65 -107 161q-76 -102 -125 -161h-138q74 87 198 254q-110 154 -197 255h148q53 -66 117 -156q40 55 105 156z" />
    <glyph glyph-name="y" unicode="y" horiz-adv-x="511" 
d="M381 509h126q-117 -395 -272 -701h-138q31 54 83 167q-82 299 -180 534h129q67 -168 126 -386q86 229 126 386z" />
    <glyph glyph-name="z" unicode="z" horiz-adv-x="497" 
d="M35 401v108h439v-25q-52 -86 -132 -198q-79 -114 -130 -178h255v-108h-449v25q69 87 148 199q73 105 118 177h-249z" />
    <glyph glyph-name="braceleft" unicode="{" horiz-adv-x="338" 
d="M173 274q30 -9 59 -71q29 -63 29 -168t24 -149q25 -45 79 -64l-59 -92q-164 56 -164 267q0 110 -30 168t-80 58v102q50 0 80 58t30 168q0 210 164 266l59 -93q-54 -19 -79 -64q-24 -44 -24 -149q0 -104 -29 -167q-28 -60 -59 -70z" />
    <glyph glyph-name="bar" unicode="|" horiz-adv-x="371" 
d="M120 -256v1011h131v-1011h-131z" />
    <glyph glyph-name="braceright" unicode="}" horiz-adv-x="338" 
d="M307 325v-103q-50 0 -80 -57.5t-30 -167.5q0 -211 -164 -267l-59 94q52 18 78 63q25 43 25 150t28 167q28 61 60 70q-31 9 -60 71q-28 60 -28 168q0 105 -24 149t-79 63l59 92q164 -56 164 -266q0 -110 30 -168t80 -58z" />
    <glyph glyph-name="asciitilde" unicode="~" horiz-adv-x="582" 
d="M466 445l80 -63q-19 -52 -59.5 -83.5t-93.5 -31.5q-41 0 -115 43t-104 43q-38 0 -64 -60l-72 69q57 97 137 97q47 0 122 -42q76 -41 101 -41q24 0 39 15t29 54z" />
    <glyph glyph-name="nbspace" unicode="&#xa0;" horiz-adv-x="266" 
 />
    <glyph glyph-name="exclamdown" unicode="&#xa1;" horiz-adv-x="332" 
d="M212 296l32 -474h-154l32 474h90zM166 376q-48 0 -63.5 13t-15.5 57q0 47 16 62.5t63 15.5q46 0 62 -15.5t16 -62.5q0 -43 -15.5 -56.5t-62.5 -13.5z" />
    <glyph glyph-name="cent" unicode="&#xa2;" horiz-adv-x="458" 
d="M244 645v106h98v-104q64 -5 107 -21l-28 -103q-34 15 -79 16v-318q48 3 79 18l28 -101q-40 -18 -107 -24v-121h-98v121q-98 13 -145.5 77t-47.5 192q0 126 48.5 188t144.5 74zM170 380q0 -69 17.5 -104t56.5 -46v301q-39 -10 -56.5 -44.5t-17.5 -106.5z" />
    <glyph glyph-name="sterling" unicode="&#xa3;" horiz-adv-x="610" 
d="M95 293h-59v105h59v79q0 120 68 178t211 58q124 0 213 -31l-29 -113q-72 24 -184 24q-81 0 -114 -25t-33 -83v-87h197v-105h-197v-179h339v-114h-471v293z" />
    <glyph glyph-name="currency" unicode="&#xa4;" horiz-adv-x="674" 
d="M342 83q-62 0 -104 17l-80 -100l-104 75l80 103q-34 61 -34 177q0 109 31 168l-77 102l114 72l70 -93q42 17 104 17q64 0 102 -15l61 91l114 -71l-68 -97q35 -62 35 -174q0 -115 -35 -177l74 -103l-112 -75l-70 98q-42 -15 -101 -15zM342 515q-39 -1 -58 -5t-34 -21.5
t-20 -48t-7 -88.5q0 -101 25 -132t94 -31q70 0 95 31q26 32 26 132q0 108 -28 136q-15 17 -34.5 22t-58.5 5z" />
    <glyph glyph-name="yen" unicode="&#xa5;" horiz-adv-x="638" 
d="M259 278h-178v92h128q-149 207 -247 327h172q90 -112 194 -266q108 144 184 266h160q-101 -153 -230 -327h120v-92h-171v-78h171v-92h-171v-108h-132v108h-178v92h178v78z" />
    <glyph glyph-name="brokenbar" unicode="&#xa6;" horiz-adv-x="371" 
d="M120 388v367h131v-367h-131zM120 -256v367h131v-367h-131z" />
    <glyph glyph-name="section" unicode="&#xa7;" horiz-adv-x="622" 
d="M551 684l-27 -108q-67 24 -176 24q-81 0 -116.5 -20.5t-35.5 -67.5q0 -38 29 -56q32 -18 119 -25q122 -12 180.5 -57.5t58.5 -133.5q0 -64 -46 -119q36 -39 36 -108q0 -216 -294 -216q-116 0 -203 30l27 108q63 -24 176 -24q81 0 116.5 20.5t35.5 66.5q0 38 -30 56
q-29 19 -117 26q-122 12 -180.5 57.5t-58.5 132.5q0 69 43 122q-33 39 -33 105q0 217 294 217q115 0 202 -30zM195 334q-18 -22 -18 -57q0 -40 34 -58q35 -18 134 -27q51 -3 87 -16q18 22 18 57q0 40 -34 58q-35 20 -134 27q-55 4 -87 16z" />
    <glyph glyph-name="dieresis" unicode="&#xa8;" horiz-adv-x="462" 
d="M179 626q0 -38 -12 -50t-48 -12t-47.5 12t-11.5 50q0 35 11.5 45t47.5 10t48 -10.5t12 -44.5zM333 681q36 0 47.5 -10t11.5 -45q0 -38 -12 -50t-47 -12q-37 0 -48.5 12t-11.5 50q0 35 11.5 45t48.5 10z" />
    <glyph glyph-name="copyright" unicode="&#xa9;" horiz-adv-x="837" 
d="M418 -14q-181 0 -268 76q-90 83 -90 293q0 209 91 286q47 39 110 56t157 17q181 0 268 -73q91 -77 91 -286q0 -208 -86 -289q-86 -80 -273 -80zM418 622q-78 0 -119.5 -9.5t-72.5 -37.5t-43.5 -79t-12.5 -142q0 -90 12.5 -143t42.5 -83q31 -29 74 -39.5t119 -10.5
q77 0 120 10.5t73 39.5q31 30 43.5 82.5t12.5 143.5t-12.5 142t-43.5 79t-72.5 37.5t-120.5 9.5zM548 246l23 -89q-57 -22 -130 -22q-112 0 -161 46q-48 47 -48 172q0 127 48 170q49 45 161 45q74 0 130 -19l-23 -90q-41 16 -101 16q-58 0 -81 -23q-21 -22 -21 -100
q0 -74 22 -99t80 -25q57 0 101 18z" />
    <glyph glyph-name="ordfeminine" unicode="&#xaa;" horiz-adv-x="435" 
d="M375 577v-215q-72 -28 -165 -28q-87 0 -118 25q-32 26 -32 95q0 68 32.5 93t107.5 25q47 0 88 -10q0 47 -17.5 62t-71.5 15q-61 0 -108 -16l-15 72q75 19 142 19q84 0 120.5 -30.5t36.5 -106.5zM288 413v89q-25 7 -70 7q-37 0 -51.5 -10.5t-14.5 -40.5q0 -33 13.5 -45
t51.5 -12q36 0 71 12z" />
    <glyph glyph-name="guillemotleft" unicode="&#xab;" horiz-adv-x="668" 
d="M297 591l71 -73l-176 -204l176 -208l-70 -75l-271 281zM570 591l71 -73l-176 -204l176 -208l-70 -75l-271 281z" />
    <glyph glyph-name="logicalnot" unicode="&#xac;" horiz-adv-x="519" 
d="M355 311h-326v117h457v-428h-131v311z" />
    <glyph glyph-name="registered" unicode="&#xae;" horiz-adv-x="571" 
d="M177 600h163q35 0 53 -24t18 -64q0 -43 -16.5 -61.5t-51.5 -18.5q44 -21 61 -98h-85q-5 27 -19.5 51.5t-25.5 24.5h-19v-76h-78v266zM309 536h-54v-58h54q21 0 21 30q0 28 -21 28zM285 713q127 0 183 -54q56 -53 56 -193q0 -138 -57 -194q-55 -55 -182 -55t-182 55
q-56 56 -56 194q0 140 56 193q56 54 182 54zM285 640q-90 0 -123 -33q-32 -34 -32 -141q0 -103 33 -139q35 -35 122 -35q90 0 123 35q34 35 34 139q0 108 -33 141q-32 33 -124 33z" />
    <glyph glyph-name="overscore" unicode="&#xaf;" horiz-adv-x="520" 
d="M401 576h-278v90h278v-90z" />
    <glyph glyph-name="overscore" unicode="&#x2c9;" horiz-adv-x="520" 
d="M401 576h-278v90h278v-90z" />
    <glyph glyph-name="degree" unicode="&#xb0;" horiz-adv-x="434" 
d="M35 491q0 129 41 176t141 47t141 -47t41 -176q0 -131 -42 -181q-41 -50 -140 -50t-141 50q-41 50 -41 181zM217 349q43 0 57 27q15 28 15 114q0 84 -15 110q-14 26 -57 26t-58 -26t-15 -110t15 -113q16 -28 58 -28z" />
    <glyph glyph-name="plusminus" unicode="&#xb1;" horiz-adv-x="582" 
d="M231 380h-183v118h183v184h119v-184h184v-118h-184v-184h-119v184zM534 19h-486v118h486v-118z" />
    <glyph glyph-name="twosuperior" unicode="&#xb2;" horiz-adv-x="429" 
d="M67 601l-17 93q58 19 141 19q96 0 139.5 -31t43.5 -102q0 -91 -65 -123q-27 -13 -58 -24l-48 -18q-38 -16 -43 -52h215v-89h-339q8 90 34 136q29 47 88 75l40 18l32 14q40 23 36 55q0 24 -18.5 34.5t-63.5 10.5q-75 0 -117 -16z" />
    <glyph glyph-name="threesuperior" unicode="&#xb3;" horiz-adv-x="423" 
d="M268 499q57 -3 81.5 -30t24.5 -82q0 -67 -45.5 -96t-143.5 -29q-73 0 -143 17l16 85q51 -14 111 -14q53 0 71.5 11t18.5 41q0 32 -15 42t-61 10h-52v83h50q41 0 55 10t14 37q0 25 -16 33.5t-66 8.5q-63 0 -107 -14l-16 85q65 16 140 16q94 0 136.5 -25.5t42.5 -84.5
q0 -51 -21.5 -75.5t-74.5 -28.5z" />
    <glyph glyph-name="acute" unicode="&#xb4;" horiz-adv-x="481" 
d="M347 697l-145 -129h-109l121 129h133z" />
    <glyph glyph-name="mu" unicode="&#xb5;" horiz-adv-x="619" 
d="M411 63q-63 -77 -149 -77q-56 0 -80 24q-5 -116 -17 -202h-117q26 191 26 355v346h124v-277q0 -69 18.5 -96.5t65.5 -27.5q65 0 116 51v351h124v-349q0 -31 15.5 -43t58.5 -12l-21 -120q-75 0 -111 16.5t-53 60.5z" />
    <glyph glyph-name="mu" unicode="&#x3bc;" horiz-adv-x="619" 
d="M411 63q-63 -77 -149 -77q-56 0 -80 24q-5 -116 -17 -202h-117q26 191 26 355v346h124v-277q0 -69 18.5 -96.5t65.5 -27.5q65 0 116 51v351h124v-349q0 -31 15.5 -43t58.5 -12l-21 -120q-75 0 -111 16.5t-53 60.5z" />
    <glyph glyph-name="paragraph" unicode="&#xb6;" horiz-adv-x="673" 
d="M584 697v-697h-116v230h-86v-230h-117v230h-46q-95 0 -143 65t-48 163q0 125 52 181q52 58 183 58h321z" />
    <glyph glyph-name="middot" unicode="&#xb7;" horiz-adv-x="297" 
d="M147 379q52 0 69 -14.5t17 -61.5q0 -51 -17 -67.5t-69 -16.5q-49 0 -66 16.5t-17 67.5q0 46 17 61t66 15z" />
    <glyph glyph-name="middot" unicode="&#x2219;" horiz-adv-x="297" 
d="M147 379q52 0 69 -14.5t17 -61.5q0 -51 -17 -67.5t-69 -16.5q-49 0 -66 16.5t-17 67.5q0 46 17 61t66 15z" />
    <glyph glyph-name="cedilla" unicode="&#xb8;" horiz-adv-x="641" 
d="M294 -93l36 93h49v-42q61 0 85.5 -17t24.5 -61q0 -47 -30.5 -65t-106.5 -18q-63 0 -98 16l22 54q24 -12 71 -12q23 0 32 5.5t9 20.5q0 19 -19.5 24t-74.5 2z" />
    <glyph glyph-name="onesuperior" unicode="&#xb9;" horiz-adv-x="377" 
d="M263 725v-447h-104v306l-95 -41l-27 88z" />
    <glyph glyph-name="ordmasculine" unicode="&#xba;" horiz-adv-x="460" 
d="M229 324q-90 0 -132 45.5t-42 150.5t42 149.5t132 44.5q92 0 134 -44.5t42 -149.5t-42 -150.5t-134 -45.5zM229 635q-46 0 -62 -22q-15 -23 -15 -94t16 -93q17 -23 61 -23q45 0 62 23t17 93q0 72 -16 94t-63 22z" />
    <glyph glyph-name="guillemotright" unicode="&#xbb;" horiz-adv-x="668" 
d="M372 32l-72 73l177 204l-177 209l70 74l272 -280zM99 32l-72 73l177 204l-177 209l70 74l272 -280z" />
    <glyph glyph-name="onequarter" unicode="&#xbc;" horiz-adv-x="860" 
d="M109 0l430 697h122l-430 -697h-122zM22 631l227 94v-447h-105v306l-94 -41zM546 189h110v161q-63 -79 -110 -161zM622 432h137v-243h57v-91h-57v-98h-103v98h-228v43q86 148 194 291z" />
    <glyph glyph-name="onehalf" unicode="&#xbd;" horiz-adv-x="860" 
d="M105 0l430 697h122l-430 -697h-122zM18 631l227 94v-447h-105v306l-94 -41zM647 439q96 0 139.5 -31t43.5 -102q0 -105 -91 -136q-81 -28 -101 -43q-19 -15 -22 -38h215v-89h-339q7 96 39 143q33 47 104 77q47 18 67 35.5t20 42.5q0 26 -18.5 36t-64.5 10q-68 0 -116 -17
l-17 93q58 19 141 19z" />
    <glyph glyph-name="threequarters" unicode="&#xbe;" horiz-adv-x="860" 
d="M172 0l431 697h122l-431 -697h-122zM670 0v98h-228v43q92 155 195 291h136v-243h58v-91h-58v-98h-103zM560 189h110v161q-65 -85 -110 -161zM165 454h-52v83h50q42 0 55.5 9.5t13.5 37.5q0 25 -16 33.5t-66 8.5q-63 0 -107 -14q-6 34 -16 85q65 16 140 16
q94 0 136.5 -25.5t42.5 -84.5q0 -51 -21.5 -75.5t-74.5 -28.5q57 -3 81.5 -30t24.5 -82q0 -67 -45.5 -96t-143.5 -29q-73 0 -143 17l16 85q51 -14 111 -14q51 0 70.5 12t19.5 40q0 32 -15 42t-61 10z" />
    <glyph glyph-name="questiondown" unicode="&#xbf;" horiz-adv-x="565" 
d="M279 238v74h125v-175h-65q-95 0 -126 -22t-31 -87q0 -61 28 -82q28 -22 113 -22q106 0 178 21l24 -115q-109 -25 -210 -25q-150 0 -212 50q-61 49 -61 180q0 113 56 158q57 45 181 45zM347 376q-49 0 -64.5 13t-15.5 57q0 47 16 62.5t64 15.5q46 0 61.5 -15.5t15.5 -62.5
q0 -44 -15 -57t-62 -13z" />
    <glyph glyph-name="Agrave" unicode="&#xc0;" horiz-adv-x="682" 
d="M701 0h-146q-52 130 -67 174h-305l-54 -174h-139q112 351 253 697h207q125 -397 251 -697zM353 585h-27q-51 -131 -108 -298h232q-52 147 -97 298zM301 876l135 -129h-114l-158 129h137z" />
    <glyph glyph-name="Aacute" unicode="&#xc1;" horiz-adv-x="682" 
d="M701 0h-146q-52 130 -67 174h-305l-54 -174h-139q112 351 253 697h207q125 -397 251 -697zM353 585h-27q-51 -131 -108 -298h232q-52 147 -97 298zM514 876l-158 -129h-108l129 129h137z" />
    <glyph glyph-name="Acircumflex" unicode="&#xc2;" horiz-adv-x="682" 
d="M701 0h-146q-52 130 -67 174h-305l-54 -174h-139q112 351 253 697h207q125 -397 251 -697zM353 585h-27q-51 -131 -108 -298h232q-52 147 -97 298zM528 747h-116l-72 78l-70 -78h-112l122 129h122z" />
    <glyph glyph-name="Atilde" unicode="&#xc3;" horiz-adv-x="682" 
d="M701 0h-146q-52 130 -67 174h-305l-54 -174h-139q112 351 253 697h207q125 -397 251 -697zM353 585h-27q-51 -131 -108 -298h232q-52 147 -97 298zM462 879l61 -50q-15 -42 -47 -67.5t-73 -25.5q-31 0 -76 27t-67 27q-31 0 -51 -50l-56 55q45 79 107 79q36 0 82 -26
q47 -26 66 -26q18 0 30 12.5t24 44.5z" />
    <glyph glyph-name="Adieresis" unicode="&#xc4;" horiz-adv-x="682" 
d="M701 0h-146q-52 130 -67 174h-305l-54 -174h-139q112 351 253 697h207q125 -397 251 -697zM353 585h-27q-51 -131 -108 -298h232q-52 147 -97 298zM292 808q0 -38 -11.5 -49.5t-47.5 -11.5t-48 11.5t-12 49.5q0 35 12 45.5t48 10.5t47.5 -10.5t11.5 -45.5zM446 864
q36 0 47.5 -10.5t11.5 -45.5q0 -38 -11.5 -49.5t-47.5 -11.5t-48 11.5t-12 49.5q0 35 11.5 45.5t48.5 10.5z" />
    <glyph glyph-name="Aring" unicode="&#xc5;" horiz-adv-x="682" 
d="M342 890q62 0 90.5 -23t28.5 -75q0 -83 -78 -95h67q125 -397 251 -697h-146q-52 130 -67 174h-305l-54 -174h-139q112 351 253 697h57q-78 12 -78 95q0 54 28 76t92 22zM353 585h-27q-51 -131 -108 -298h232q-52 147 -97 298zM342 834q-30 0 -40 -10t-10 -33t10 -33
t40 -10q29 0 39.5 9.5t10.5 33.5q0 25 -10.5 34t-39.5 9z" />
    <glyph glyph-name="AE" unicode="&#xc6;" horiz-adv-x="969" 
d="M345 697h597v-114h-374v-161h222v-112h-222v-196h374v-114h-505v174h-311l-112 -174h-158q238 364 489 697zM409 585l-209 -298h237v298h-28z" />
    <glyph glyph-name="Ccedilla" unicode="&#xc7;" horiz-adv-x="592" 
d="M53 355q0 209 81 286q42 40 99.5 56.5t146.5 16.5q104 0 200 -26l-29 -116q-60 22 -148 22q-66 0 -100 -8t-61 -32q-26 -24 -37 -71t-11 -129q0 -156 48 -204q26 -25 61 -34t100 -9q88 0 148 22l29 -118q-93 -24 -194 -25v-28q61 0 85.5 -17t24.5 -61q0 -47 -30.5 -65
t-106.5 -18q-63 0 -98 16l22 54q24 -12 71 -12q23 0 32 5.5t9 20.5q0 19 -19.5 24t-74.5 2l31 81q-145 9 -213 92q-66 82 -66 275z" />
    <glyph glyph-name="Egrave" unicode="&#xc8;" horiz-adv-x="620" 
d="M88 0v697h506v-114h-374v-161h267v-113h-267v-195h374v-114h-506zM338 876l135 -129h-114l-158 129h137z" />
    <glyph glyph-name="Eacute" unicode="&#xc9;" horiz-adv-x="620" 
d="M88 0v697h506v-114h-374v-161h267v-113h-267v-195h374v-114h-506zM518 876l-158 -129h-108l129 129h137z" />
    <glyph glyph-name="Ecircumflex" unicode="&#xca;" horiz-adv-x="620" 
d="M88 0v697h506v-114h-374v-161h267v-113h-267v-195h374v-114h-506zM535 747h-116l-72 78l-70 -78h-112l122 129h122z" />
    <glyph glyph-name="Edieresis" unicode="&#xcb;" horiz-adv-x="620" 
d="M88 0v697h506v-114h-374v-161h267v-113h-267v-195h374v-114h-506zM300 808q0 -38 -11.5 -49.5t-47.5 -11.5t-48 11.5t-12 49.5q0 35 12 45.5t48 10.5t47.5 -10.5t11.5 -45.5zM454 864q36 0 47.5 -10.5t11.5 -45.5q0 -38 -11.5 -49.5t-47.5 -11.5t-48 11.5t-12 49.5
q0 35 11.5 45.5t48.5 10.5z" />
    <glyph glyph-name="Igrave" unicode="&#xcc;" horiz-adv-x="308" 
d="M107 876l135 -129h-114l-158 129h137zM88 0v697h132v-697h-132z" />
    <glyph glyph-name="Iacute" unicode="&#xcd;" horiz-adv-x="308" 
d="M88 0v697h132v-697h-132zM336 876l-158 -129h-108l129 129h137z" />
    <glyph glyph-name="Icircumflex" unicode="&#xce;" horiz-adv-x="308" 
d="M340 747h-116l-72 78l-70 -78h-112l122 129h122zM88 0v697h132v-697h-132z" />
    <glyph glyph-name="Idieresis" unicode="&#xcf;" horiz-adv-x="308" 
d="M88 0v697h132v-697h-132zM108 808q0 -38 -11.5 -49.5t-47.5 -11.5t-48 11.5t-12 49.5q0 35 12 45.5t48 10.5t47.5 -10.5t11.5 -45.5zM262 864q36 0 47.5 -10.5t11.5 -45.5q0 -38 -11.5 -49.5t-47.5 -11.5t-48 11.5t-12 49.5q0 35 11.5 45.5t48.5 10.5z" />
    <glyph glyph-name="Eth" unicode="&#xd0;" horiz-adv-x="736" 
d="M88 311h-52v92h52v294h266q170 0 246 -71q83 -76 83 -275q0 -196 -79 -274q-79 -77 -250 -77h-266v311zM542 350q0 81 -9.5 125t-34.5 67q-24 24 -57.5 32t-99.5 8h-121v-179h159v-92h-159v-197h121q64 1 99 9.5t59 35t32.5 70t10.5 121.5z" />
    <glyph glyph-name="Ntilde" unicode="&#xd1;" horiz-adv-x="774" 
d="M554 697h131v-697h-161q-137 255 -307 525v-525h-129v697h173q149 -234 293 -503v503zM515 879l61 -50q-15 -42 -47 -67.5t-73 -25.5q-31 0 -76 27t-67 27q-31 0 -51 -50l-56 55q45 79 107 79q36 0 82 -26q47 -26 66 -26q18 0 30 12.5t24 44.5z" />
    <glyph glyph-name="Ograve" unicode="&#xd2;" horiz-adv-x="770" 
d="M385 -14q-170 0 -249 76q-83 82 -83 293q0 209 83 286q44 39 102.5 56t146.5 17t147 -17t101 -56q83 -77 83 -286q0 -107 -20 -179t-63 -113.5t-102 -59t-146 -17.5zM194 353q0 -107 17 -159t55.5 -70.5t118.5 -18.5t118.5 18.5t55.5 70.5t17 159q0 85 -8 129.5t-31 69.5
q-22 26 -55 34.5t-97 8.5t-97 -8.5t-56 -34.5q-22 -25 -30 -69.5t-8 -129.5zM349 876l135 -129h-114l-158 129h137z" />
    <glyph glyph-name="Oacute" unicode="&#xd3;" horiz-adv-x="770" 
d="M385 -14q-170 0 -249 76q-83 82 -83 293q0 209 83 286q44 39 102.5 56t146.5 17t147 -17t101 -56q83 -77 83 -286q0 -107 -20 -179t-63 -113.5t-102 -59t-146 -17.5zM194 353q0 -107 17 -159t55.5 -70.5t118.5 -18.5t118.5 18.5t55.5 70.5t17 159q0 85 -8 129.5t-31 69.5
q-22 26 -55 34.5t-97 8.5t-97 -8.5t-56 -34.5q-22 -25 -30 -69.5t-8 -129.5zM518 876l-158 -129h-108l129 129h137z" />
    <glyph glyph-name="Ocircumflex" unicode="&#xd4;" horiz-adv-x="770" 
d="M385 -14q-170 0 -249 76q-83 82 -83 293q0 209 83 286q44 39 102.5 56t146.5 17t147 -17t101 -56q83 -77 83 -286q0 -107 -20 -179t-63 -113.5t-102 -59t-146 -17.5zM194 353q0 -107 17 -159t55.5 -70.5t118.5 -18.5t118.5 18.5t55.5 70.5t17 159q0 85 -8 129.5t-31 69.5
q-22 26 -55 34.5t-97 8.5t-97 -8.5t-56 -34.5q-22 -25 -30 -69.5t-8 -129.5zM569 747h-116l-72 78l-70 -78h-112l122 129h122z" />
    <glyph glyph-name="Otilde" unicode="&#xd5;" horiz-adv-x="770" 
d="M385 -14q-170 0 -249 76q-83 82 -83 293q0 209 83 286q44 39 102.5 56t146.5 17t147 -17t101 -56q83 -77 83 -286q0 -107 -20 -179t-63 -113.5t-102 -59t-146 -17.5zM194 353q0 -107 17 -159t55.5 -70.5t118.5 -18.5t118.5 18.5t55.5 70.5t17 159q0 85 -8 129.5t-31 69.5
q-22 26 -55 34.5t-97 8.5t-97 -8.5t-56 -34.5q-22 -25 -30 -69.5t-8 -129.5zM507 879l61 -50q-15 -42 -47 -67.5t-73 -25.5q-31 0 -76 27t-67 27q-31 0 -51 -50l-56 55q45 79 107 79q36 0 82 -26q47 -26 66 -26q18 0 30 12.5t24 44.5z" />
    <glyph glyph-name="Odieresis" unicode="&#xd6;" horiz-adv-x="770" 
d="M385 -14q-170 0 -249 76q-83 82 -83 293q0 209 83 286q44 39 102.5 56t146.5 17t147 -17t101 -56q83 -77 83 -286q0 -107 -20 -179t-63 -113.5t-102 -59t-146 -17.5zM194 353q0 -107 17 -159t55.5 -70.5t118.5 -18.5t118.5 18.5t55.5 70.5t17 159q0 85 -8 129.5t-31 69.5
q-22 26 -55 34.5t-97 8.5t-97 -8.5t-56 -34.5q-22 -25 -30 -69.5t-8 -129.5zM336 808q0 -38 -11.5 -49.5t-47.5 -11.5t-48 11.5t-12 49.5q0 35 12 45.5t48 10.5t47.5 -10.5t11.5 -45.5zM490 864q36 0 47.5 -10.5t11.5 -45.5q0 -38 -11.5 -49.5t-47.5 -11.5t-48 11.5
t-12 49.5q0 35 11.5 45.5t48.5 10.5z" />
    <glyph glyph-name="multiply" unicode="&#xd7;" horiz-adv-x="582" 
d="M290 279l-129 -130l-84 84l129 130l-130 129l84 84l130 -130l130 131l84 -85l-130 -130l130 -130l-84 -83z" />
    <glyph glyph-name="Oslash" unicode="&#xd8;" horiz-adv-x="770" 
d="M595 667l25 30h135l-88 -101q49 -82 49 -241q0 -107 -20 -179t-63 -113.5t-102 -59t-146 -17.5q-135 0 -207 45l-27 -31h-134l88 101q-52 85 -52 254q0 209 83 286q44 39 102.5 56t146.5 17q137 0 210 -47zM385 595q-77 0 -114 -15q-39 -15 -57.5 -59.5t-18.5 -132.5
q0 -120 14 -168l300 349q-37 26 -124 26zM385 105q115 2 151 41t40 173q0 112 -14 157l-297 -345q35 -26 120 -26z" />
    <glyph glyph-name="Ugrave" unicode="&#xd9;" horiz-adv-x="742" 
d="M532 231v466h132v-486q0 -129 -73 -177q-72 -48 -220 -48q-147 0 -221 48q-72 48 -72 177v486h133v-467q0 -69 37 -96t123 -27q89 0 125 27t36 97zM351 876l135 -129h-114l-158 129h137z" />
    <glyph glyph-name="Uacute" unicode="&#xda;" horiz-adv-x="742" 
d="M532 231v466h132v-486q0 -129 -73 -177q-72 -48 -220 -48q-147 0 -221 48q-72 48 -72 177v486h133v-467q0 -69 37 -96t123 -27q89 0 125 27t36 97zM530 876l-158 -129h-108l129 129h137z" />
    <glyph glyph-name="Ucircumflex" unicode="&#xdb;" horiz-adv-x="742" 
d="M532 231v466h132v-486q0 -129 -73 -177q-72 -48 -220 -48q-147 0 -221 48q-72 48 -72 177v486h133v-467q0 -69 37 -96t123 -27q89 0 125 27t36 97zM554 747h-116l-72 78l-70 -78h-112l122 129h122z" />
    <glyph glyph-name="Udieresis" unicode="&#xdc;" horiz-adv-x="742" 
d="M532 231v466h132v-486q0 -129 -73 -177q-72 -48 -220 -48q-147 0 -221 48q-72 48 -72 177v486h133v-467q0 -69 37 -96t123 -27q89 0 125 27t36 97zM321 808q0 -38 -11.5 -49.5t-47.5 -11.5t-48 11.5t-12 49.5q0 35 12 45.5t48 10.5t47.5 -10.5t11.5 -45.5zM475 864
q36 0 47.5 -10.5t11.5 -45.5q0 -38 -11.5 -49.5t-47.5 -11.5t-48 11.5t-12 49.5q0 35 11.5 45.5t48.5 10.5z" />
    <glyph glyph-name="Yacute" unicode="&#xdd;" horiz-adv-x="638" 
d="M-38 697h172q90 -112 194 -266q108 144 184 266h160q-127 -191 -281 -396v-301h-132v300q-182 257 -297 397zM502 876l-158 -129h-108l129 129h137z" />
    <glyph glyph-name="Thorn" unicode="&#xde;" horiz-adv-x="673" 
d="M88 0v697h132v-103h231q194 0 194 -239q0 -99 -48 -163q-48 -65 -143 -65h-234v-127h-132zM220 481v-244h194q86 0 86 119q0 125 -83 125h-197z" />
    <glyph glyph-name="germandbls" unicode="&#xdf;" horiz-adv-x="654" 
d="M324 714q138 0 200.5 -42t62.5 -136q0 -81 -31.5 -120t-115.5 -47q90 -4 126.5 -47.5t36.5 -133.5q0 -112 -65 -157q-64 -45 -215 -45q-44 0 -69 4q14 104 14 107q28 -4 60 -4q43 0 68 11q38 8 53.5 30t15.5 67q0 62 -29.5 87.5t-97.5 25.5h-38v103h23q74 0 102.5 22
t28.5 76q0 49 -29.5 68.5t-100.5 19.5q-130 0 -130 -93v-510h-125v527q0 187 255 187z" />
    <glyph glyph-name="agrave" unicode="&#xe0;" horiz-adv-x="560" 
d="M494 326v-300q-101 -40 -230 -40q-122 0 -169 35q-46 36 -46 135q0 100 49 133q49 34 151 34q56 0 126 -14q0 68 -24 89q-23 22 -103 22q-85 0 -154 -25l-23 102q102 27 203 27q116 0 168 -44q52 -43 52 -154zM375 98v127q-42 9 -101 9q-58 0 -76.5 -13.5t-18.5 -59.5
q0 -51 18 -66q19 -14 76 -14q51 0 102 17zM247 697l122 -129h-110l-144 129h132z" />
    <glyph glyph-name="aacute" unicode="&#xe1;" horiz-adv-x="560" 
d="M494 326v-300q-101 -40 -230 -40q-122 0 -169 35q-46 36 -46 135q0 100 49 133q49 34 151 34q56 0 126 -14q0 68 -24 89q-23 22 -103 22q-85 0 -154 -25l-23 102q102 27 203 27q116 0 168 -44q52 -43 52 -154zM375 98v127q-42 9 -101 9q-58 0 -76.5 -13.5t-18.5 -59.5
q0 -51 18 -66q19 -14 76 -14q51 0 102 17zM443 697l-145 -129h-109l121 129h133z" />
    <glyph glyph-name="acircumflex" unicode="&#xe2;" horiz-adv-x="560" 
d="M494 326v-300q-101 -40 -230 -40q-122 0 -169 35q-46 36 -46 135q0 100 49 133q49 34 151 34q56 0 126 -14q0 68 -24 89q-23 22 -103 22q-85 0 -154 -25l-23 102q102 27 203 27q116 0 168 -44q52 -43 52 -154zM375 98v127q-42 9 -101 9q-58 0 -76.5 -13.5t-18.5 -59.5
q0 -51 18 -66q19 -14 76 -14q51 0 102 17zM467 568h-117l-71 76l-69 -76h-113l122 129h122z" />
    <glyph glyph-name="atilde" unicode="&#xe3;" horiz-adv-x="560" 
d="M494 326v-300q-101 -40 -230 -40q-122 0 -169 35q-46 36 -46 135q0 100 49 133q49 34 151 34q56 0 126 -14q0 68 -24 89q-23 22 -103 22q-85 0 -154 -25l-23 102q102 27 203 27q116 0 168 -44q52 -43 52 -154zM375 98v127q-42 9 -101 9q-58 0 -76.5 -13.5t-18.5 -59.5
q0 -51 18 -66q19 -14 76 -14q51 0 102 17zM394 702l62 -50q-33 -93 -117 -93q-31 0 -75 26q-44 27 -66 27q-31 0 -52 -51l-56 55q46 81 109 81q37 0 79 -27q43 -26 63 -26q18 0 29.5 12.5t23.5 45.5z" />
    <glyph glyph-name="adieresis" unicode="&#xe4;" horiz-adv-x="560" 
d="M494 326v-300q-101 -40 -230 -40q-122 0 -169 35q-46 36 -46 135q0 100 49 133q49 34 151 34q56 0 126 -14q0 68 -24 89q-23 22 -103 22q-85 0 -154 -25l-23 102q102 27 203 27q116 0 168 -44q52 -43 52 -154zM375 98v127q-42 9 -101 9q-58 0 -76.5 -13.5t-18.5 -59.5
q0 -51 18 -66q19 -14 76 -14q51 0 102 17zM226 626q0 -38 -12 -50t-48 -12t-47.5 12t-11.5 50q0 35 11.5 45t47.5 10t48 -10.5t12 -44.5zM380 681q36 0 47.5 -10t11.5 -45q0 -38 -12 -50t-47 -12q-37 0 -48.5 12t-11.5 50q0 35 11.5 45t48.5 10z" />
    <glyph glyph-name="aring" unicode="&#xe5;" horiz-adv-x="560" 
d="M494 326v-300q-101 -40 -230 -40q-122 0 -169 35q-46 36 -46 135q0 100 49 133q49 34 151 34q56 0 126 -14q0 68 -24 89q-23 22 -103 22q-85 0 -154 -25l-23 102q102 27 203 27q116 0 168 -44q52 -43 52 -154zM375 98v127q-42 9 -101 9q-58 0 -76.5 -13.5t-18.5 -59.5
q0 -51 18 -66q19 -14 76 -14q51 0 102 17zM281 741q62 0 90.5 -23t28.5 -75q0 -53 -28 -75.5t-91 -22.5t-91.5 22.5t-28.5 75.5t28 75.5t92 22.5zM231 641q0 -24 10.5 -33.5t39.5 -9.5t39.5 9.5t10.5 33.5q0 25 -10.5 34t-39.5 9t-39.5 -9t-10.5 -34z" />
    <glyph glyph-name="ae" unicode="&#xe6;" horiz-adv-x="868" 
d="M604 524q66 0 105.5 -13t68.5 -46q54 -61 48 -243h-329q2 -78 31 -105q31 -26 101 -26q73 0 143 21l20 -98q-83 -28 -178 -28q-96 0 -148 36q-75 -36 -202 -36q-122 0 -169 35q-46 36 -46 135q0 100 50 133q49 34 150 34q56 0 126 -14q0 69 -24 88q-23 21 -103 21
q-88 0 -154 -23l-23 102q102 27 203 27q129 0 169 -61q43 61 161 61zM393 105q-20 49 -20 120q-40 9 -98 9t-76.5 -13.5t-18.5 -59.5q0 -48 17 -65q17 -15 77 -15q74 0 119 24zM611 426q-58 0 -82.5 -23t-30.5 -86h214q-3 66 -25 87q-21 22 -76 22z" />
    <glyph glyph-name="ccedilla" unicode="&#xe7;" horiz-adv-x="470" 
d="M430 118l28 -106q-66 -26 -154 -26v-28q61 0 85.5 -17t24.5 -61q0 -47 -30.5 -65t-106.5 -18q-63 0 -98 16l22 54q24 -12 71 -12q23 0 32 5.5t9 20.5q0 19 -19.5 24t-74.5 2l31 82q-100 10 -149.5 74t-49.5 194q0 149 64 207q65 60 188 60q91 0 155 -24l-28 -106
q-57 22 -118 22q-75 0 -102 -29.5t-31 -131.5q0 -96 30 -129q32 -32 103 -32q60 0 118 24z" />
    <glyph glyph-name="egrave" unicode="&#xe8;" horiz-adv-x="552" 
d="M288 524q66 0 106 -13t69 -45q56 -62 50 -244h-332q2 -78 31 -105q31 -26 101 -26q73 0 143 21l20 -98q-83 -28 -178 -28q-119 0 -183 61t-64 210q0 143 58 205t179 62zM293 426q-58 0 -81.5 -23t-29.5 -86h209q-3 65 -23 87q-19 22 -75 22zM268 697l122 -129h-110
l-144 129h132z" />
    <glyph glyph-name="eacute" unicode="&#xe9;" horiz-adv-x="552" 
d="M288 524q66 0 106 -13t69 -45q56 -62 50 -244h-332q2 -78 31 -105q31 -26 101 -26q73 0 143 21l20 -98q-83 -28 -178 -28q-119 0 -183 61t-64 210q0 143 58 205t179 62zM293 426q-58 0 -81.5 -23t-29.5 -86h209q-3 65 -23 87q-19 22 -75 22zM455 697l-145 -129h-109
l121 129h133z" />
    <glyph glyph-name="ecircumflex" unicode="&#xea;" horiz-adv-x="552" 
d="M288 524q66 0 106 -13t69 -45q56 -62 50 -244h-332q2 -78 31 -105q31 -26 101 -26q73 0 143 21l20 -98q-83 -28 -178 -28q-119 0 -183 61t-64 210q0 143 58 205t179 62zM293 426q-58 0 -81.5 -23t-29.5 -86h209q-3 65 -23 87q-19 22 -75 22zM481 568h-117l-71 76l-69 -76
h-113l122 129h122z" />
    <glyph glyph-name="edieresis" unicode="&#xeb;" horiz-adv-x="552" 
d="M288 524q66 0 106 -13t69 -45q56 -62 50 -244h-332q2 -78 31 -105q31 -26 101 -26q73 0 143 21l20 -98q-83 -28 -178 -28q-119 0 -183 61t-64 210q0 143 58 205t179 62zM293 426q-58 0 -81.5 -23t-29.5 -86h209q-3 65 -23 87q-19 22 -75 22zM246 626q0 -38 -12 -50
t-48 -12t-47.5 12t-11.5 50q0 35 11.5 45t47.5 10t48 -10.5t12 -44.5zM400 681q36 0 47.5 -10t11.5 -45q0 -38 -12.5 -50t-46.5 -12q-36 0 -48 12t-12 50q0 35 11.5 45t48.5 10z" />
    <glyph glyph-name="igrave" unicode="&#xec;" horiz-adv-x="262" 
d="M92 697l122 -129h-110l-144 129h132zM69 509h124v-509h-124v509z" />
    <glyph glyph-name="iacute" unicode="&#xed;" horiz-adv-x="262" 
d="M298 697l-145 -129h-109l121 129h133zM69 509h124v-509h-124v509z" />
    <glyph glyph-name="icircumflex" unicode="&#xee;" horiz-adv-x="262" 
d="M69 509h124v-509h-124v509zM317 568h-117l-71 76l-69 -76h-113l122 129h122z" />
    <glyph glyph-name="idieresis" unicode="&#xef;" horiz-adv-x="262" 
d="M85 626q0 -38 -12 -50t-48 -12t-47.5 12t-11.5 50q0 35 11.5 45t47.5 10t48 -10.5t12 -44.5zM239 681q36 0 47.5 -10t11.5 -45q0 -38 -12 -50t-47 -12q-37 0 -48.5 12t-11.5 50q0 35 11.5 45t48.5 10zM69 509h124v-509h-124v509z" />
    <glyph glyph-name="eth" unicode="&#xf0;" horiz-adv-x="626" 
d="M327 525l-72 -45l-49 65l70 44q-26 29 -105 108h164l47 -45l61 38l48 -65l-55 -35q143 -176 143 -366q0 -142 -55 -191q-55 -50 -211 -50q-146 0 -204 52t-58 183q0 117 56 164q55 46 202 46q42 0 87 -5q-27 53 -69 102zM440 238q0 38 -9 72q-43 7 -108 7q-83 0 -109 -20
q-25 -19 -25 -85q0 -63 25.5 -87t98.5 -24q75 0 101 24q26 26 26 113z" />
    <glyph glyph-name="ntilde" unicode="&#xf1;" horiz-adv-x="583" 
d="M193 400v-400h-124v480q115 44 241 44q110 0 158 -53q49 -52 49 -187v-284h-124v271q0 85 -22 113q-21 28 -87 28q-46 0 -91 -12zM411 702l62 -50q-33 -93 -117 -93q-31 0 -75 26q-43 27 -66 27q-31 0 -52 -51l-56 55q47 81 109 81q37 0 79 -27q43 -26 63 -26
q18 0 29.5 12.5t23.5 45.5z" />
    <glyph glyph-name="ograve" unicode="&#xf2;" 
d="M293 -14q-126 0 -185 59q-57 60 -57 212q0 150 58 208q59 59 184 59q127 0 186 -59q58 -58 58 -208q0 -153 -58 -212q-59 -59 -186 -59zM293 424q-68 0 -91 -32t-23 -137q0 -102 23 -136q24 -33 91 -33q68 0 92 33t24 136q-2 76 -12 110t-32 46t-72 13zM275 697l122 -129
h-110l-144 129h132z" />
    <glyph glyph-name="oacute" unicode="&#xf3;" 
d="M293 -14q-126 0 -185 59q-57 60 -57 212q0 150 58 208q59 59 184 59q127 0 186 -59q58 -58 58 -208q0 -153 -58 -212q-59 -59 -186 -59zM293 424q-68 0 -91 -32t-23 -137q0 -102 23 -136q24 -33 91 -33q68 0 92 33t24 136q-2 76 -12 110t-32 46t-72 13zM452 697
l-145 -129h-109l121 129h133z" />
    <glyph glyph-name="ocircumflex" unicode="&#xf4;" 
d="M293 -14q-126 0 -185 59q-57 60 -57 212q0 150 58 208q59 59 184 59q127 0 186 -59q58 -58 58 -208q0 -153 -58 -212q-59 -59 -186 -59zM293 424q-68 0 -91 -32t-23 -137q0 -102 23 -136q24 -33 91 -33q68 0 92 33t24 136q-2 76 -12 110t-32 46t-72 13zM477 568h-117
l-71 76l-69 -76h-113l122 129h122z" />
    <glyph glyph-name="otilde" unicode="&#xf5;" 
d="M293 -14q-126 0 -185 59q-57 60 -57 212q0 150 58 208q59 59 184 59q127 0 186 -59q58 -58 58 -208q0 -153 -58 -212q-59 -59 -186 -59zM293 424q-68 0 -91 -32t-23 -137q0 -102 23 -136q24 -33 91 -33q68 0 92 33t24 136q-2 76 -12 110t-32 46t-72 13zM413 702l62 -50
q-33 -93 -117 -93q-31 0 -75 26q-43 27 -66 27q-31 0 -52 -51l-56 55q47 81 109 81q37 0 79 -27q43 -26 63 -26q18 0 29.5 12.5t23.5 45.5z" />
    <glyph glyph-name="odieresis" unicode="&#xf6;" 
d="M293 -14q-126 0 -185 59q-57 60 -57 212q0 150 58 208q59 59 184 59q127 0 186 -59q58 -58 58 -208q0 -153 -58 -212q-59 -59 -186 -59zM293 424q-68 0 -91 -32t-23 -137q0 -102 23 -136q24 -33 91 -33q68 0 92 33t24 136q-2 76 -12 110t-32 46t-72 13zM246 626
q0 -38 -12 -50t-48 -12t-47.5 12t-11.5 50q0 35 11.5 45t47.5 10t48 -10.5t12 -44.5zM400 681q36 0 47.5 -10t11.5 -45q0 -38 -12.5 -50t-46.5 -12q-36 0 -48 12t-12 50q0 35 11.5 45t48.5 10z" />
    <glyph glyph-name="divide" unicode="&#xf7;" horiz-adv-x="582" 
d="M534 303h-486v118h486v-118zM289 225q48 0 64 -13.5t16 -57.5q0 -47 -16 -62t-64 -15q-46 0 -61.5 15t-15.5 62q0 43 15.5 57t61.5 14zM289 642q49 0 64.5 -13t15.5 -57q0 -47 -16 -62t-64 -15q-46 0 -61.5 15t-15.5 62q0 44 15 57t62 13z" />
    <glyph glyph-name="oslash" unicode="&#xf8;" 
d="M442 493l15 16h116l-69 -79q33 -62 33 -173q0 -153 -58 -212q-59 -59 -186 -59q-92 0 -147 31l-15 -17h-115l69 79q-34 61 -34 178q0 150 58 208q59 59 184 59q97 0 149 -31zM293 423q-65 0 -90 -27q-24 -27 -24 -114q0 -57 7 -89l182 214q-23 16 -75 16zM293 87
q65 0 90 28t25 112q0 59 -6 87l-181 -212q19 -15 72 -15z" />
    <glyph glyph-name="ugrave" unicode="&#xf9;" horiz-adv-x="583" 
d="M390 110v399h124v-479q-117 -44 -241 -44q-109 0 -159 53q-48 52 -48 187v283h124v-271q0 -84 21 -113q23 -27 87 -27q47 0 92 12zM268 697l122 -129h-110l-144 129h132z" />
    <glyph glyph-name="uacute" unicode="&#xfa;" horiz-adv-x="583" 
d="M390 110v399h124v-479q-117 -44 -241 -44q-109 0 -159 53q-48 52 -48 187v283h124v-271q0 -84 21 -113q23 -27 87 -27q47 0 92 12zM454 697l-145 -129h-109l121 129h133z" />
    <glyph glyph-name="ucircumflex" unicode="&#xfb;" horiz-adv-x="583" 
d="M390 110v399h124v-479q-117 -44 -241 -44q-109 0 -159 53q-48 52 -48 187v283h124v-271q0 -84 21 -113q23 -27 87 -27q47 0 92 12zM482 568h-117l-71 76l-69 -76h-113l122 129h122z" />
    <glyph glyph-name="udieresis" unicode="&#xfc;" horiz-adv-x="583" 
d="M390 110v399h124v-479q-117 -44 -241 -44q-109 0 -159 53q-48 52 -48 187v283h124v-271q0 -84 21 -113q23 -27 87 -27q47 0 92 12zM247 626q0 -38 -12 -50t-48 -12t-47.5 12t-11.5 50q0 35 11.5 45t47.5 10t48 -10.5t12 -44.5zM401 681q36 0 47.5 -10t11.5 -45
q0 -38 -12 -50t-47 -12q-37 0 -48.5 12t-11.5 50q0 35 11.5 45t48.5 10z" />
    <glyph glyph-name="yacute" unicode="&#xfd;" horiz-adv-x="511" 
d="M381 509h126q-117 -395 -272 -701h-138q31 54 83 167q-82 299 -180 534h129q67 -168 126 -386q86 229 126 386zM433 697l-145 -129h-109l121 129h133z" />
    <glyph glyph-name="thorn" unicode="&#xfe;" 
d="M315 -14q-62 0 -122 29v-207h-124v901h124v-195q53 10 99 10q130 0 187 -59t57 -210q0 -147 -56 -209q-56 -60 -165 -60zM292 417q-60 0 -99 -15v-262q0 -21 28.5 -35t71.5 -14q66 0 91 34t25 127q0 102 -25 133q-24 32 -92 32z" />
    <glyph glyph-name="ydieresis" unicode="&#xff;" horiz-adv-x="511" 
d="M212 626q0 -38 -12 -50t-48 -12t-47.5 12t-11.5 50q0 35 11.5 45t47.5 10t48 -10.5t12 -44.5zM366 681q36 0 47.5 -10t11.5 -45q0 -38 -12.5 -50t-46.5 -12q-36 0 -48 12t-12 50q0 35 11.5 45t48.5 10zM381 509h126q-117 -395 -272 -701h-138q31 54 83 167
q-82 299 -180 534h129q67 -168 126 -386q86 229 126 386z" />
    <glyph glyph-name="Amacron" unicode="&#x100;" horiz-adv-x="682" 
d="M701 0h-146q-52 130 -67 174h-305l-54 -174h-139q112 351 253 697h207q125 -397 251 -697zM353 585h-27q-51 -131 -108 -298h232q-52 147 -97 298zM480 753h-278v92h278v-92z" />
    <glyph glyph-name="amacron" unicode="&#x101;" horiz-adv-x="560" 
d="M494 326v-300q-101 -40 -230 -40q-122 0 -169 35q-46 36 -46 135q0 100 49 133q49 34 151 34q56 0 126 -14q0 68 -24 89q-23 22 -103 22q-85 0 -154 -25l-23 102q102 27 203 27q116 0 168 -44q52 -43 52 -154zM375 98v127q-42 9 -101 9q-58 0 -76.5 -13.5t-18.5 -59.5
q0 -51 18 -66q19 -14 76 -14q51 0 102 17zM416 576h-278v90h278v-90z" />
    <glyph glyph-name="Abreve" unicode="&#x102;" horiz-adv-x="682" 
d="M701 0h-146q-52 130 -67 174h-305l-54 -174h-139q112 351 253 697h207q125 -397 251 -697zM353 585h-27q-51 -131 -108 -298h232q-52 147 -97 298zM190 871h85q0 -33 15 -45.5t51 -12.5t51.5 13t15.5 45h80q0 -137 -150 -137q-148 0 -148 137z" />
    <glyph glyph-name="abreve" unicode="&#x103;" horiz-adv-x="560" 
d="M494 326v-300q-101 -40 -230 -40q-122 0 -169 35q-46 36 -46 135q0 100 49 133q49 34 151 34q56 0 126 -14q0 68 -24 89q-23 22 -103 22q-85 0 -154 -25l-23 102q102 27 203 27q116 0 168 -44q52 -43 52 -154zM375 98v127q-42 9 -101 9q-58 0 -76.5 -13.5t-18.5 -59.5
q0 -51 18 -66q19 -14 76 -14q51 0 102 17zM128 697h85q0 -33 15 -45.5t51 -12.5t51.5 13t15.5 45h80q0 -137 -150 -137q-148 0 -148 137z" />
    <glyph glyph-name="Aogonek" unicode="&#x104;" horiz-adv-x="682" 
d="M594 0h-39q-52 130 -67 174h-305l-54 -174h-139q112 351 253 697h207q125 -397 251 -697h-52q-37 -24 -50.5 -44t-13.5 -48q0 -22 12.5 -31t47.5 -9q51 0 83 27l35 -63q-47 -35 -131 -35q-73 0 -102.5 21t-29.5 68q0 77 94 114zM353 585h-27q-51 -131 -108 -298h232
q-52 147 -97 298z" />
    <glyph glyph-name="aogonek" unicode="&#x105;" horiz-adv-x="560" 
d="M494 326v-300q-28 -10 -42 -14h1q-49 -29 -66.5 -51t-17.5 -53q0 -22 12.5 -31t47.5 -9q51 0 83 27l35 -63q-47 -35 -131 -35q-73 0 -102.5 21t-29.5 68q0 68 79 108q-58 -8 -99 -8q-122 0 -169 35q-46 36 -46 135q0 100 49 133q49 34 151 34q56 0 126 -14q0 68 -24 89
q-23 22 -103 22q-85 0 -154 -25l-23 102q102 27 203 27q116 0 168 -44q52 -43 52 -154zM375 98v127q-42 9 -101 9q-58 0 -76.5 -13.5t-18.5 -59.5q0 -51 18 -66q19 -14 76 -14q51 0 102 17z" />
    <glyph glyph-name="Cacute" unicode="&#x106;" horiz-adv-x="592" 
d="M53 355q0 209 81 286q42 40 99.5 56.5t146.5 16.5q104 0 200 -26l-29 -116q-60 22 -148 22q-66 0 -100 -8t-61 -32q-26 -24 -37 -71t-11 -129q0 -156 48 -204q26 -25 61 -34t100 -9q88 0 148 22l29 -118q-88 -25 -200 -25q-114 0 -184 32q-143 68 -143 337zM511 876
l-158 -129h-108l129 129h137z" />
    <glyph glyph-name="cacute" unicode="&#x107;" horiz-adv-x="470" 
d="M430 118l28 -106q-66 -26 -155 -26q-124 0 -188 61t-64 210t64 207q65 60 188 60q91 0 155 -24l-28 -106q-57 22 -118 22q-75 0 -102 -29.5t-31 -131.5q0 -96 30 -129q32 -32 103 -32q60 0 118 24zM442 697l-145 -129h-109l121 129h133z" />
    <glyph glyph-name="Ccircumflex" unicode="&#x108;" horiz-adv-x="592" 
d="M53 355q0 209 81 286q42 40 99.5 56.5t146.5 16.5q104 0 200 -26l-29 -116q-60 22 -148 22q-66 0 -100 -8t-61 -32q-26 -24 -37 -71t-11 -129q0 -156 48 -204q26 -25 61 -34t100 -9q88 0 148 22l29 -118q-88 -25 -200 -25q-114 0 -184 32q-143 68 -143 337zM560 747h-116
l-72 78l-70 -78h-112l122 129h122z" />
    <glyph glyph-name="ccircumflex" unicode="&#x109;" horiz-adv-x="470" 
d="M430 118l28 -106q-66 -26 -155 -26q-124 0 -188 61t-64 210t64 207q65 60 188 60q91 0 155 -24l-28 -106q-57 22 -118 22q-75 0 -102 -29.5t-31 -131.5q0 -96 30 -129q32 -32 103 -32q60 0 118 24zM477 568h-117l-71 76l-69 -76h-113l122 129h122z" />
    <glyph glyph-name="Cdotaccent" unicode="&#x10a;" horiz-adv-x="592" 
d="M53 355q0 209 81 286q42 40 99.5 56.5t146.5 16.5q104 0 200 -26l-29 -116q-60 22 -148 22q-66 0 -100 -8t-61 -32q-26 -24 -37 -71t-11 -129q0 -156 48 -204q26 -25 61 -34t100 -9q88 0 148 22l29 -118q-88 -25 -200 -25q-114 0 -184 32q-143 68 -143 337zM435 811
q0 -38 -12 -49.5t-48 -11.5t-47.5 11.5t-11.5 49.5q0 35 11.5 45.5t47.5 10.5t48 -10.5t12 -45.5z" />
    <glyph glyph-name="cdotaccent" unicode="&#x10b;" horiz-adv-x="470" 
d="M430 118l28 -106q-66 -26 -155 -26q-124 0 -188 61t-64 210t64 207q65 60 188 60q91 0 155 -24l-28 -106q-57 22 -118 22q-75 0 -102 -29.5t-31 -131.5q0 -96 30 -129q32 -32 103 -32q60 0 118 24zM354 626q0 -38 -12 -50t-48 -12t-47.5 12t-11.5 50q0 35 11.5 45
t47.5 10t48 -10.5t12 -44.5z" />
    <glyph glyph-name="Ccaron" unicode="&#x10c;" horiz-adv-x="592" 
d="M53 355q0 209 81 286q42 40 99.5 56.5t146.5 16.5q104 0 200 -26l-29 -116q-60 22 -148 22q-66 0 -100 -8t-61 -32q-26 -24 -37 -71t-11 -129q0 -156 48 -204q26 -25 61 -34t100 -9q88 0 148 22l29 -118q-88 -25 -200 -25q-114 0 -184 32q-143 68 -143 337zM177 876h115
l73 -78l70 78h112l-122 -129h-122z" />
    <glyph glyph-name="ccaron" unicode="&#x10d;" horiz-adv-x="470" 
d="M430 118l28 -106q-66 -26 -155 -26q-124 0 -188 61t-64 210t64 207q65 60 188 60q91 0 155 -24l-28 -106q-57 22 -118 22q-75 0 -102 -29.5t-31 -131.5q0 -96 30 -129q32 -32 103 -32q60 0 118 24zM106 697h117l71 -76l69 76h113l-122 -129h-122z" />
    <glyph glyph-name="Dcaron" unicode="&#x10e;" horiz-adv-x="736" 
d="M88 0v697h266q170 0 246 -71q83 -76 83 -275q0 -196 -79 -274q-79 -77 -250 -77h-266zM542 350q0 81 -9.5 125t-34.5 68q-24 24 -58 32t-99 8h-121v-469h121q64 1 99 9.5t59 35t32.5 70t10.5 121.5zM156 876h115l73 -78l70 78h112l-122 -129h-122z" />
    <glyph glyph-name="dcaron" unicode="&#x10f;" 
d="M272 524q69 0 122 -29v227h124v-699q-90 -37 -222 -37q-131 0 -188 58t-57 211q0 143 54.5 206t166.5 63zM296 92q54 0 98 15v263q0 22 -28.5 35.5t-71.5 13.5q-66 0 -91 -34q-24 -35 -24 -128q0 -101 24 -133q26 -32 93 -32zM554 530l20 192h110l-57 -192h-73z" />
    <glyph glyph-name="Dcroat" unicode="&#x110;" horiz-adv-x="736" 
d="M88 311h-52v92h52v294h266q170 0 246 -71q83 -76 83 -275q0 -196 -79 -274q-79 -77 -250 -77h-266v311zM542 350q0 81 -9.5 125t-34.5 67q-24 24 -57.5 32t-99.5 8h-121v-179h159v-92h-159v-197h121q64 1 99 9.5t59 35t32.5 70t10.5 121.5z" />
    <glyph glyph-name="dslash" unicode="&#x111;" 
d="M394 577h-90v82h90v63h124v-63h49v-82h-49v-554q-90 -37 -222 -37q-131 0 -188 58t-57 211q0 143 54.5 206t166.5 63q69 0 122 -29v82zM296 92q54 0 98 15v245q0 67 -100 67q-66 0 -91 -34q-24 -35 -24 -128q0 -101 24 -133q26 -32 93 -32z" />
    <glyph glyph-name="Emacron" unicode="&#x112;" horiz-adv-x="620" 
d="M88 0v697h506v-114h-374v-161h267v-113h-267v-195h374v-114h-506zM481 753h-278v92h278v-92z" />
    <glyph glyph-name="emacron" unicode="&#x113;" horiz-adv-x="552" 
d="M288 524q66 0 106 -13t69 -45q56 -62 50 -244h-332q2 -78 31 -105q31 -26 101 -26q73 0 143 21l20 -98q-83 -28 -178 -28q-119 0 -183 61t-64 210q0 143 58 205t179 62zM293 426q-58 0 -81.5 -23t-29.5 -86h209q-3 65 -23 87q-19 22 -75 22zM434 576h-278v90h278v-90z
" />
    <glyph glyph-name="Ebreve" unicode="&#x114;" horiz-adv-x="620" 
d="M88 0v697h506v-114h-374v-161h267v-113h-267v-195h374v-114h-506zM202 871h85q0 -33 15 -45.5t51 -12.5t51.5 13t15.5 45h80q0 -137 -150 -137q-148 0 -148 137z" />
    <glyph glyph-name="ebreve" unicode="&#x115;" horiz-adv-x="552" 
d="M288 524q66 0 106 -13t69 -45q56 -62 50 -244h-332q2 -78 31 -105q31 -26 101 -26q73 0 143 21l20 -98q-83 -28 -178 -28q-119 0 -183 61t-64 210q0 143 58 205t179 62zM293 426q-58 0 -81.5 -23t-29.5 -86h209q-3 65 -23 87q-19 22 -75 22zM141 697h85q0 -33 15 -45.5
t51 -12.5t51.5 13t15.5 45h80q0 -137 -150 -137q-148 0 -148 137z" />
    <glyph glyph-name="Edotaccent" unicode="&#x116;" horiz-adv-x="620" 
d="M88 0v697h506v-114h-374v-161h267v-113h-267v-195h374v-114h-506zM422 811q0 -38 -12 -49.5t-48 -11.5t-47.5 11.5t-11.5 49.5q0 35 11.5 45.5t47.5 10.5t48 -10.5t12 -45.5z" />
    <glyph glyph-name="edotaccent" unicode="&#x117;" horiz-adv-x="552" 
d="M288 524q66 0 106 -13t69 -45q56 -62 50 -244h-332q2 -78 31 -105q31 -26 101 -26q73 0 143 21l20 -98q-83 -28 -178 -28q-119 0 -183 61t-64 210q0 143 58 205t179 62zM293 426q-58 0 -81.5 -23t-29.5 -86h209q-3 65 -23 87q-19 22 -75 22zM351 626q0 -38 -12 -50
t-48 -12t-47.5 12t-11.5 50q0 35 11.5 45t47.5 10t48 -10.5t12 -44.5z" />
    <glyph glyph-name="Eogonek" unicode="&#x118;" horiz-adv-x="620" 
d="M88 0v697h506v-114h-374v-161h267v-113h-267v-195h374v-114h-48q-37 -24 -50.5 -44t-13.5 -48q0 -22 12.5 -31t47.5 -9q52 0 83 27l35 -63q-47 -35 -131 -35q-73 0 -102.5 21t-29.5 68q0 77 94 114h-403z" />
    <glyph glyph-name="eogonek" unicode="&#x119;" horiz-adv-x="552" 
d="M288 524q66 0 106 -13t69 -45q56 -62 50 -244h-332q2 -78 31 -105q31 -26 101 -26q73 0 143 21l20 -98q-18 -8 -43 -12q-39 -26 -53.5 -46t-14.5 -48q0 -22 12.5 -31t47.5 -9q51 0 83 27l35 -63q-47 -35 -131 -35q-73 0 -102.5 21t-29.5 68q0 65 71 103q-29 -3 -53 -3
q-119 0 -183 61t-64 210q0 143 58 205t179 62zM293 426q-58 0 -81.5 -23t-29.5 -86h209q-3 65 -23 87q-19 22 -75 22z" />
    <glyph glyph-name="Ecaron" unicode="&#x11a;" horiz-adv-x="620" 
d="M88 0v697h506v-114h-374v-161h267v-113h-267v-195h374v-114h-506zM165 876h115l73 -78l70 78h112l-122 -129h-122z" />
    <glyph glyph-name="ecaron" unicode="&#x11b;" horiz-adv-x="552" 
d="M288 524q66 0 106 -13t69 -45q56 -62 50 -244h-332q2 -78 31 -105q31 -26 101 -26q73 0 143 21l20 -98q-83 -28 -178 -28q-119 0 -183 61t-64 210q0 143 58 205t179 62zM293 426q-58 0 -81.5 -23t-29.5 -86h209q-3 65 -23 87q-19 22 -75 22zM105 697h117l71 -76l69 76
h113l-122 -129h-122z" />
    <glyph glyph-name="Gcircumflex" unicode="&#x11c;" horiz-adv-x="700" 
d="M493 116v180h-152v111h287v-391q-94 -30 -248 -30q-114 0 -184 32q-143 68 -143 337q0 209 88 287q45 39 106 55.5t152 16.5q114 0 210 -26l-27 -115q-60 21 -173 21q-98 0 -143 -23q-38 -18 -55 -69.5t-17 -147.5q0 -157 48 -205q26 -25 61.5 -34t99.5 -9q50 0 90 10z
M569 747h-116l-72 78l-70 -78h-112l122 129h122z" />
    <glyph glyph-name="gcircumflex" unicode="&#x11d;" 
d="M518 486v-447q0 -147 -76 -196q-68 -47 -196 -47q-101 0 -179 30l25 100q76 -25 153 -25t113 27.5t36 92.5q-54 -33 -129 -33q-111 0 -163 58q-51 58 -51 207q0 153 57 211q59 60 188 60t222 -38zM394 143v262q-46 17 -98 17q-69 0 -93 -32t-24 -136q0 -94 24 -127
q24 -32 90 -32q43 0 72 13.5t29 34.5zM487 568h-117l-71 76l-69 -76h-113l122 129h122z" />
    <glyph glyph-name="Gbreve" unicode="&#x11e;" horiz-adv-x="700" 
d="M493 116v180h-152v111h287v-391q-94 -30 -248 -30q-114 0 -184 32q-143 68 -143 337q0 209 88 287q45 39 106 55.5t152 16.5q114 0 210 -26l-27 -115q-60 21 -173 21q-98 0 -143 -23q-38 -18 -55 -69.5t-17 -147.5q0 -157 48 -205q26 -25 61.5 -34t99.5 -9q50 0 90 10z
M231 871h85q0 -33 15 -45.5t51 -12.5t51.5 13t15.5 45h80q0 -137 -150 -137q-148 0 -148 137z" />
    <glyph glyph-name="gbreve" unicode="&#x11f;" 
d="M518 486v-447q0 -147 -76 -196q-68 -47 -196 -47q-101 0 -179 30l25 100q76 -25 153 -25t113 27.5t36 92.5q-54 -33 -129 -33q-111 0 -163 58q-51 58 -51 207q0 153 57 211q59 60 188 60t222 -38zM394 143v262q-46 17 -98 17q-69 0 -93 -32t-24 -136q0 -94 24 -127
q24 -32 90 -32q43 0 72 13.5t29 34.5zM151 697h85q0 -33 15 -45.5t51 -12.5t51.5 13t15.5 45h80q0 -137 -150 -137q-148 0 -148 137z" />
    <glyph glyph-name="Gdotaccent" unicode="&#x120;" horiz-adv-x="700" 
d="M493 116v180h-152v111h287v-391q-94 -30 -248 -30q-114 0 -184 32q-143 68 -143 337q0 209 88 287q45 39 106 55.5t152 16.5q114 0 210 -26l-27 -115q-60 21 -173 21q-98 0 -143 -23q-38 -18 -55 -69.5t-17 -147.5q0 -157 48 -205q26 -25 61.5 -34t99.5 -9q50 0 90 10z
M451 811q0 -38 -12 -49.5t-48 -11.5t-47.5 11.5t-11.5 49.5q0 35 11.5 45.5t47.5 10.5t48 -10.5t12 -45.5z" />
    <glyph glyph-name="gdotaccent" unicode="&#x121;" 
d="M518 486v-447q0 -147 -76 -196q-68 -47 -196 -47q-101 0 -179 30l25 100q76 -25 153 -25t113 27.5t36 92.5q-54 -33 -129 -33q-111 0 -163 58q-51 58 -51 207q0 153 57 211q59 60 188 60t222 -38zM394 143v262q-46 17 -98 17q-69 0 -93 -32t-24 -136q0 -94 24 -127
q24 -32 90 -32q43 0 72 13.5t29 34.5zM354 626q0 -38 -12 -50t-48 -12t-47.5 12t-11.5 50q0 35 11.5 45t47.5 10t48 -10.5t12 -44.5z" />
    <glyph glyph-name="Gcommaaccent" unicode="&#x122;" horiz-adv-x="700" 
d="M493 116v180h-152v111h287v-391q-94 -30 -248 -30q-114 0 -184 32q-143 68 -143 337q0 209 88 287q45 39 106 55.5t152 16.5q114 0 210 -26l-27 -115q-60 21 -173 21q-98 0 -143 -23q-38 -18 -55 -69.5t-17 -147.5q0 -157 48 -205q26 -25 61.5 -34t99.5 -9q50 0 90 10z
M340 -51h131l-92 -167h-95z" />
    <glyph glyph-name="gcommaaccent" unicode="&#x123;" 
d="M350 584h-132l93 167h95zM518 486v-447q0 -147 -76 -196q-68 -47 -196 -47q-101 0 -179 30l25 100q76 -25 153 -25t113 27.5t36 92.5q-54 -33 -129 -33q-111 0 -163 58q-51 58 -51 207q0 153 57 211q59 60 188 60t222 -38zM394 143v262q-46 17 -98 17q-69 0 -93 -32
t-24 -136q0 -94 24 -127q24 -32 90 -32q43 0 72 13.5t29 34.5z" />
    <glyph glyph-name="Hcircumflex" unicode="&#x124;" horiz-adv-x="736" 
d="M518 309h-298v-309h-132v697h132v-266h298v266h130v-697h-130v309zM550 747h-116l-72 78l-70 -78h-112l122 129h122z" />
    <glyph glyph-name="hcircumflex" unicode="&#x125;" horiz-adv-x="583" 
d="M333 524q63 0 101 -18q83 -37 83 -213v-293h-124v283q0 75 -23 102t-79 27q-42 0 -70 -12t-28 -33v-367h-124v722h124v-233q68 35 140 35zM390 747h-116l-72 78l-70 -78h-112l122 129h122z" />
    <glyph glyph-name="Hbar" unicode="&#x126;" horiz-adv-x="736" 
d="M88 520h-59v105h59v72h132v-72h298v72h130v-72h60v-105h-60v-520h-130v309h-298v-309h-132v520zM220 520v-89h298v89h-298z" />
    <glyph glyph-name="hbar" unicode="&#x127;" horiz-adv-x="583" 
d="M69 581h-51v87h51v54h124v-54h103v-87h-103v-92q68 35 140 35q63 0 101 -18q83 -37 83 -213v-293h-124v283q0 75 -23.5 102t-78.5 27q-41 0 -69.5 -12.5t-28.5 -32.5v-367h-124v581z" />
    <glyph glyph-name="Itilde" unicode="&#x128;" horiz-adv-x="308" 
d="M278 879l61 -50q-15 -42 -47 -67.5t-73 -25.5q-31 0 -76 27t-67 27q-31 0 -51 -50l-56 55q45 79 107 79q36 0 82 -26q47 -26 66 -26q18 0 30 12.5t24 44.5zM88 0v697h132v-697h-132z" />
    <glyph glyph-name="itilde" unicode="&#x129;" horiz-adv-x="262" 
d="M252 702l62 -50q-33 -93 -117 -93q-31 0 -75 26q-44 27 -66 27q-31 0 -52 -51l-56 55q46 81 109 81q37 0 79 -27q43 -26 63 -26q18 0 29.5 12.5t23.5 45.5zM69 509h124v-509h-124v509z" />
    <glyph glyph-name="Imacron" unicode="&#x12a;" horiz-adv-x="308" 
d="M88 0v697h132v-697h-132zM294 753h-278v92h278v-92z" />
    <glyph glyph-name="imacron" unicode="&#x12b;" horiz-adv-x="262" 
d="M69 509h124v-509h-124v509zM271 576h-278v90h278v-90z" />
    <glyph glyph-name="Ibreve" unicode="&#x12c;" horiz-adv-x="308" 
d="M7 871h85q0 -33 15 -45.5t51 -12.5t51.5 13t15.5 45h80q0 -137 -150 -137q-148 0 -148 137zM88 0v697h132v-697h-132z" />
    <glyph glyph-name="ibreve" unicode="&#x12d;" horiz-adv-x="262" 
d="M-17 697h85q0 -33 15 -45.5t51 -12.5t51.5 13t15.5 45h80q0 -137 -150 -137q-148 0 -148 137zM69 509h124v-509h-124v509z" />
    <glyph glyph-name="Iogonek" unicode="&#x12e;" horiz-adv-x="308" 
d="M88 0v697h132v-697h-48q-37 -24 -50.5 -44t-13.5 -48q0 -22 12.5 -31t47.5 -9q52 0 83 27l35 -63q-47 -35 -131 -35q-73 0 -102.5 21t-29.5 68q0 77 94 114h-29z" />
    <glyph glyph-name="iogonek" unicode="&#x12f;" horiz-adv-x="262" 
d="M69 509h124v-509h-35q-37 -24 -50.5 -44t-13.5 -48q0 -22 12.5 -31t47.5 -9q52 0 83 27l35 -63q-47 -35 -131 -35q-73 0 -102.5 21t-29.5 68q0 77 94 114h-34v509zM132 721q43 0 57 -11.5t14 -49.5q0 -42 -14 -55.5t-57 -13.5t-57.5 13.5t-14.5 55.5q0 38 14.5 49.5
t57.5 11.5z" />
    <glyph glyph-name="Idot" unicode="&#x130;" horiz-adv-x="308" 
d="M213 811q0 -38 -12 -49.5t-48 -11.5t-47.5 11.5t-11.5 49.5q0 35 11.5 45.5t47.5 10.5t48 -10.5t12 -45.5zM88 0v697h132v-697h-132z" />
    <glyph glyph-name="dotlessi" unicode="&#x131;" horiz-adv-x="262" 
d="M69 509h124v-509h-124v509z" />
    <glyph glyph-name="IJ" unicode="&#x132;" horiz-adv-x="768" 
d="M88 0v697h132v-697h-132zM549 697h133v-505q0 -206 -211 -206q-85 0 -158 27l26 118q53 -21 119 -21q91 0 91 99v488z" />
    <glyph glyph-name="ij" unicode="&#x133;" horiz-adv-x="524" 
d="M69 509h124v-509h-124v509zM132 721q43 0 57 -11.5t14 -49.5q0 -42 -14 -55.5t-57 -13.5t-57.5 13.5t-14.5 55.5q0 38 14.5 49.5t57.5 11.5zM464 660q0 -42 -14.5 -55.5t-57.5 -13.5t-57.5 13.5t-14.5 55.5q0 38 14.5 49.5t57.5 11.5t57.5 -11.5t14.5 -49.5zM330 509h124
v-519q0 -109 -50 -151t-160 -42v103q46 0 66 19.5t20 67.5v522z" />
    <glyph glyph-name="Jcircumflex" unicode="&#x134;" horiz-adv-x="461" 
d="M242 697h133l1 -505q0 -206 -212 -206q-84 0 -158 27l26 118q53 -21 119 -21q91 0 91 99v488zM492 747h-116l-72 78l-70 -78h-112l122 129h122z" />
    <glyph glyph-name="jcircumflex" unicode="&#x135;" horiz-adv-x="262" 
d="M316 568h-117q-44 45 -71 76l-69 -76h-113l122 129h122zM69 509h124v-519q0 -109 -50 -151q-49 -42 -159 -42v103q45 0 65 19.5t20 67.5v522z" />
    <glyph glyph-name="Kcommaaccent" unicode="&#x136;" horiz-adv-x="662" 
d="M88 697h132v-697h-132v697zM675 0h-162q-97 159 -178 257q-79 97 -114 111q34 23 112 115q69 81 160 214h160q-89 -126 -159 -209q-71 -84 -104 -111q34 -23 112 -122q82 -103 173 -255zM285 -51h131l-92 -167h-95z" />
    <glyph glyph-name="kcommaaccent" unicode="&#x137;" horiz-adv-x="551" 
d="M552 0h-146q-174 253 -213 269v-269h-124v722h124v-453q47 38 197 240h147q-139 -187 -195 -231q23 -13 80 -88t130 -190zM231 -51h131l-92 -167h-95z" />
    <glyph glyph-name="Lacute" unicode="&#x139;" horiz-adv-x="551" 
d="M88 0v697h132v-582h329v-115h-461zM365 876l-158 -129h-108l129 129h137z" />
    <glyph glyph-name="lacute" unicode="&#x13a;" horiz-adv-x="268" 
d="M69 722h124v-579q0 -67 39 -120l-109 -47q-54 62 -54 162v584zM324 876l-158 -129h-108l129 129h137z" />
    <glyph glyph-name="Lcommaaccent" unicode="&#x13b;" horiz-adv-x="551" 
d="M88 0v697h132v-582h329v-115h-461zM262 -51h131l-92 -167h-95z" />
    <glyph glyph-name="lcommaaccent" unicode="&#x13c;" horiz-adv-x="268" 
d="M69 722h124v-579q0 -67 39 -120l-109 -47q-54 62 -54 162v584zM109 -51h131l-92 -167h-95z" />
    <glyph glyph-name="Lcaron" unicode="&#x13d;" horiz-adv-x="551" 
d="M88 0v697h132v-582h329v-115h-461zM297 530l20 192h110l-57 -192h-73z" />
    <glyph glyph-name="lcaron" unicode="&#x13e;" horiz-adv-x="268" 
d="M69 722h124v-579q0 -67 39 -120l-109 -47q-54 62 -54 162v584zM236 530l20 192h110l-57 -192h-73z" />
    <glyph glyph-name="Ldot" unicode="&#x13f;" horiz-adv-x="551" 
d="M88 0v697h132v-582h329v-115h-461zM414 407q0 -38 -12 -49.5t-48 -11.5t-47.5 11.5t-11.5 49.5q0 35 11.5 45.5t47.5 10.5t48 -10.5t12 -45.5z" />
    <glyph glyph-name="ldot" unicode="&#x140;" horiz-adv-x="268" 
d="M342 405q0 -38 -12 -50t-48 -12t-47.5 12t-11.5 50q0 35 11.5 45t47.5 10t48 -10.5t12 -44.5zM69 722h124v-579q0 -67 39 -120l-109 -47q-54 62 -54 162v584z" />
    <glyph glyph-name="Lslash" unicode="&#x141;" horiz-adv-x="551" 
d="M220 421l156 136v-124l-156 -135v-183h329v-115h-461v189l-67 -58v123l67 58v385h132v-276z" />
    <glyph glyph-name="lslash" unicode="&#x142;" horiz-adv-x="268" 
d="M69 722h124v-228l69 75v-124l-69 -75v-227q0 -67 39 -120l-109 -46q-54 60 -54 161v99l-64 -69v123l64 69v362z" />
    <glyph glyph-name="Nacute" unicode="&#x143;" horiz-adv-x="774" 
d="M554 697h131v-697h-161q-137 255 -307 525v-525h-129v697h173q149 -234 293 -503v503zM564 876l-158 -129h-108l129 129h137z" />
    <glyph glyph-name="nacute" unicode="&#x144;" horiz-adv-x="583" 
d="M193 400v-400h-124v480q115 44 241 44q110 0 158 -53q49 -52 49 -187v-284h-124v271q0 85 -22 113q-21 28 -87 28q-46 0 -91 -12zM436 697l-145 -129h-109l121 129h133z" />
    <glyph glyph-name="Ncommaaccent" unicode="&#x145;" horiz-adv-x="774" 
d="M554 697h131v-697h-161q-137 255 -307 525v-525h-129v697h173q149 -234 293 -503v503zM327 -51h131l-92 -167h-95z" />
    <glyph glyph-name="ncommaaccent" unicode="&#x146;" horiz-adv-x="583" 
d="M193 400v-400h-124v480q115 44 241 44q110 0 158 -53q49 -52 49 -187v-284h-124v271q0 85 -22 113q-21 28 -87 28q-46 0 -91 -12zM231 -51h131l-92 -167h-95z" />
    <glyph glyph-name="Ncaron" unicode="&#x147;" horiz-adv-x="774" 
d="M554 697h131v-697h-161q-137 255 -307 525v-525h-129v697h173q149 -234 293 -503v503zM213 876h115l73 -78l70 78h112l-122 -129h-122z" />
    <glyph glyph-name="ncaron" unicode="&#x148;" horiz-adv-x="583" 
d="M193 400v-400h-124v480q115 44 241 44q110 0 158 -53q49 -52 49 -187v-284h-124v271q0 85 -22 113q-21 28 -87 28q-46 0 -91 -12zM104 697h117l71 -76l69 76h113l-122 -129h-122z" />
    <glyph glyph-name="napostrophe" unicode="&#x149;" horiz-adv-x="583" 
d="M193 400v-400h-124v480q115 44 241 44q110 0 158 -53q49 -52 49 -187v-284h-124v271q0 85 -22 113q-21 28 -87 28q-46 0 -91 -12zM108 714h131l-92 -167h-95z" />
    <glyph glyph-name="Omacron" unicode="&#x14c;" horiz-adv-x="770" 
d="M385 -14q-170 0 -249 76q-83 82 -83 293q0 209 83 286q44 39 102.5 56t146.5 17t147 -17t101 -56q83 -77 83 -286q0 -107 -20 -179t-63 -113.5t-102 -59t-146 -17.5zM194 353q0 -107 17 -159t55.5 -70.5t118.5 -18.5t118.5 18.5t55.5 70.5t17 159q0 85 -8 129.5t-31 69.5
q-22 26 -55 34.5t-97 8.5t-97 -8.5t-56 -34.5q-22 -25 -30 -69.5t-8 -129.5zM524 753h-278v92h278v-92z" />
    <glyph glyph-name="omacron" unicode="&#x14d;" 
d="M293 -14q-126 0 -185 59q-57 60 -57 212q0 150 58 208q59 59 184 59q127 0 186 -59q58 -58 58 -208q0 -153 -58 -212q-59 -59 -186 -59zM293 424q-68 0 -91 -32t-23 -137q0 -102 23 -136q24 -33 91 -33q68 0 92 33t24 136q-2 76 -12 110t-32 46t-72 13zM432 576h-278v90
h278v-90z" />
    <glyph glyph-name="Obreve" unicode="&#x14e;" horiz-adv-x="770" 
d="M385 -14q-170 0 -249 76q-83 82 -83 293q0 209 83 286q44 39 102.5 56t146.5 17t147 -17t101 -56q83 -77 83 -286q0 -107 -20 -179t-63 -113.5t-102 -59t-146 -17.5zM194 353q0 -107 17 -159t55.5 -70.5t118.5 -18.5t118.5 18.5t55.5 70.5t17 159q0 85 -8 129.5t-31 69.5
q-22 26 -55 34.5t-97 8.5t-97 -8.5t-56 -34.5q-22 -25 -30 -69.5t-8 -129.5zM236 871h85q0 -33 15 -45.5t51 -12.5t51.5 13t15.5 45h80q0 -137 -150 -137q-148 0 -148 137z" />
    <glyph glyph-name="obreve" unicode="&#x14f;" 
d="M293 -14q-126 0 -185 59q-57 60 -57 212q0 150 58 208q59 59 184 59q127 0 186 -59q58 -58 58 -208q0 -153 -58 -212q-59 -59 -186 -59zM293 424q-68 0 -91 -32t-23 -137q0 -102 23 -136q24 -33 91 -33q68 0 92 33t24 136q-2 76 -12 110t-32 46t-72 13zM144 697h85
q0 -33 15 -45.5t51 -12.5t51.5 13t15.5 45h80q0 -137 -150 -137q-148 0 -148 137z" />
    <glyph glyph-name="Ohungarumlaut" unicode="&#x150;" horiz-adv-x="770" 
d="M385 -14q-170 0 -249 76q-83 82 -83 293q0 209 83 286q44 39 102.5 56t146.5 17t147 -17t101 -56q83 -77 83 -286q0 -107 -20 -179t-63 -113.5t-102 -59t-146 -17.5zM194 353q0 -107 17 -159t55.5 -70.5t118.5 -18.5t118.5 18.5t55.5 70.5t17 159q0 85 -8 129.5t-31 69.5
q-22 26 -55 34.5t-97 8.5t-97 -8.5t-56 -34.5q-22 -25 -30 -69.5t-8 -129.5zM425 876l-115 -129h-85l91 129h109zM589 876l-114 -129h-86l91 129h109z" />
    <glyph glyph-name="ohungarumlaut" unicode="&#x151;" 
d="M293 -14q-126 0 -185 59q-57 60 -57 212q0 150 58 208q59 59 184 59q127 0 186 -59q58 -58 58 -208q0 -153 -58 -212q-59 -59 -186 -59zM293 424q-68 0 -91 -32t-23 -137q0 -102 23 -136q24 -33 91 -33q68 0 92 33t24 136q-2 76 -12 110t-32 46t-72 13zM336 697
l-115 -129h-85l91 129h109zM500 697l-114 -129h-86l91 129h109z" />
    <glyph glyph-name="OE" unicode="&#x152;" horiz-adv-x="1098" 
d="M532 697h540v-114h-403q37 -55 45 -161h206v-112h-206q-3 -131 -50 -196h408v-114h-554q-54 -14 -133 -14q-170 0 -249 76q-83 82 -83 293q0 209 83 286q42 39 103 56q60 17 146 17q85 0 147 -17zM194 353q0 -107 17 -159t55.5 -70.5t118.5 -18.5t118.5 18.5t55.5 70.5
t17 159q0 85 -8 129.5t-31 69.5q-22 26 -55 34.5t-97 8.5t-97 -8.5t-56 -34.5q-22 -25 -30 -69.5t-8 -129.5z" />
    <glyph glyph-name="oe" unicode="&#x153;" horiz-adv-x="907" 
d="M642 524q86 0 132 -24q100 -48 90 -278h-329q1 -76 30.5 -103.5t101.5 -27.5q75 0 143 21l21 -98q-84 -28 -179 -28q-127 0 -178 69q-46 -69 -181 -69q-126 0 -185 59q-57 60 -57 212q0 150 58 208q59 59 184 59q129 0 179 -65q51 65 170 65zM293 424q-68 0 -91 -32
t-23 -137q0 -102 23 -136q24 -33 91 -33q68 0 92 33t24 136q-2 76 -12 110t-32 46t-72 13zM650 426q-58 0 -82.5 -23t-31.5 -86h214q-2 66 -24 87q-21 22 -76 22z" />
    <glyph glyph-name="Racute" unicode="&#x154;" horiz-adv-x="706" 
d="M420 585h-200v-210h197q37 0 59 26t22 76q0 108 -78 108zM462 303q36 -13 88 -82q56 -71 145 -221h-163q-151 266 -219 266h-93v-266h-132v697h363q194 0 194 -203q0 -184 -183 -191zM501 876l-158 -129h-108l129 129h137z" />
    <glyph glyph-name="racute" unicode="&#x155;" horiz-adv-x="379" 
d="M323 524q25 0 52 -3v-118q-29 7 -65 7q-50 0 -83.5 -15.5t-33.5 -41.5v-353h-124v509h124v-38q35 53 130 53zM400 697l-145 -129h-109l121 129h133z" />
    <glyph glyph-name="Rcommaaccent" unicode="&#x156;" horiz-adv-x="706" 
d="M420 585h-200v-210h197q37 0 59 26t22 76q0 108 -78 108zM462 303q36 -13 88 -82q56 -71 145 -221h-163q-151 266 -219 266h-93v-266h-132v697h363q194 0 194 -203q0 -184 -183 -191zM304 -51h131l-92 -167h-95z" />
    <glyph glyph-name="rcommaaccent" unicode="&#x157;" horiz-adv-x="379" 
d="M323 524q25 0 52 -3v-118q-29 7 -65 7q-50 0 -83.5 -15.5t-33.5 -41.5v-353h-124v509h124v-38q35 53 130 53zM91 -51h131l-92 -167h-95z" />
    <glyph glyph-name="Rcaron" unicode="&#x158;" horiz-adv-x="706" 
d="M420 585h-200v-210h197q37 0 59 26t22 76q0 108 -78 108zM462 303q36 -13 88 -82q56 -71 145 -221h-163q-151 266 -219 266h-93v-266h-132v697h363q194 0 194 -203q0 -184 -183 -191zM160 876h115l73 -78l70 78h112l-122 -129h-122z" />
    <glyph glyph-name="rcaron" unicode="&#x159;" horiz-adv-x="379" 
d="M323 524q25 0 52 -3v-118q-29 7 -65 7q-50 0 -83.5 -15.5t-33.5 -41.5v-353h-124v509h124v-38q35 53 130 53zM44 697h117l71 -76l69 76h113l-122 -129h-122z" />
    <glyph glyph-name="Sacute" unicode="&#x15a;" horiz-adv-x="622" 
d="M346 714q120 0 213 -31l-29 -114q-69 25 -184 25q-85 0 -121 -20.5t-36 -70.5q0 -41 30 -61q31 -19 123 -28q123 -13 178.5 -62t55.5 -147q0 -118 -71.5 -168.5t-229.5 -50.5q-127 0 -217 31l29 114q78 -25 186 -25q87 0 124 20.5t37 71.5q0 44 -33 66q-33 24 -126 31
q-121 12 -173.5 55.5t-52.5 136.5q0 119 72.5 173t224.5 54zM484 876l-158 -129h-108l129 129h137z" />
    <glyph glyph-name="sacute" unicode="&#x15b;" horiz-adv-x="491" 
d="M434 496l-27 -97q-73 24 -148 24q-53 0 -72.5 -11.5t-19.5 -47.5q0 -26 21.5 -37.5t83.5 -17.5q96 -10 136.5 -44.5t40.5 -108.5q0 -94 -56 -132t-162 -38q-105 0 -182 27l26 98q67 -24 151 -24q57 0 78.5 12.5t21.5 49.5q0 28 -23 41.5t-86 19.5q-92 7 -132 39.5
t-40 105.5q0 90 54.5 129.5t163.5 39.5q88 0 171 -28zM402 697l-145 -129h-109l121 129h133z" />
    <glyph glyph-name="Scircumflex" unicode="&#x15c;" horiz-adv-x="622" 
d="M346 714q120 0 213 -31l-29 -114q-69 25 -184 25q-85 0 -121 -20.5t-36 -70.5q0 -41 30 -61q31 -19 123 -28q123 -13 178.5 -62t55.5 -147q0 -118 -71.5 -168.5t-229.5 -50.5q-127 0 -217 31l29 114q78 -25 186 -25q87 0 124 20.5t37 71.5q0 44 -33 66q-33 24 -126 31
q-121 12 -173.5 55.5t-52.5 136.5q0 119 72.5 173t224.5 54zM514 747h-116l-72 78l-70 -78h-112l122 129h122z" />
    <glyph glyph-name="scircumflex" unicode="&#x15d;" horiz-adv-x="491" 
d="M434 496l-27 -97q-73 24 -148 24q-53 0 -72.5 -11.5t-19.5 -47.5q0 -26 21.5 -37.5t83.5 -17.5q96 -10 136.5 -44.5t40.5 -108.5q0 -94 -56 -132t-162 -38q-105 0 -182 27l26 98q67 -24 151 -24q57 0 78.5 12.5t21.5 49.5q0 28 -23 41.5t-86 19.5q-92 7 -132 39.5
t-40 105.5q0 90 54.5 129.5t163.5 39.5q88 0 171 -28zM443 568h-117l-71 76l-69 -76h-113l122 129h122z" />
    <glyph glyph-name="Scedilla" unicode="&#x15e;" horiz-adv-x="622" 
d="M346 714q120 0 213 -31l-29 -114q-69 25 -184 25q-85 0 -121 -20.5t-36 -70.5q0 -41 30 -61q31 -19 123 -28q123 -13 178.5 -62t55.5 -147q0 -107 -59 -158t-188 -59v-30q61 0 85.5 -17t24.5 -61q0 -47 -30.5 -65t-106.5 -18q-63 0 -98 16l22 54q24 -12 71 -12
q23 0 32 5.5t9 20.5q0 19 -19.5 24t-74.5 2l30 79q-126 0 -216 31l29 114q78 -25 186 -25q87 0 124 20.5t37 71.5q0 44 -33 66q-33 24 -126 31q-121 12 -173.5 55.5t-52.5 136.5q0 119 72.5 173t224.5 54z" />
    <glyph glyph-name="Scedilla" unicode="&#xf6c1;" horiz-adv-x="622" 
d="M346 714q120 0 213 -31l-29 -114q-69 25 -184 25q-85 0 -121 -20.5t-36 -70.5q0 -41 30 -61q31 -19 123 -28q123 -13 178.5 -62t55.5 -147q0 -107 -59 -158t-188 -59v-30q61 0 85.5 -17t24.5 -61q0 -47 -30.5 -65t-106.5 -18q-63 0 -98 16l22 54q24 -12 71 -12
q23 0 32 5.5t9 20.5q0 19 -19.5 24t-74.5 2l30 79q-126 0 -216 31l29 114q78 -25 186 -25q87 0 124 20.5t37 71.5q0 44 -33 66q-33 24 -126 31q-121 12 -173.5 55.5t-52.5 136.5q0 119 72.5 173t224.5 54z" />
    <glyph glyph-name="scedilla" unicode="&#x15f;" horiz-adv-x="491" 
d="M434 496l-27 -97q-73 24 -148 24q-53 0 -72.5 -11.5t-19.5 -47.5q0 -26 21.5 -37.5t83.5 -17.5q96 -10 136.5 -44.5t40.5 -108.5q0 -84 -47 -124t-141 -45v-29q61 0 85.5 -17t24.5 -61q0 -47 -30.5 -65t-106.5 -18q-63 0 -98 16l22 54q24 -12 71 -12q23 0 32 5.5t9 20.5
q0 19 -19.5 24t-74.5 2l30 80q-94 5 -157 26l26 98q67 -24 151 -24q57 0 78.5 12.5t21.5 49.5q0 28 -23 41.5t-86 19.5q-92 7 -132 39.5t-40 105.5q0 90 54.5 129.5t163.5 39.5q88 0 171 -28z" />
    <glyph glyph-name="scedilla" unicode="&#xf6c2;" horiz-adv-x="491" 
d="M434 496l-27 -97q-73 24 -148 24q-53 0 -72.5 -11.5t-19.5 -47.5q0 -26 21.5 -37.5t83.5 -17.5q96 -10 136.5 -44.5t40.5 -108.5q0 -84 -47 -124t-141 -45v-29q61 0 85.5 -17t24.5 -61q0 -47 -30.5 -65t-106.5 -18q-63 0 -98 16l22 54q24 -12 71 -12q23 0 32 5.5t9 20.5
q0 19 -19.5 24t-74.5 2l30 80q-94 5 -157 26l26 98q67 -24 151 -24q57 0 78.5 12.5t21.5 49.5q0 28 -23 41.5t-86 19.5q-92 7 -132 39.5t-40 105.5q0 90 54.5 129.5t163.5 39.5q88 0 171 -28z" />
    <glyph glyph-name="Scaron" unicode="&#x160;" horiz-adv-x="622" 
d="M346 714q120 0 213 -31l-29 -114q-69 25 -184 25q-85 0 -121 -20.5t-36 -70.5q0 -41 30 -61q31 -19 123 -28q123 -13 178.5 -62t55.5 -147q0 -118 -71.5 -168.5t-229.5 -50.5q-127 0 -217 31l29 114q78 -25 186 -25q87 0 124 20.5t37 71.5q0 44 -33 66q-33 24 -126 31
q-121 12 -173.5 55.5t-52.5 136.5q0 119 72.5 173t224.5 54zM138 876h115l73 -78l70 78h112l-122 -129h-122z" />
    <glyph glyph-name="scaron" unicode="&#x161;" horiz-adv-x="491" 
d="M434 496l-27 -97q-73 24 -148 24q-53 0 -72.5 -11.5t-19.5 -47.5q0 -26 21.5 -37.5t83.5 -17.5q96 -10 136.5 -44.5t40.5 -108.5q0 -94 -56 -132t-162 -38q-105 0 -182 27l26 98q67 -24 151 -24q57 0 78.5 12.5t21.5 49.5q0 28 -23 41.5t-86 19.5q-92 7 -132 39.5
t-40 105.5q0 90 54.5 129.5t163.5 39.5q88 0 171 -28zM66 697h117l71 -76l69 76h113l-122 -129h-122z" />
    <glyph glyph-name="Tcommaaccent" unicode="&#x162;" horiz-adv-x="609" 
d="M371 583v-583h-133v583h-235v114h603v-114h-235zM264 -51h131l-92 -167h-95z" />
    <glyph glyph-name="Tcommaaccent" unicode="&#x21a;" horiz-adv-x="609" 
d="M371 583v-583h-133v583h-235v114h603v-114h-235zM264 -51h131l-92 -167h-95z" />
    <glyph glyph-name="tcommaaccent" unicode="&#x163;" horiz-adv-x="415" 
d="M388 509v-108h-169v-219q0 -46 18 -67.5t59 -21.5q42 0 87 14l22 -98q-66 -23 -140 -23q-89 0 -130 38q-40 39 -40 147v230h-85v108h85v86l124 51v-137h169zM168 -51h131l-92 -167h-95z" />
    <glyph glyph-name="tcommaaccent" unicode="&#x21b;" horiz-adv-x="415" 
d="M388 509v-108h-169v-219q0 -46 18 -67.5t59 -21.5q42 0 87 14l22 -98q-66 -23 -140 -23q-89 0 -130 38q-40 39 -40 147v230h-85v108h85v86l124 51v-137h169zM168 -51h131l-92 -167h-95z" />
    <glyph glyph-name="Tcaron" unicode="&#x164;" horiz-adv-x="609" 
d="M371 583v-583h-133v583h-235v114h603v-114h-235zM123 876h115l73 -78l70 78h112l-122 -129h-122z" />
    <glyph glyph-name="tcaron" unicode="&#x165;" horiz-adv-x="415" 
d="M388 509v-108h-169v-219q0 -46 18 -67.5t59 -21.5q42 0 87 14l22 -98q-66 -23 -140 -23q-89 0 -130 38q-40 39 -40 147v230h-85v108h85v86l124 51v-137h169zM291 578l20 192h110l-57 -192h-73z" />
    <glyph glyph-name="Tbar" unicode="&#x166;" horiz-adv-x="609" 
d="M238 235h-77v92h77v254h-235v116h603v-116h-235v-254h69v-92h-69v-235h-133v235z" />
    <glyph glyph-name="tbar" unicode="&#x167;" horiz-adv-x="415" 
d="M95 217h-57v82h57v103h-85v107h85v86l124 51v-137h169v-107h-169v-103h97v-82h-97v-35q0 -48 17.5 -68.5t61.5 -20.5q40 0 85 14l22 -98q-66 -23 -139 -23q-90 0 -131 38q-40 39 -40 147v46z" />
    <glyph glyph-name="Utilde" unicode="&#x168;" horiz-adv-x="742" 
d="M532 231v466h132v-486q0 -129 -73 -177q-72 -48 -220 -48q-147 0 -221 48q-72 48 -72 177v486h133v-467q0 -69 37 -96t123 -27q89 0 125 27t36 97zM496 879l61 -50q-15 -42 -47 -67.5t-73 -25.5q-31 0 -76 27t-67 27q-31 0 -51 -50l-56 55q45 79 107 79q36 0 82 -26
q47 -26 66 -26q18 0 30 12.5t24 44.5z" />
    <glyph glyph-name="utilde" unicode="&#x169;" horiz-adv-x="583" 
d="M390 110v399h124v-479q-117 -44 -241 -44q-109 0 -159 53q-48 52 -48 187v283h124v-271q0 -84 21 -113q23 -27 87 -27q47 0 92 12zM413 702l62 -50q-33 -93 -117 -93q-31 0 -75 26q-43 27 -66 27q-31 0 -52 -51l-56 55q47 81 109 81q37 0 79 -27q43 -26 63 -26
q18 0 29.5 12.5t23.5 45.5z" />
    <glyph glyph-name="Umacron" unicode="&#x16a;" horiz-adv-x="742" 
d="M532 231v466h132v-486q0 -129 -73 -177q-72 -48 -220 -48q-147 0 -221 48q-72 48 -72 177v486h133v-467q0 -69 37 -96t123 -27q89 0 125 27t36 97zM507 753h-278v92h278v-92z" />
    <glyph glyph-name="umacron" unicode="&#x16b;" horiz-adv-x="583" 
d="M390 110v399h124v-479q-117 -44 -241 -44q-109 0 -159 53q-48 52 -48 187v283h124v-271q0 -84 21 -113q23 -27 87 -27q47 0 92 12zM427 576h-278v90h278v-90z" />
    <glyph glyph-name="Ubreve" unicode="&#x16c;" horiz-adv-x="742" 
d="M532 231v466h132v-486q0 -129 -73 -177q-72 -48 -220 -48q-147 0 -221 48q-72 48 -72 177v486h133v-467q0 -69 37 -96t123 -27q89 0 125 27t36 97zM222 871h85q0 -33 15 -45.5t51 -12.5t51.5 13t15.5 45h80q0 -137 -150 -137q-148 0 -148 137z" />
    <glyph glyph-name="ubreve" unicode="&#x16d;" horiz-adv-x="583" 
d="M390 110v399h124v-479q-117 -44 -241 -44q-109 0 -159 53q-48 52 -48 187v283h124v-271q0 -84 21 -113q23 -27 87 -27q47 0 92 12zM140 697h85q0 -33 15 -45.5t51 -12.5t51.5 13t15.5 45h80q0 -137 -150 -137q-148 0 -148 137z" />
    <glyph glyph-name="Uring" unicode="&#x16e;" horiz-adv-x="742" 
d="M369 890q62 0 90.5 -23t28.5 -75t-28.5 -75t-90.5 -23q-63 0 -91.5 22.5t-28.5 75.5q0 54 28 76t92 22zM369 834q-30 0 -40 -10t-10 -33t10 -33t40 -10q29 0 39.5 9.5t10.5 33.5q0 25 -10.5 34t-39.5 9zM532 231v466h132v-486q0 -129 -73 -177q-72 -48 -220 -48
q-147 0 -221 48q-72 48 -72 177v486h133v-467q0 -69 37 -96t123 -27q89 0 125 27t36 97z" />
    <glyph glyph-name="uring" unicode="&#x16f;" horiz-adv-x="583" 
d="M293 741q62 0 90.5 -23t28.5 -75q0 -53 -28 -75.5t-91 -22.5t-91.5 22.5t-28.5 75.5t28 75.5t92 22.5zM243 641q0 -24 10.5 -33.5t39.5 -9.5t39.5 9.5t10.5 33.5q0 25 -10.5 34t-39.5 9t-39.5 -9t-10.5 -34zM390 110v399h124v-479q-117 -44 -241 -44q-109 0 -159 53
q-48 52 -48 187v283h124v-271q0 -84 21 -113q23 -27 87 -27q47 0 92 12z" />
    <glyph glyph-name="Uhungarumlaut" unicode="&#x170;" horiz-adv-x="742" 
d="M532 231v466h132v-486q0 -129 -73 -177q-72 -48 -220 -48q-147 0 -221 48q-72 48 -72 177v486h133v-467q0 -69 37 -96t123 -27q89 0 125 27t36 97zM410 876l-115 -129h-85l91 129h109zM574 876l-114 -129h-86l91 129h109z" />
    <glyph glyph-name="uhungarumlaut" unicode="&#x171;" horiz-adv-x="583" 
d="M390 110v399h124v-479q-117 -44 -241 -44q-109 0 -159 53q-48 52 -48 187v283h124v-271q0 -84 21 -113q23 -27 87 -27q47 0 92 12zM328 697l-115 -129h-85l91 129h109zM492 697l-114 -129h-86l91 129h109z" />
    <glyph glyph-name="Uogonek" unicode="&#x172;" horiz-adv-x="742" 
d="M532 231v466h132v-486q0 -114 -57 -165t-180 -58q-47 -35 -47 -80q0 -22 12.5 -31t47.5 -9q52 0 83 27l35 -63q-47 -35 -131 -35q-73 0 -102.5 21t-29.5 68q0 62 66 100q-136 1 -207 45q-76 49 -76 180v486h133v-467q0 -69 37 -96t123 -27q89 0 125 27t36 97z" />
    <glyph glyph-name="uogonek" unicode="&#x173;" horiz-adv-x="583" 
d="M390 110v399h124v-479q-28 -12 -68 -21q-46 -29 -62.5 -50t-16.5 -51q0 -22 12.5 -31t47.5 -9q51 0 83 27l35 -63q-47 -35 -131 -35q-73 0 -102.5 21t-29.5 68q0 68 77 106q-43 -6 -86 -6q-109 0 -159 53q-48 52 -48 187v283h124v-271q0 -84 21 -113q23 -27 87 -27
q47 0 92 12z" />
    <glyph glyph-name="Wcircumflex" unicode="&#x174;" horiz-adv-x="975" 
d="M691 164q85 267 145 533h136q-88 -360 -202 -697h-168q-40 212 -109 478q-37 -183 -128 -478h-167q-109 441 -200 697h144q81 -242 150 -533q104 344 140 533h122q102 -365 137 -533zM678 747h-116l-72 78l-70 -78h-112l122 129h122z" />
    <glyph glyph-name="wcircumflex" unicode="&#x175;" horiz-adv-x="830" 
d="M699 509h126q-74 -266 -174 -509h-154q-39 198 -82 341q-37 -167 -98 -341h-153q-77 277 -164 509h131q66 -179 116 -382q27 78 60 193q29 101 50 189h121q58 -173 103 -382q83 229 118 382zM602 568h-117l-71 76l-69 -76h-113l122 129h122z" />
    <glyph glyph-name="Ycircumflex" unicode="&#x176;" horiz-adv-x="638" 
d="M-38 697h172q90 -112 194 -266q108 144 184 266h160q-127 -191 -281 -396v-301h-132v300q-182 257 -297 397zM512 747h-116l-72 78l-70 -78h-112l122 129h122z" />
    <glyph glyph-name="ycircumflex" unicode="&#x177;" horiz-adv-x="511" 
d="M381 509h126q-117 -395 -272 -701h-138q31 54 83 167q-82 299 -180 534h129q67 -168 126 -386q86 229 126 386zM442 568h-117l-71 76l-69 -76h-113l122 129h122z" />
    <glyph glyph-name="Ydieresis" unicode="&#x178;" horiz-adv-x="638" 
d="M-38 697h172q90 -112 194 -266q108 144 184 266h160q-127 -191 -281 -396v-301h-132v300q-182 257 -297 397zM280 808q0 -38 -11.5 -49.5t-47.5 -11.5t-48 11.5t-12 49.5q0 35 12 45.5t48 10.5t47.5 -10.5t11.5 -45.5zM434 864q36 0 47.5 -10.5t11.5 -45.5
q0 -38 -11.5 -49.5t-47.5 -11.5t-48 11.5t-12 49.5q0 35 11.5 45.5t48.5 10.5z" />
    <glyph glyph-name="Zacute" unicode="&#x179;" horiz-adv-x="621" 
d="M597 0h-580v32q186 252 382 551h-360v114h565v-30q-74 -120 -193 -293q-115 -167 -189 -260h375v-114zM483 876l-158 -129h-108l129 129h137z" />
    <glyph glyph-name="zacute" unicode="&#x17a;" horiz-adv-x="497" 
d="M35 401v108h439v-25q-52 -86 -132 -198q-79 -114 -130 -178h255v-108h-449v25q69 87 148 199q73 105 118 177h-249zM429 697l-145 -129h-109l121 129h133z" />
    <glyph glyph-name="Zdotaccent" unicode="&#x17b;" horiz-adv-x="621" 
d="M597 0h-580v32q186 252 382 551h-360v114h565v-30q-74 -120 -193 -293q-115 -167 -189 -260h375v-114zM377 811q0 -38 -12 -49.5t-48 -11.5t-47.5 11.5t-11.5 49.5q0 35 11.5 45.5t47.5 10.5t48 -10.5t12 -45.5z" />
    <glyph glyph-name="zdotaccent" unicode="&#x17c;" horiz-adv-x="497" 
d="M35 401v108h439v-25q-52 -86 -132 -198q-79 -114 -130 -178h255v-108h-449v25q69 87 148 199q73 105 118 177h-249zM313 626q0 -38 -12 -50t-48 -12t-47.5 12t-11.5 50q0 35 11.5 45t47.5 10t48 -10.5t12 -44.5z" />
    <glyph glyph-name="Zcaron" unicode="&#x17d;" horiz-adv-x="621" 
d="M597 0h-580v32q186 252 382 551h-360v114h565v-30q-74 -120 -193 -293q-115 -167 -189 -260h375v-114zM141 876h115l73 -78l70 78h112l-122 -129h-122z" />
    <glyph glyph-name="zcaron" unicode="&#x17e;" horiz-adv-x="497" 
d="M35 401v108h439v-25q-52 -86 -132 -198q-79 -114 -130 -178h255v-108h-449v25q69 87 148 199q73 105 118 177h-249zM67 697h117l71 -76l69 76h113l-122 -129h-122z" />
    <glyph glyph-name="longs" unicode="&#x17f;" horiz-adv-x="267" 
d="M190 0h-124v543q0 103 49 142t135 39q78 0 141 -22l-28 -98q-44 14 -92 14q-43 0 -62 -17.5t-19 -64.5v-536z" />
    <glyph glyph-name="florin" unicode="&#x192;" horiz-adv-x="376" 
d="M50 -14l82 416h-90l21 107h90l6 34q31 181 221 181q83 0 140 -22l-46 -98q-39 14 -94 14q-47 0 -72 -26t-31 -83h170l-20 -107h-171l-76 -390q-25 -136 -104 -179q-64 -35 -159 -35q-59 0 -119 23l42 96q48 -20 101 -20q92 0 109 89z" />
    <glyph glyph-name="Ohorn" unicode="&#x1a0;" horiz-adv-x="770" 
d="M707 696h97v-81q0 -28 -17.5 -58.5t-44.5 -45.5h-42q16 -61 16 -156q0 -107 -20 -179t-63 -113.5t-102 -59t-146 -17.5q-170 0 -249 76q-83 82 -83 293q0 209 83 286q44 39 102.5 56t146.5 17q138 0 213 -45t101 -153q49 37 49 91h-41v89zM194 353q0 -107 17 -159
t55.5 -70.5t118.5 -18.5t118.5 18.5t55.5 70.5t17 159q0 85 -8 129.5t-31 69.5q-22 26 -55 34.5t-97 8.5t-97 -8.5t-56 -34.5q-22 -25 -30 -69.5t-8 -129.5z" />
    <glyph glyph-name="ohorn" unicode="&#x1a1;" 
d="M544 509h97v-81q0 -28 -17.5 -58.5t-44.5 -45.5h-46q4 -37 4 -67q0 -153 -58 -212q-59 -59 -186 -59q-126 0 -185 59q-57 60 -57 212q0 150 58 208q59 59 184 59q114 0 170.5 -45t69.5 -153q52 39 52 94h-41v89zM293 424q-68 0 -91 -32t-23 -137q0 -102 23 -136
q24 -33 91 -33q68 0 92 33t24 136q-2 76 -12 110t-32 46t-72 13z" />
    <glyph glyph-name="Uhorn" unicode="&#x1af;" horiz-adv-x="742" 
d="M532 231v466h132v-486q0 -129 -73 -177q-72 -48 -220 -48q-147 0 -221 48q-72 48 -72 177v486h133v-467q0 -69 37 -96t123 -27q89 0 125 27t36 97zM712 696h97v-81q0 -28 -17.5 -58.5t-44.5 -45.5h-49q55 40 55 96h-41v89z" />
    <glyph glyph-name="uhorn" unicode="&#x1b0;" horiz-adv-x="583" 
d="M390 110v399h124v-479q-117 -44 -241 -44q-109 0 -159 53q-48 52 -48 187v283h124v-271q0 -84 21 -113q23 -27 87 -27q47 0 92 12zM549 509h97v-81q0 -28 -17.5 -58.5t-44.5 -45.5h-49q55 40 55 96h-41v89z" />
    <glyph glyph-name="uni01CD" unicode="&#x1cd;" horiz-adv-x="682" 
d="M701 0h-146q-52 130 -67 174h-305l-54 -174h-139q112 351 253 697h207q125 -397 251 -697zM353 585h-27q-51 -131 -108 -298h232q-52 147 -97 298zM157 876h115l73 -78l70 78h112l-122 -129h-122z" />
    <glyph glyph-name="uni01CE" unicode="&#x1ce;" horiz-adv-x="560" 
d="M494 326v-300q-101 -40 -230 -40q-122 0 -169 35q-46 36 -46 135q0 100 49 133q49 34 151 34q56 0 126 -14q0 68 -24 89q-23 22 -103 22q-85 0 -154 -25l-23 102q102 27 203 27q116 0 168 -44q52 -43 52 -154zM375 98v127q-42 9 -101 9q-58 0 -76.5 -13.5t-18.5 -59.5
q0 -51 18 -66q19 -14 76 -14q51 0 102 17zM95 697h117l71 -76l69 76h113l-122 -129h-122z" />
    <glyph glyph-name="uni01CF" unicode="&#x1cf;" horiz-adv-x="308" 
d="M-31 876h115l73 -78l70 78h112l-122 -129h-122zM88 0v697h132v-697h-132z" />
    <glyph glyph-name="uni01D0" unicode="&#x1d0;" horiz-adv-x="262" 
d="M-54 697h117l71 -76l69 76h113l-122 -129h-122zM69 509h124v-509h-124v509z" />
    <glyph glyph-name="uni01D1" unicode="&#x1d1;" horiz-adv-x="770" 
d="M385 -14q-170 0 -249 76q-83 82 -83 293q0 209 83 286q44 39 102.5 56t146.5 17t147 -17t101 -56q83 -77 83 -286q0 -107 -20 -179t-63 -113.5t-102 -59t-146 -17.5zM194 353q0 -107 17 -159t55.5 -70.5t118.5 -18.5t118.5 18.5t55.5 70.5t17 159q0 85 -8 129.5t-31 69.5
q-22 26 -55 34.5t-97 8.5t-97 -8.5t-56 -34.5q-22 -25 -30 -69.5t-8 -129.5zM199 876h115l73 -78l70 78h112l-122 -129h-122z" />
    <glyph glyph-name="uni01D2" unicode="&#x1d2;" 
d="M293 -14q-126 0 -185 59q-57 60 -57 212q0 150 58 208q59 59 184 59q127 0 186 -59q58 -58 58 -208q0 -153 -58 -212q-59 -59 -186 -59zM293 424q-68 0 -91 -32t-23 -137q0 -102 23 -136q24 -33 91 -33q68 0 92 33t24 136q-2 76 -12 110t-32 46t-72 13zM109 697h117
l71 -76l69 76h113l-122 -129h-122z" />
    <glyph glyph-name="uni01D3" unicode="&#x1d3;" horiz-adv-x="742" 
d="M532 231v466h132v-486q0 -129 -73 -177q-72 -48 -220 -48q-147 0 -221 48q-72 48 -72 177v486h133v-467q0 -69 37 -96t123 -27q89 0 125 27t36 97zM186 876h115l73 -78l70 78h112l-122 -129h-122z" />
    <glyph glyph-name="uni01D4" unicode="&#x1d4;" horiz-adv-x="583" 
d="M390 110v399h124v-479q-117 -44 -241 -44q-109 0 -159 53q-48 52 -48 187v283h124v-271q0 -84 21 -113q23 -27 87 -27q47 0 92 12zM106 697h117l71 -76l69 76h113l-122 -129h-122z" />
    <glyph glyph-name="uni01D5" unicode="&#x1d5;" horiz-adv-x="742" 
d="M322 782q0 -38 -11.5 -49.5t-47.5 -11.5t-48 11.5t-12 49.5q0 35 12 45.5t48 10.5t47.5 -10.5t11.5 -45.5zM476 838q36 0 47.5 -10.5t11.5 -45.5q0 -38 -11.5 -49.5t-47.5 -11.5t-48 11.5t-12 49.5q0 35 11.5 45.5t48.5 10.5zM532 231v466h132v-486q0 -129 -73 -177
q-72 -48 -220 -48q-147 0 -221 48q-72 48 -72 177v486h133v-467q0 -69 37 -96t123 -27q89 0 125 27t36 97zM510 853h-278v92h278v-92z" />
    <glyph glyph-name="uni01D6" unicode="&#x1d6;" horiz-adv-x="583" 
d="M390 110v399h124v-479q-117 -44 -241 -44q-109 0 -159 53q-48 52 -48 187v283h124v-271q0 -84 21 -113q23 -27 87 -27q47 0 92 12zM431 711h-278v90h278v-90zM244 621q0 -38 -11.5 -50t-47.5 -12t-48 12t-12 50q0 34 12 44.5t48 10.5t47.5 -10t11.5 -45zM398 676
q36 0 47.5 -10t11.5 -45q0 -38 -11.5 -50t-47.5 -12t-48 11.5t-12 50.5q0 35 11.5 45t48.5 10z" />
    <glyph glyph-name="uni01D7" unicode="&#x1d7;" horiz-adv-x="742" 
d="M532 231v466h132v-486q0 -129 -73 -177q-72 -48 -220 -48q-147 0 -221 48q-72 48 -72 177v486h133v-467q0 -69 37 -96t123 -27q89 0 125 27t36 97zM527 944l-152 -96h-104l124 96h132zM322 776q0 -38 -11.5 -49.5t-47.5 -11.5t-48 11.5t-12 49.5q0 35 12 45.5t48 10.5
t47.5 -10.5t11.5 -45.5zM476 832q36 0 47.5 -10.5t11.5 -45.5q0 -38 -11.5 -49.5t-47.5 -11.5t-48 11.5t-12 49.5q0 35 11.5 45.5t48.5 10.5z" />
    <glyph glyph-name="uni01D8" unicode="&#x1d8;" horiz-adv-x="583" 
d="M390 110v399h124v-479q-117 -44 -241 -44q-109 0 -159 53q-48 52 -48 187v283h124v-271q0 -84 21 -113q23 -27 87 -27q47 0 92 12zM250 626q0 -38 -12 -50t-48 -12t-47.5 12t-11.5 50q0 35 11.5 45t47.5 10t48 -10.5t12 -44.5zM404 681q36 0 47.5 -10t11.5 -45
q0 -38 -12.5 -50t-46.5 -12q-36 0 -48 12t-12 50q0 35 11.5 45t48.5 10zM455 876l-158 -129h-108l129 129h137z" />
    <glyph glyph-name="uni01D9" unicode="&#x1d9;" horiz-adv-x="742" 
d="M532 231v466h132v-486q0 -129 -73 -177q-72 -48 -220 -48q-147 0 -221 48q-72 48 -72 177v486h133v-467q0 -69 37 -96t123 -27q89 0 125 27t36 97zM321 808q0 -38 -11.5 -49.5t-47.5 -11.5t-48 11.5t-12 49.5q0 35 12 45.5t48 10.5t47.5 -10.5t11.5 -45.5zM475 864
q36 0 47.5 -10.5t11.5 -45.5q0 -38 -11.5 -49.5t-47.5 -11.5t-48 11.5t-12 49.5q0 35 11.5 45.5t48.5 10.5z" />
    <glyph glyph-name="uni01DA" unicode="&#x1da;" horiz-adv-x="583" 
d="M390 110v399h124v-479q-117 -44 -241 -44q-109 0 -159 53q-48 52 -48 187v283h124v-271q0 -84 21 -113q23 -27 87 -27q47 0 92 12zM247 626q0 -38 -12 -50t-48 -12t-47.5 12t-11.5 50q0 35 11.5 45t47.5 10t48 -10.5t12 -44.5zM401 681q36 0 47.5 -10t11.5 -45
q0 -38 -12 -50t-47 -12q-37 0 -48.5 12t-11.5 50q0 35 11.5 45t48.5 10z" />
    <glyph glyph-name="uni01DB" unicode="&#x1db;" horiz-adv-x="742" 
d="M532 231v466h132v-486q0 -129 -73 -177q-72 -48 -220 -48q-147 0 -221 48q-72 48 -72 177v486h133v-467q0 -69 37 -96t123 -27q89 0 125 27t36 97zM475 844q36 0 47.5 -10.5t11.5 -45.5q0 -38 -11.5 -49.5t-47.5 -11.5t-48 11.5t-12 49.5q0 35 11.5 45.5t48.5 10.5z
M321 788q0 -38 -11.5 -49.5t-47.5 -11.5t-48 11.5t-12 49.5q0 35 12 45.5t48 10.5t47.5 -10.5t11.5 -45.5zM325 944l128 -97h-108l-150 97h130z" />
    <glyph glyph-name="uni01DC" unicode="&#x1dc;" horiz-adv-x="583" 
d="M390 110v399h124v-479q-117 -44 -241 -44q-109 0 -159 53q-48 52 -48 187v283h124v-271q0 -84 21 -113q23 -27 87 -27q47 0 92 12zM264 876l135 -129h-114l-158 129h137zM401 681q36 0 47.5 -10t11.5 -45q0 -38 -12 -50t-47 -12q-37 0 -48.5 12t-11.5 50q0 35 11.5 45
t48.5 10zM247 626q0 -38 -12 -50t-48 -12t-47.5 12t-11.5 50q0 35 11.5 45t47.5 10t48 -10.5t12 -44.5z" />
    <glyph glyph-name="AEacute" unicode="&#x1fc;" horiz-adv-x="969" 
d="M345 697h597v-114h-374v-161h222v-112h-222v-196h374v-114h-505v174h-311l-112 -174h-158q238 364 489 697zM409 585l-209 -298h237v298h-28zM715 876l-158 -129h-108l129 129h137z" />
    <glyph glyph-name="aeacute" unicode="&#x1fd;" horiz-adv-x="868" 
d="M604 524q66 0 105.5 -13t68.5 -46q54 -61 48 -243h-329q2 -78 31 -105q31 -26 101 -26q73 0 143 21l20 -98q-83 -28 -178 -28q-96 0 -148 36q-75 -36 -202 -36q-122 0 -169 35q-46 36 -46 135q0 100 50 133q49 34 150 34q56 0 126 -14q0 69 -24 88q-23 21 -103 21
q-88 0 -154 -23l-23 102q102 27 203 27q129 0 169 -61q43 61 161 61zM393 105q-20 49 -20 120q-40 9 -98 9t-76.5 -13.5t-18.5 -59.5q0 -48 17 -65q17 -15 77 -15q74 0 119 24zM611 426q-58 0 -82.5 -23t-30.5 -86h214q-3 66 -25 87q-21 22 -76 22zM571 697l-145 -129h-109
l121 129h133z" />
    <glyph glyph-name="Oslashacute" unicode="&#x1fe;" horiz-adv-x="770" 
d="M595 667l25 30h135l-88 -101q49 -82 49 -241q0 -107 -20 -179t-63 -113.5t-102 -59t-146 -17.5q-135 0 -207 45l-27 -31h-134l88 101q-52 85 -52 254q0 209 83 286q44 39 102.5 56t146.5 17q137 0 210 -47zM385 595q-77 0 -114 -15q-39 -15 -57.5 -59.5t-18.5 -132.5
q0 -120 14 -168l300 349q-37 26 -124 26zM385 105q115 2 151 41t40 173q0 112 -14 157l-297 -345q35 -26 120 -26zM540 876l-158 -129h-108l129 129h137z" />
    <glyph glyph-name="oslashacute" unicode="&#x1ff;" 
 />
    <glyph glyph-name="Scommaaccent" unicode="&#x218;" horiz-adv-x="622" 
d="M346 714q120 0 213 -31l-29 -114q-69 25 -184 25q-85 0 -121 -20.5t-36 -70.5q0 -41 30 -61q31 -19 123 -28q123 -13 178.5 -62t55.5 -147q0 -118 -71.5 -168.5t-229.5 -50.5q-127 0 -217 31l29 114q78 -25 186 -25q87 0 124 20.5t37 71.5q0 44 -33 66q-33 24 -126 31
q-121 12 -173.5 55.5t-52.5 136.5q0 119 72.5 173t224.5 54zM265 -51h131l-92 -167h-95z" />
    <glyph glyph-name="scommaaccent" unicode="&#x219;" horiz-adv-x="491" 
d="M434 496l-27 -97q-73 24 -148 24q-53 0 -72.5 -11.5t-19.5 -47.5q0 -26 21.5 -37.5t83.5 -17.5q96 -10 136.5 -44.5t40.5 -108.5q0 -94 -56 -132t-162 -38q-105 0 -182 27l26 98q67 -24 151 -24q57 0 78.5 12.5t21.5 49.5q0 28 -23 41.5t-86 19.5q-92 7 -132 39.5
t-40 105.5q0 90 54.5 129.5t163.5 39.5q88 0 171 -28zM197 -51h131l-92 -167h-95z" />
    <glyph glyph-name="circumflex" unicode="&#x2c6;" horiz-adv-x="660" 
d="M527 568h-117l-71 76l-69 -76h-113l122 129h122z" />
    <glyph glyph-name="caron" unicode="&#x2c7;" horiz-adv-x="654" 
d="M157 697h117l71 -76l69 76h113l-122 -129h-122z" />
    <glyph glyph-name="breve" unicode="&#x2d8;" horiz-adv-x="524" 
d="M94 697h85q0 -33 15 -45.5t51 -12.5t51.5 13t15.5 45h80q0 -137 -150 -137q-148 0 -148 137z" />
    <glyph glyph-name="dotaccent" unicode="&#x2d9;" horiz-adv-x="462" 
d="M246 626q0 -38 -12 -50t-48 -12t-47.5 12t-11.5 50q0 35 11.5 45t47.5 10t48 -10.5t12 -44.5z" />
    <glyph glyph-name="ring" unicode="&#x2da;" horiz-adv-x="714" 
d="M360 741q62 0 90.5 -23t28.5 -75q0 -53 -28 -75.5t-91 -22.5t-91.5 22.5t-28.5 75.5t28 75.5t92 22.5zM310 641q0 -24 10.5 -33.5t39.5 -9.5t39.5 9.5t10.5 33.5q0 25 -10.5 34t-39.5 9t-39.5 -9t-10.5 -34z" />
    <glyph glyph-name="ogonek" unicode="&#x2db;" horiz-adv-x="641" 
d="M443 12h39q-49 -29 -66.5 -51t-17.5 -53q0 -22 12.5 -31t47.5 -9q51 0 83 27l35 -63q-47 -35 -131 -35q-73 0 -102.5 21t-29.5 68q0 43 33.5 76t96.5 50z" />
    <glyph glyph-name="tilde" unicode="&#x2dc;" horiz-adv-x="715" 
d="M446 702l62 -50q-33 -93 -117 -93q-31 0 -75 26q-44 27 -66 27q-31 0 -52 -51l-56 55q46 81 109 81q37 0 79 -27q43 -26 63 -26q18 0 29.5 12.5t23.5 45.5z" />
    <glyph glyph-name="hungarumlaut" unicode="&#x2dd;" horiz-adv-x="550" 
d="M363 697l-115 -129h-85l91 129h109zM527 697l-114 -129h-86l91 129h109z" />
    <glyph glyph-name="gravecomb" unicode="&#x300;" horiz-adv-x="481" 
d="M225 697l122 -129h-110l-144 129h132z" />
    <glyph glyph-name="acutecomb" unicode="&#x301;" horiz-adv-x="481" 
d="M347 697l-145 -129h-109l121 129h133z" />
    <glyph glyph-name="tildecomb" unicode="&#x303;" horiz-adv-x="715" 
d="M446 702l62 -50q-33 -93 -117 -93q-31 0 -75 26q-44 27 -66 27q-31 0 -52 -51l-56 55q46 81 109 81q37 0 79 -27q43 -26 63 -26q18 0 29.5 12.5t23.5 45.5z" />
    <glyph glyph-name="hookabovecomb" unicode="&#x309;" horiz-adv-x="641" 
d="M354 555h-47q47 26 61 43q15 16 15 42q0 19 -10.5 26.5t-39.5 7.5q-44 0 -76 -23l-33 62q44 30 122 30q68 0 95.5 -18t27.5 -60q0 -74 -115 -110z" />
    <glyph glyph-name="uni031B" unicode="&#x31b;" horiz-adv-x="215" 
d="M110 509h97v-81q0 -28 -17.5 -58.5t-44.5 -45.5h-49q55 40 55 96h-41v89z" />
    <glyph glyph-name="dotbelowcomb" unicode="&#x323;" horiz-adv-x="390" 
d="M193 -59q37 0 49.5 -11t12.5 -47q0 -39 -12.5 -51.5t-49.5 -12.5q-36 0 -48.5 12.5t-12.5 51.5q0 36 12 47t49 11z" />
    <glyph glyph-name="tonos" unicode="&#x384;" horiz-adv-x="391" 
d="M168 560l-22 162h124l-33 -162h-69z" />
    <glyph glyph-name="dieresistonos" unicode="&#x385;" horiz-adv-x="531" 
d="M226 560l-11 162h106l-26 -162h-69zM179 626q0 -38 -12 -50t-48 -12t-47.5 12t-11.5 50q0 35 11.5 45t47.5 10t48 -10.5t12 -44.5zM412 681q36 0 47.5 -10t11.5 -45q0 -38 -12.5 -50t-46.5 -12q-36 0 -48 12t-12 50q0 35 11.5 45t48.5 10z" />
    <glyph glyph-name="Alphatonos" unicode="&#x386;" horiz-adv-x="682" 
d="M701 0h-146q-52 130 -67 174h-305l-54 -174h-139q112 351 253 697h207q125 -397 251 -697zM353 585h-27q-51 -131 -108 -298h232q-52 147 -97 298zM38 560l-22 162h124l-33 -162h-69z" />
    <glyph glyph-name="anoteleia" unicode="&#x387;" horiz-adv-x="297" 
d="M147 379q52 0 69 -14.5t17 -61.5q0 -51 -17 -67.5t-69 -16.5q-49 0 -66 16.5t-17 67.5q0 46 17 61t66 15z" />
    <glyph glyph-name="Epsilontonos" unicode="&#x388;" horiz-adv-x="620" 
d="M88 0v697h506v-114h-374v-161h267v-113h-267v-195h374v-114h-506zM-47 560l-22 162h124l-33 -162h-69z" />
    <glyph glyph-name="Etatonos" unicode="&#x389;" horiz-adv-x="736" 
d="M518 309h-298v-309h-132v697h132v-266h298v266h130v-697h-130v309zM-47 560l-22 162h124l-33 -162h-69z" />
    <glyph glyph-name="Iotatonos" unicode="&#x38a;" horiz-adv-x="308" 
d="M88 0v697h132v-697h-132zM-48 560l-22 162h124l-33 -162h-69z" />
    <glyph glyph-name="Omicrontonos" unicode="&#x38c;" horiz-adv-x="770" 
d="M385 -14q-170 0 -249 76q-83 82 -83 293q0 209 83 286q44 39 102.5 56t146.5 17t147 -17t101 -56q83 -77 83 -286q0 -107 -20 -179t-63 -113.5t-102 -59t-146 -17.5zM194 353q0 -107 17 -159t55.5 -70.5t118.5 -18.5t118.5 18.5t55.5 70.5t17 159q0 85 -8 129.5t-31 69.5
q-22 26 -55 34.5t-97 8.5t-97 -8.5t-56 -34.5q-22 -25 -30 -69.5t-8 -129.5zM-41 560l-22 162h124l-33 -162h-69z" />
    <glyph glyph-name="Upsilontonos" unicode="&#x38e;" horiz-adv-x="638" 
d="M-116 560l-22 162h124l-5 -25h153q90 -112 194 -266q108 144 184 266h160q-127 -191 -281 -396v-301h-132v300q-160 228 -281 378l-25 -118h-69z" />
    <glyph glyph-name="Omegatonos" unicode="&#x38f;" horiz-adv-x="798" 
d="M334 0h-319v118h158q-44 30 -70 105.5t-26 171.5q0 177 78 248q79 71 244 71q164 0 243 -71q78 -71 78 -248q0 -96 -26 -171.5t-70 -105.5h159v-118h-321v112q67 20 93 85t26 196q0 122 -35 162q-34 40 -147 40q-108 0 -146 -41q-37 -40 -37 -161q0 -130 26 -195t92 -85
v-113zM-27 560l-22 162h124l-33 -162h-69z" />
    <glyph glyph-name="iotadieresistonos" unicode="&#x390;" horiz-adv-x="281" 
d="M99 560l-11 162h106l-26 -162h-69zM52 626q0 -38 -12 -50t-48 -12t-47.5 12t-11.5 50q0 35 11.5 45t47.5 10t48 -10.5t12 -44.5zM285 681q36 0 47.5 -10t11.5 -45q0 -38 -12 -50t-47 -12q-37 0 -48.5 12t-11.5 50q0 35 11.5 45t48.5 10zM69 509h124v-343q0 -33 15.5 -45
t57.5 -12l-18 -123q-110 0 -144 43q-35 44 -35 165v315z" />
    <glyph glyph-name="Alpha" unicode="&#x391;" horiz-adv-x="682" 
d="M701 0h-146q-52 130 -67 174h-305l-54 -174h-139q112 351 253 697h207q125 -397 251 -697zM353 585h-27q-51 -131 -108 -298h232q-52 147 -97 298z" />
    <glyph glyph-name="Beta" unicode="&#x392;" horiz-adv-x="712" 
d="M220 111h220q67 0 67 98q0 103 -71 103h-216v-201zM220 419h214q60 0 60 84q0 43 -13.5 62.5t-46.5 19.5h-214v-166zM489 369q90 -4 125 -46t35 -132q0 -191 -180 -191h-381v697h375q95 0 133 -40t38 -127q0 -77 -29 -115q-29 -39 -116 -46z" />
    <glyph glyph-name="Gamma" unicode="&#x393;" horiz-adv-x="544" 
d="M220 583v-583h-132v697h471v-114h-339z" />
    <glyph glyph-name="increment" unicode="&#x394;" horiz-adv-x="648" 
d="M658 0h-676q106 345 255 697h169q125 -409 252 -697zM313 563q-77 -186 -159 -449h313q-92 237 -154 449z" />
    <glyph glyph-name="increment" unicode="&#x2206;" horiz-adv-x="648" 
d="M658 0h-676q106 345 255 697h169q125 -409 252 -697zM313 563q-77 -186 -159 -449h313q-92 237 -154 449z" />
    <glyph glyph-name="Epsilon" unicode="&#x395;" horiz-adv-x="620" 
d="M88 0v697h506v-114h-374v-161h267v-113h-267v-195h374v-114h-506z" />
    <glyph glyph-name="Zeta" unicode="&#x396;" horiz-adv-x="621" 
d="M597 0h-580v32q186 252 382 551h-360v114h565v-30q-74 -120 -193 -293q-115 -167 -189 -260h375v-114z" />
    <glyph glyph-name="Eta" unicode="&#x397;" horiz-adv-x="736" 
d="M518 309h-298v-309h-132v697h132v-266h298v266h130v-697h-130v309z" />
    <glyph glyph-name="Theta" unicode="&#x398;" horiz-adv-x="770" 
d="M385 -14q-170 0 -249 76q-83 82 -83 293q0 209 83 286q44 39 102.5 56t146.5 17t147 -17t101 -56q83 -77 83 -286q0 -107 -20 -179t-63 -113.5t-102 -59t-146 -17.5zM194 353q0 -107 17 -159t55.5 -70.5t118.5 -18.5t118.5 18.5t55.5 70.5t17 159q0 85 -8 129.5t-31 69.5
q-22 26 -55 34.5t-97 8.5t-97 -8.5t-56 -34.5q-22 -25 -30 -69.5t-8 -129.5zM506 321h-243v92h243v-92z" />
    <glyph glyph-name="Iota" unicode="&#x399;" horiz-adv-x="308" 
d="M88 0v697h132v-697h-132z" />
    <glyph glyph-name="Kappa" unicode="&#x39a;" horiz-adv-x="662" 
d="M88 697h132v-697h-132v697zM675 0h-162q-97 159 -178 257q-79 97 -114 111q34 23 112 115q69 81 160 214h160q-89 -126 -159 -209q-71 -84 -104 -111q34 -23 112 -122q82 -103 173 -255z" />
    <glyph glyph-name="Lambda" unicode="&#x39b;" horiz-adv-x="648" 
d="M317 563q-95 -234 -192 -563h-139q106 345 255 697h169q125 -409 252 -697h-146q-116 278 -199 563z" />
    <glyph glyph-name="Mu" unicode="&#x39c;" horiz-adv-x="916" 
d="M464 251q84 221 193 446h171v-697h-129v519q-71 -155 -194 -455h-103q-118 304 -187 455v-519h-127v697h180q97 -198 196 -446z" />
    <glyph glyph-name="Nu" unicode="&#x39d;" horiz-adv-x="774" 
d="M554 697h131v-697h-161q-137 255 -307 525v-525h-129v697h173q149 -234 293 -503v503z" />
    <glyph glyph-name="Xi" unicode="&#x39e;" horiz-adv-x="598" 
d="M30 0v114h538v-114h-538zM568 697v-114h-538v114h538zM477 309h-357v113h357v-113z" />
    <glyph glyph-name="Omicron" unicode="&#x39f;" horiz-adv-x="770" 
d="M385 -14q-170 0 -249 76q-83 82 -83 293q0 209 83 286q44 39 102.5 56t146.5 17t147 -17t101 -56q83 -77 83 -286q0 -107 -20 -179t-63 -113.5t-102 -59t-146 -17.5zM194 353q0 -107 17 -159t55.5 -70.5t118.5 -18.5t118.5 18.5t55.5 70.5t17 159q0 85 -8 129.5t-31 69.5
q-22 26 -55 34.5t-97 8.5t-97 -8.5t-56 -34.5q-22 -25 -30 -69.5t-8 -129.5z" />
    <glyph glyph-name="Pi" unicode="&#x3a0;" horiz-adv-x="736" 
d="M518 583h-298v-583h-132v697h560v-697h-130v583z" />
    <glyph glyph-name="Rho" unicode="&#x3a1;" horiz-adv-x="673" 
d="M220 585v-245h194q86 0 86 119q0 126 -83 126h-197zM220 230v-230h-132v697h311q135 0 191 -57q55 -55 55 -182q0 -96 -50 -163q-50 -65 -141 -65h-234z" />
    <glyph glyph-name="Sigma" unicode="&#x3a3;" horiz-adv-x="622" 
d="M592 0h-572v26q95 123 220 320l-215 326v25h567v-114h-358l161 -236q-110 -165 -165 -233h362v-114z" />
    <glyph glyph-name="Tau" unicode="&#x3a4;" horiz-adv-x="609" 
d="M371 583v-583h-133v583h-235v114h603v-114h-235z" />
    <glyph glyph-name="Upsilon" unicode="&#x3a5;" horiz-adv-x="638" 
d="M-38 697h172q90 -112 194 -266q108 144 184 266h160q-127 -191 -281 -396v-301h-132v300q-182 257 -297 397z" />
    <glyph glyph-name="Phi" unicode="&#x3a6;" horiz-adv-x="799" 
d="M326 610v87h131v-87q169 -7 234 -68q65 -59 65 -192q0 -134 -65 -194q-66 -60 -234 -67v-89h-131v89q-166 7 -229 67q-61 60 -61 194q0 135 61 193q63 60 229 67zM622 349q0 87 -31 118q-30 32 -134 35v-305q104 4 134.5 35.5t30.5 116.5zM168 349q0 -85 30 -116t128 -36
v304q-99 -5 -129 -36q-29 -32 -29 -116z" />
    <glyph glyph-name="Chi" unicode="&#x3a7;" horiz-adv-x="674" 
d="M0 697h169l175 -230l160 230h162l-241 -342l252 -355h-164l-170 241l-185 -241h-161l265 352z" />
    <glyph glyph-name="Psi" unicode="&#x3a8;" horiz-adv-x="781" 
d="M29 697h135q0 -215 29 -285q29 -68 129 -72v357h131v-357q84 4 120 45q19 22 28 66q10 42 13 100q4 49 4 146h134q0 -266 -62 -364q-62 -97 -237 -105v-228h-131v227q-90 4 -143 28t-88 79q-33 55 -47 141q-14 85 -15 222z" />
    <glyph glyph-name="Omega" unicode="&#x3a9;" horiz-adv-x="798" 
d="M334 0h-319v118h158q-44 30 -70 105.5t-26 171.5q0 177 78 248q79 71 244 71q164 0 243 -71q78 -71 78 -248q0 -96 -26 -171.5t-70 -105.5h159v-118h-321v112q67 20 93 85t26 196q0 122 -35 162q-34 40 -147 40q-108 0 -146 -41q-37 -40 -37 -161q0 -130 26 -195t92 -85
v-113z" />
    <glyph glyph-name="Omega" unicode="&#x2126;" horiz-adv-x="798" 
d="M334 0h-319v118h158q-44 30 -70 105.5t-26 171.5q0 177 78 248q79 71 244 71q164 0 243 -71q78 -71 78 -248q0 -96 -26 -171.5t-70 -105.5h159v-118h-321v112q67 20 93 85t26 196q0 122 -35 162q-34 40 -147 40q-108 0 -146 -41q-37 -40 -37 -161q0 -130 26 -195t92 -85
v-113z" />
    <glyph glyph-name="Iotadieresis" unicode="&#x3aa;" horiz-adv-x="308" 
d="M88 0v697h132v-697h-132zM108 808q0 -38 -11.5 -49.5t-47.5 -11.5t-48 11.5t-12 49.5q0 35 12 45.5t48 10.5t47.5 -10.5t11.5 -45.5zM262 864q36 0 47.5 -10.5t11.5 -45.5q0 -38 -11.5 -49.5t-47.5 -11.5t-48 11.5t-12 49.5q0 35 11.5 45.5t48.5 10.5z" />
    <glyph glyph-name="Upsilondieresis" unicode="&#x3ab;" horiz-adv-x="638" 
d="M-38 697h172q90 -112 194 -266q108 144 184 266h160q-127 -191 -281 -396v-301h-132v300q-182 257 -297 397zM280 808q0 -38 -11.5 -49.5t-47.5 -11.5t-48 11.5t-12 49.5q0 35 12 45.5t48 10.5t47.5 -10.5t11.5 -45.5zM434 864q36 0 47.5 -10.5t11.5 -45.5
q0 -38 -11.5 -49.5t-47.5 -11.5t-48 11.5t-12 49.5q0 35 11.5 45.5t48.5 10.5z" />
    <glyph glyph-name="alphatonos" unicode="&#x3ac;" horiz-adv-x="685" 
d="M527 509h123q-34 -129 -111 -294q17 -58 43.5 -82t74.5 -24l-18 -123q-69 0 -110 28t-62 89q-34 -66 -77 -92q-41 -25 -112 -25q-111 0 -169 60t-58 211q0 78 15.5 131t46.5 82t70.5 41t94.5 12q94 0 141 -35q45 -33 68 -118q26 66 40 139zM284 86q43 0 71 26
q27 25 66 107q-16 68 -24 98q-9 37 -24 63q-23 44 -89 44q-62 0 -84 -33q-21 -32 -21 -136q0 -101 22 -135t83 -34zM283 560l-22 162h124l-33 -162h-69z" />
    <glyph glyph-name="epsilontonos" unicode="&#x3ad;" horiz-adv-x="503" 
d="M290 524q97 0 186 -20l-27 -108q-67 22 -159 22q-62 0 -84.5 -11t-22.5 -41q0 -29 22.5 -40t77.5 -11h78v-93h-78q-60 0 -84.5 -14t-24.5 -49q0 -39 24.5 -53t94.5 -14q91 0 159 24l24 -111q-82 -19 -188 -19q-136 0 -191 31t-55 116q0 64 30.5 98t98.5 38
q-65 6 -91.5 33.5t-26.5 84.5q0 74 52 105q53 32 185 32zM243 560l-22 162h124l-33 -162h-69z" />
    <glyph glyph-name="etatonos" unicode="&#x3ae;" horiz-adv-x="615" 
d="M213 447q77 77 170 77q166 0 166 -234v-482h-124v470q0 71 -18.5 98.5t-65.5 27.5q-62 0 -115 -53v-351h-125v346q0 42 -14.5 56.5t-59.5 14.5l15 107q90 0 123 -16q35 -15 48 -61zM288 560l-22 162h124l-33 -162h-69z" />
    <glyph glyph-name="iotatonos" unicode="&#x3af;" horiz-adv-x="281" 
d="M69 509h124v-343q0 -33 15.5 -45t57.5 -12l-18 -123q-110 0 -144 43q-35 44 -35 165v315zM96 560l-22 162h124l-33 -162h-69z" />
    <glyph glyph-name="upsilondieresistonos" unicode="&#x3b0;" horiz-adv-x="605" 
d="M282 560l-11 162h106l-26 -162h-69zM235 626q0 -38 -12 -50t-48 -12t-47.5 12t-11.5 50q0 35 11.5 45t47.5 10t48 -10.5t12 -44.5zM468 681q36 0 47.5 -10t11.5 -45q0 -38 -12.5 -50t-46.5 -12q-36 0 -48 12t-12 50q0 35 11.5 45t48.5 10zM27 403l22 121
q98 0 135.5 -21.5t37.5 -78.5v-186q0 -86 18 -114q20 -27 81 -27q58 0 80 28t22 111v273h123v-286q0 -131 -54 -184q-55 -53 -172 -53q-126 0 -174 51q-47 52 -47 188v129q0 30 -14 39.5t-58 9.5z" />
    <glyph glyph-name="alpha" unicode="&#x3b1;" horiz-adv-x="685" 
d="M527 509h123q-34 -129 -111 -294q17 -58 43.5 -82t74.5 -24l-18 -123q-69 0 -110 28t-62 89q-34 -66 -77 -92q-41 -25 -112 -25q-111 0 -169 60t-58 211q0 78 15.5 131t46.5 82t70.5 41t94.5 12q94 0 141 -35q45 -33 68 -118q26 66 40 139zM284 86q43 0 71 26
q27 25 66 107q-16 68 -24 98q-9 37 -24 63q-23 44 -89 44q-62 0 -84 -33q-21 -32 -21 -136q0 -101 22 -135t83 -34z" />
    <glyph glyph-name="beta" unicode="&#x3b2;" horiz-adv-x="640" 
d="M327 -14q-75 0 -133 16v-194h-125v719q0 97 60.5 142t182.5 45q137 0 193 -38q57 -38 57 -133q0 -71 -30 -108t-102 -45q92 -5 125 -54q34 -49 34 -139q0 -113 -61.5 -162t-200.5 -49zM194 510v-399q62 -18 139 -18q68 0 93 26.5t25 95.5q0 64 -27.5 92t-95.5 28h-48v103
h45q60 0 83 19t23 68q0 44 -25.5 61t-94.5 17q-62 0 -89.5 -23t-27.5 -70z" />
    <glyph glyph-name="gamma" unicode="&#x3b3;" horiz-adv-x="503" 
d="M184 -45q-91 326 -187 554h129q67 -168 126 -386q86 229 126 386h126q-68 -233 -204 -554q12 -71 9 -147h-153q1 42 28 147z" />
    <glyph glyph-name="delta" unicode="&#x3b4;" horiz-adv-x="597" 
d="M169 439q-91 30 -91 123q0 80 56.5 116t173.5 36q126 0 219 -29l-31 -111q-94 35 -196 35q-50 0 -70 -10.5t-20 -34.5q0 -22 19 -32q17 -9 80 -26q138 -34 187 -94q49 -58 49 -182q0 -127 -61 -185.5t-188 -58.5q-128 0 -186.5 53.5t-58.5 177.5q0 167 118 222zM418 225
q0 77 -28 115q-27 40 -108 56q-58 -26 -81 -63q-23 -38 -23 -108q0 -77 27 -107.5t91 -30.5q65 0 93 28q29 29 29 110z" />
    <glyph glyph-name="epsilon" unicode="&#x3b5;" horiz-adv-x="503" 
d="M290 524q97 0 186 -20l-27 -108q-67 22 -159 22q-62 0 -84.5 -11t-22.5 -41q0 -29 22.5 -40t77.5 -11h78v-93h-78q-60 0 -84.5 -14t-24.5 -49q0 -39 24.5 -53t94.5 -14q91 0 159 24l24 -111q-82 -19 -188 -19q-136 0 -191 31t-55 116q0 64 30.5 98t98.5 38
q-65 6 -91.5 33.5t-26.5 84.5q0 74 52 105q53 32 185 32z" />
    <glyph glyph-name="zeta" unicode="&#x3b6;" horiz-adv-x="527" 
d="M349 582h-304v115h472v-108q-161 -132 -220 -190q-67 -64 -87 -104q-19 -37 -19 -91q0 -53 29.5 -74t108.5 -26q78 -6 111.5 -31t33.5 -83q0 -84 -69 -182h-128q58 92 58 137q0 34 -25 46q-27 12 -103 16q-78 4 -116 42q-36 37 -36 135q0 70 21 118q20 46 80 109
q62 64 193 171z" />
    <glyph glyph-name="eta" unicode="&#x3b7;" horiz-adv-x="615" 
d="M213 447q77 77 170 77q166 0 166 -234v-482h-124v470q0 71 -18.5 98.5t-65.5 27.5q-62 0 -115 -53v-351h-125v346q0 42 -14.5 56.5t-59.5 14.5l15 107q90 0 123 -16q35 -15 48 -61z" />
    <glyph glyph-name="theta" unicode="&#x3b8;" horiz-adv-x="626" 
d="M313 -14q-136 0 -199 82t-63 290q0 138 30 217q30 78 84 108.5t148 30.5q91 0 146 -30q116 -62 116 -326q-2 -142 -31 -224t-83.5 -115t-147.5 -33zM443 321h-260q1 -130 28 -173q28 -43 102 -43t101 43q27 42 29 173zM183 413h260q-5 83 -17.5 120.5t-36.5 50t-76 13.5
q-40 -1 -60.5 -6.5t-36.5 -25.5t-22.5 -54.5t-10.5 -97.5z" />
    <glyph glyph-name="iota" unicode="&#x3b9;" horiz-adv-x="281" 
d="M69 509h124v-343q0 -33 15.5 -45t57.5 -12l-18 -123q-110 0 -144 43q-35 44 -35 165v315z" />
    <glyph glyph-name="kappa" unicode="&#x3ba;" horiz-adv-x="551" 
d="M69 509h124v-234q93 83 198 234h146q-76 -106 -189 -226q31 -30 91 -108q58 -74 121 -175h-146q-117 170 -146 204q-40 -38 -75 -63v-141h-124v509z" />
    <glyph glyph-name="lambda" unicode="&#x3bb;" horiz-adv-x="504" 
d="M188 514q-21 60 -40 74q-17 16 -66 16l12 110q108 0 151 -27q45 -26 71 -112q99 -341 191 -575h-132q-67 172 -122 381q-90 -211 -131 -381h-125q63 208 191 514z" />
    <glyph glyph-name="nu" unicode="&#x3bd;" horiz-adv-x="503" 
d="M252 125q84 222 126 384h126q-68 -229 -183 -509h-153q-82 294 -171 495l129 30q72 -179 126 -400z" />
    <glyph glyph-name="xi" unicode="&#x3be;" horiz-adv-x="537" 
d="M193 172q0 -38 25 -51q23 -12 111 -17q77 -4 113 -29t36 -81q0 -88 -69 -186h-128q58 92 58 142q0 33 -23 44q-21 8 -105 13q-83 4 -119.5 33.5t-36.5 97.5q0 63 45.5 104.5t143.5 74.5q-85 0 -120 19.5t-35 69.5q0 55 46 89t182 87h-274v115h479v-108q-123 -45 -182 -71
t-79 -43.5t-21 -38.5q1 -11 3 -17t10 -12t19 -8t36 -4.5t55.5 -3t82.5 -1.5v-84q-155 -36 -204 -63.5t-49 -70.5z" />
    <glyph glyph-name="omicron" unicode="&#x3bf;" 
d="M293 -14q-126 0 -185 59q-57 60 -57 212q0 150 58 208q59 59 184 59q127 0 186 -59q58 -58 58 -208q0 -153 -58 -212q-59 -59 -186 -59zM293 424q-68 0 -91 -32t-23 -137q0 -102 23 -136q24 -33 91 -33q68 0 92 33t24 136q-2 76 -12 110t-32 46t-72 13z" />
    <glyph glyph-name="pi" unicode="&#x3c0;" horiz-adv-x="645" 
d="M407 162v234h-164v-396h-124v396h-104v113h615v-113h-99v-226q0 -33 12.5 -48t42.5 -20l-28 -117q-87 6 -119 43q-32 38 -32 134z" />
    <glyph glyph-name="rho" unicode="&#x3c1;" 
d="M315 -14q-62 0 -122 29v-207h-124v452q0 148 57 206q58 58 177 58q125 0 179 -59t54 -210q0 -147 -56 -209q-56 -60 -165 -60zM292 417q-57 0 -78 -32q-21 -31 -21 -132v-113q0 -21 28.5 -35t71.5 -14q66 0 91 34t25 127q0 102 -25 133q-24 32 -92 32z" />
    <glyph glyph-name="sigma" unicode="&#x3c3;" horiz-adv-x="641" 
d="M51 257q0 150 58 208q59 59 184 59q5 0 115 -8q97 -7 223 -7v-113h-136q42 -63 42 -157q0 -139 -59 -196q-58 -57 -185 -57q-126 0 -185 59q-57 60 -57 212zM293 424q-68 0 -91 -32t-23 -137q0 -102 23 -136q24 -33 91 -33q68 0 92 33t24 136q-2 76 -12 110t-32 46
t-72 13z" />
    <glyph glyph-name="tau" unicode="&#x3c4;" horiz-adv-x="501" 
d="M180 158v238h-171v113h484v-113h-189v-230q0 -32 16 -45.5t59 -17.5q-18 -91 -23 -117q-94 1 -136 37q-40 34 -40 135z" />
    <glyph glyph-name="upsilon" unicode="&#x3c5;" horiz-adv-x="615" 
d="M27 403l22 121q98 0 135.5 -21.5t37.5 -78.5v-186q0 -86 18 -114q20 -27 81 -27q58 0 80 28t22 111v273h123v-286q0 -131 -54 -184q-55 -53 -172 -53q-126 0 -174 51q-47 52 -47 188v129q0 30 -14 39.5t-58 9.5z" />
    <glyph glyph-name="phi" unicode="&#x3c6;" horiz-adv-x="810" 
d="M467 -12v-180h-124v180q-156 7 -225 67q-67 60 -67 202q0 140 67 198q69 60 225 67v187h124v-187q156 -7 225 -67q67 -58 67 -198q0 -141 -67 -201q-68 -61 -225 -68zM179 255q0 -93 34 -127q36 -36 130 -40v333q-96 -4 -131 -38q-33 -33 -33 -128zM631 255q0 94 -34 127
q-35 35 -130 39v-333q93 4 129 40q35 35 35 127z" />
    <glyph glyph-name="chi" unicode="&#x3c7;" horiz-adv-x="531" 
d="M340 164q75 -178 115 -226q17 -20 61 -20l-22 -121q-76 -7 -125 42q-11 12 -30 45q-15 26 -31 60l-38 86q-89 -163 -124 -222h-138q88 140 201 350q-72 160 -114 219q-20 26 -68 26l22 121q76 5 124 -41q12 -11 31 -44q13 -21 32 -61l15 -32q15 -31 26 -54
q61 119 102 217h138q-53 -108 -177 -345z" />
    <glyph glyph-name="psi" unicode="&#x3c8;" horiz-adv-x="820" 
d="M769 275q0 -153 -67 -216q-67 -64 -230 -71v-180h-124v180q-162 7 -230 71q-67 63 -67 216q0 167 30 246l125 -25q-29 -72 -29 -216q0 -107 34 -142q34 -36 137 -42v613h124v-612q102 4 137 41q34 35 34 142q0 144 -29 216l124 25q31 -80 31 -246z" />
    <glyph glyph-name="omega" unicode="&#x3c9;" horiz-adv-x="833" 
d="M361 393h113v-162q0 -67 18 -93.5t66 -26.5q52 0 75 32q23 34 23 132q0 149 -29 221l124 25q31 -80 31 -246q0 -153 -47.5 -221t-153.5 -68q-79 0 -118 29.5t-46 98.5q-7 -69 -46.5 -98.5t-118.5 -29.5q-106 0 -153.5 68t-47.5 221q0 166 31 246l124 -25
q-29 -72 -29 -221q0 -98 23 -132q23 -32 75 -32q48 0 67 27t19 93v162z" />
    <glyph glyph-name="iotadieresis" unicode="&#x3ca;" horiz-adv-x="281" 
d="M89 626q0 -38 -12 -50t-48 -12t-47.5 12t-11.5 50q0 35 11.5 45t47.5 10t48 -10.5t12 -44.5zM243 681q36 0 47.5 -10t11.5 -45q0 -38 -12 -50t-47 -12q-37 0 -48.5 12t-11.5 50q0 35 11.5 45t48.5 10zM69 509h124v-343q0 -33 15.5 -45t57.5 -12l-18 -123q-110 0 -144 43
q-35 44 -35 165v315z" />
    <glyph glyph-name="upsilondieresis" unicode="&#x3cb;" horiz-adv-x="615" 
d="M27 403l22 121q98 0 135.5 -21.5t37.5 -78.5v-186q0 -86 18 -114q20 -27 81 -27q58 0 80 28t22 111v273h123v-286q0 -131 -54 -184q-55 -53 -172 -53q-126 0 -174 51q-47 52 -47 188v129q0 30 -14 39.5t-58 9.5zM263 626q0 -38 -12 -50t-48 -12t-47.5 12t-11.5 50
q0 35 11.5 45t47.5 10t48 -10.5t12 -44.5zM417 681q36 0 47.5 -10t11.5 -45q0 -38 -12 -50t-47 -12q-37 0 -48.5 12t-11.5 50q0 35 11.5 45t48.5 10z" />
    <glyph glyph-name="omicrontonos" unicode="&#x3cc;" 
d="M293 -14q-126 0 -185 59q-57 60 -57 212q0 150 58 208q59 59 184 59q127 0 186 -59q58 -58 58 -208q0 -153 -58 -212q-59 -59 -186 -59zM293 424q-68 0 -91 -32t-23 -137q0 -102 23 -136q24 -33 91 -33q68 0 92 33t24 136q-2 76 -12 110t-32 46t-72 13zM254 560l-22 162
h124l-33 -162h-69z" />
    <glyph glyph-name="upsilontonos" unicode="&#x3cd;" horiz-adv-x="615" 
d="M27 403l22 121q98 0 135.5 -21.5t37.5 -78.5v-186q0 -86 18 -114q20 -27 81 -27q58 0 80 28t22 111v273h123v-286q0 -131 -54 -184q-55 -53 -172 -53q-126 0 -174 51q-47 52 -47 188v129q0 30 -14 39.5t-58 9.5zM276 560l-22 162h124l-33 -162h-69z" />
    <glyph glyph-name="omegatonos" unicode="&#x3ce;" horiz-adv-x="833" 
d="M361 393h113v-162q0 -67 18 -93.5t66 -26.5q52 0 75 32q23 34 23 132q0 149 -29 221l124 25q31 -80 31 -246q0 -153 -47.5 -221t-153.5 -68q-79 0 -118 29.5t-46 98.5q-7 -69 -46.5 -98.5t-118.5 -29.5q-106 0 -153.5 68t-47.5 221q0 166 31 246l124 -25
q-29 -72 -29 -221q0 -98 23 -132q23 -32 75 -32q48 0 67 27t19 93v162zM376 560l-22 162h124l-33 -162h-69z" />
    <glyph glyph-name="afii10023" unicode="&#x401;" horiz-adv-x="620" 
d="M88 0v697h506v-114h-374v-161h267v-113h-267v-195h374v-114h-506zM288 808q0 -38 -11.5 -49.5t-47.5 -11.5t-48 11.5t-12 49.5q0 35 12 45.5t48 10.5t47.5 -10.5t11.5 -45.5zM442 864q36 0 47.5 -10.5t11.5 -45.5q0 -38 -11.5 -49.5t-47.5 -11.5t-48 11.5t-12 49.5
q0 35 11.5 45.5t48.5 10.5z" />
    <glyph glyph-name="afii10051" unicode="&#x402;" horiz-adv-x="754" 
d="M606 697v-114h-235v-134q67 35 140 35q49 0 82 -11.5t59 -42t38 -87.5t12 -145q0 -298 -159 -380l-87 85q28 15 45 31t34 47q36 61 36 213q0 142 -44 166q-19 12 -59 12t-68 -12t-29 -30v-330h-133v583h-235v114h603z" />
    <glyph glyph-name="afii10052" unicode="&#x403;" horiz-adv-x="551" 
d="M220 583v-583h-132v697h471v-114h-339zM495 876l-158 -129h-108l129 129h137z" />
    <glyph glyph-name="afii10053" unicode="&#x404;" horiz-adv-x="616" 
d="M198 422h297v-112h-298q6 -127 57 -167q48 -36 154 -36q93 0 153 22l29 -118q-88 -25 -205 -25q-173 0 -253 81q-79 82 -79 288q0 210 83 287q44 39 102 55.5t147 16.5q109 0 205 -26l-29 -116q-60 22 -153 22q-58 0 -90 -6t-59 -23q-51 -33 -61 -143z" />
    <glyph glyph-name="afii10054" unicode="&#x405;" horiz-adv-x="622" 
d="M346 714q120 0 213 -31l-29 -114q-69 25 -184 25q-85 0 -121 -20.5t-36 -70.5q0 -41 30 -61q31 -19 123 -28q123 -13 178.5 -62t55.5 -147q0 -118 -71.5 -168.5t-229.5 -50.5q-127 0 -217 31l29 114q78 -25 186 -25q87 0 124 20.5t37 71.5q0 44 -33 66q-33 24 -126 31
q-121 12 -173.5 55.5t-52.5 136.5q0 119 72.5 173t224.5 54z" />
    <glyph glyph-name="afii10055" unicode="&#x406;" horiz-adv-x="308" 
d="M88 0v697h132v-697h-132z" />
    <glyph glyph-name="afii10056" unicode="&#x407;" horiz-adv-x="308" 
d="M106 808q0 -38 -11.5 -49.5t-47.5 -11.5t-48 11.5t-12 49.5q0 35 12 45.5t48 10.5t47.5 -10.5t11.5 -45.5zM260 864q36 0 47.5 -10.5t11.5 -45.5q0 -38 -11.5 -49.5t-47.5 -11.5t-48 11.5t-12 49.5q0 35 11.5 45.5t48.5 10.5zM88 0v697h132v-697h-132z" />
    <glyph glyph-name="afii10057" unicode="&#x408;" horiz-adv-x="461" 
d="M242 697h133l1 -505q0 -206 -212 -206q-84 0 -158 27l26 118q53 -21 119 -21q91 0 91 99v488z" />
    <glyph glyph-name="afii10058" unicode="&#x409;" horiz-adv-x="1068" 
d="M810 340h-189v-229h192q75 0 75 113q0 116 -78 116zM621 447h223q94 0 140.5 -59t46.5 -164q0 -224 -181 -224h-361v583h-169q-19 -280 -86 -438.5t-181 -158.5l-24 125q146 0 168 586h424v-250z" />
    <glyph glyph-name="afii10059" unicode="&#x40a;" horiz-adv-x="1076" 
d="M498 333h-278v-333h-132v697h132v-253h278v253h131v-254h223q94 0 140.5 -58.5t46.5 -163.5q0 -221 -181 -221h-360v333zM818 333h-189v-222h192q75 0 75 110q0 112 -78 112z" />
    <glyph glyph-name="afii10060" unicode="&#x40b;" horiz-adv-x="760" 
d="M511 484q63 0 101 -18q83 -37 83 -213v-253h-124v243q0 77 -24 103t-79 26q-40 0 -68 -12t-29 -30v-330h-133v583h-235v114h603v-114h-235v-134q67 35 140 35z" />
    <glyph glyph-name="afii10061" unicode="&#x40c;" horiz-adv-x="664" 
d="M670 0h-157q-51 135 -94 202q-46 72 -89 97q-44 26 -110 32v-331h-132v697h132v-336q55 53 126 140q73 87 147 196h160q-178 -251 -255 -313q55 -18 96 -58q25 -23 53 -65q56 -88 123 -261zM543 876l-158 -129h-108l129 129h137z" />
    <glyph glyph-name="afii10062" unicode="&#x40e;" horiz-adv-x="584" 
d="M232 176q-36 102 -111 261q-75 160 -136 260h157q103 -186 173 -377q114 232 164 377h149q-68 -173 -163 -364q-93 -188 -182 -333h-166q58 77 115 176zM169 871h85q0 -33 15 -45.5t51 -12.5t51.5 13t15.5 45h80q0 -137 -150 -137q-148 0 -148 137z" />
    <glyph glyph-name="afii10145" unicode="&#x40f;" horiz-adv-x="736" 
d="M649 697v-697h-213l-21 -188h-88l-21 188h-217v697h132v-578h298v578h130z" />
    <glyph glyph-name="afii10017" unicode="&#x410;" horiz-adv-x="682" 
d="M701 0h-146q-52 130 -67 174h-305l-54 -174h-139q112 351 253 697h207q125 -397 251 -697zM353 585h-27q-51 -131 -108 -298h232q-52 147 -97 298z" />
    <glyph glyph-name="afii10018" unicode="&#x411;" horiz-adv-x="711" 
d="M220 111h220q67 0 67 98q0 103 -71 103h-216v-201zM88 697h502v-114h-370v-164h243q186 0 186 -212q0 -108 -45 -157.5t-135 -49.5h-381v697z" />
    <glyph glyph-name="afii10019" unicode="&#x412;" horiz-adv-x="712" 
d="M220 111h220q67 0 67 98q0 103 -71 103h-216v-201zM220 419h214q60 0 60 84q0 43 -13.5 62.5t-46.5 19.5h-214v-166zM489 369q90 -4 125 -46t35 -132q0 -191 -180 -191h-381v697h375q95 0 133 -40t38 -127q0 -77 -29 -115q-29 -39 -116 -46z" />
    <glyph glyph-name="afii10020" unicode="&#x413;" horiz-adv-x="544" 
d="M220 583v-583h-132v697h471v-114h-339z" />
    <glyph glyph-name="afii10021" unicode="&#x414;" horiz-adv-x="802" 
d="M218 697h460v-578h124l-21 -273h-116v154h-523v-154h-116q-1 13 -2.5 33t-4 50l-4.5 54q-2 23 -4.5 53.5t-4 50l-2.5 32.5h110q90 253 104 578zM257 119h290v464h-208q-20 -272 -82 -464z" />
    <glyph glyph-name="afii10022" unicode="&#x415;" horiz-adv-x="620" 
d="M88 0v697h506v-114h-374v-161h267v-113h-267v-195h374v-114h-506z" />
    <glyph glyph-name="afii10024" unicode="&#x416;" horiz-adv-x="955" 
d="M146 0h-152q76 220 138 299q30 38 53.5 55t58.5 30q-62 53 -235 313h156q131 -209 246 -332v332h132v-332q117 128 247 332h155q-166 -251 -234 -313q43 -16 75 -43q79 -68 175 -341h-153q-48 135 -86 202q-41 71 -80 97q-40 27 -99 33v-332h-132v332q-89 -9 -144 -75
q-54 -65 -121 -257z" />
    <glyph glyph-name="afii10025" unicode="&#x417;" horiz-adv-x="642" 
d="M416 369q90 -4 126.5 -47.5t36.5 -133.5q0 -110 -68 -156t-222 -46q-129 0 -239 25l25 115q73 -21 188 -21q99 0 136 22t37 79t-29.5 80.5t-99.5 23.5h-114v112h111q67 0 93 19t26 70q0 49 -33 67q-31 18 -127 18q-111 0 -183 -22l-26 114q124 26 235 26q150 0 212 -41
t62 -137q0 -81 -31.5 -120t-115.5 -47z" />
    <glyph glyph-name="afii10026" unicode="&#x418;" horiz-adv-x="774" 
d="M526 697h159v-697h-129v504q-156 -287 -295 -504h-173v697h130v-526q173 277 308 526z" />
    <glyph glyph-name="afii10027" unicode="&#x419;" horiz-adv-x="774" 
d="M526 697h159v-697h-129v504q-156 -287 -295 -504h-173v697h130v-526q173 277 308 526zM238 871h85q0 -33 15 -45.5t51 -12.5t51.5 13t15.5 45h80q0 -137 -150 -137q-148 0 -148 137z" />
    <glyph glyph-name="afii10028" unicode="&#x41a;" horiz-adv-x="664" 
d="M670 0h-157q-51 135 -94 202q-46 72 -89 97q-44 26 -110 32v-331h-132v697h132v-336q55 53 126 140q73 87 147 196h160q-178 -251 -255 -313q55 -18 96 -58q25 -23 53 -65q56 -88 123 -261z" />
    <glyph glyph-name="afii10029" unicode="&#x41b;" horiz-adv-x="728" 
d="M510 0v583h-190q-19 -280 -86 -438.5t-181 -158.5l-24 125q146 0 168 586h443v-697h-130z" />
    <glyph glyph-name="afii10030" unicode="&#x41c;" horiz-adv-x="916" 
d="M464 251q84 221 193 446h171v-697h-129v519q-71 -155 -194 -455h-103q-135 342 -187 455v-519h-127v697h180q97 -198 196 -446z" />
    <glyph glyph-name="afii10031" unicode="&#x41d;" horiz-adv-x="736" 
d="M518 309h-298v-309h-132v697h132v-266h298v266h130v-697h-130v309z" />
    <glyph glyph-name="afii10032" unicode="&#x41e;" horiz-adv-x="770" 
d="M385 -14q-170 0 -249 76q-83 82 -83 293q0 209 83 286q44 39 102.5 56t146.5 17t147 -17t101 -56q83 -77 83 -286q0 -107 -20 -179t-63 -113.5t-102 -59t-146 -17.5zM194 353q0 -107 17 -159t55.5 -70.5t118.5 -18.5t118.5 18.5t55.5 70.5t17 159q0 85 -8 129.5t-31 69.5
q-22 26 -55 34.5t-97 8.5t-97 -8.5t-56 -34.5q-22 -25 -30 -69.5t-8 -129.5z" />
    <glyph glyph-name="afii10033" unicode="&#x41f;" horiz-adv-x="736" 
d="M518 583h-298v-583h-132v697h560v-697h-130v583z" />
    <glyph glyph-name="afii10034" unicode="&#x420;" horiz-adv-x="673" 
d="M220 585v-245h194q86 0 86 119q0 126 -83 126h-197zM220 230v-230h-132v697h311q135 0 191 -57q55 -55 55 -182q0 -96 -50 -163q-50 -65 -141 -65h-234z" />
    <glyph glyph-name="afii10035" unicode="&#x421;" horiz-adv-x="592" 
d="M53 355q0 209 81 286q42 40 99.5 56.5t146.5 16.5q104 0 200 -26l-29 -116q-60 22 -148 22q-66 0 -100 -8t-61 -32q-26 -24 -37 -71t-11 -129q0 -156 48 -204q26 -25 61 -34t100 -9q88 0 148 22l29 -118q-88 -25 -200 -25q-114 0 -184 32q-143 68 -143 337z" />
    <glyph glyph-name="afii10036" unicode="&#x422;" horiz-adv-x="609" 
d="M371 583v-583h-133v583h-235v114h603v-114h-235z" />
    <glyph glyph-name="afii10037" unicode="&#x423;" horiz-adv-x="613" 
d="M283 0h-166q68 91 116 177q-39 107 -112 261q-76 160 -136 259h157q103 -186 173 -377q114 232 164 377h149q-68 -173 -163 -364q-93 -188 -182 -333z" />
    <glyph glyph-name="afii10038" unicode="&#x424;" horiz-adv-x="799" 
d="M326 610v87h131v-87q169 -7 234 -68q65 -59 65 -192q0 -134 -65 -194q-66 -60 -234 -67v-89h-131v89q-166 7 -229 67q-61 60 -61 194q0 135 61 193q63 60 229 67zM622 349q0 87 -31 118q-30 32 -134 35v-305q104 4 134.5 35.5t30.5 116.5zM168 349q0 -85 30 -116t128 -36
v304q-99 -5 -129 -36q-29 -32 -29 -116z" />
    <glyph glyph-name="afii10039" unicode="&#x425;" horiz-adv-x="674" 
d="M0 697h169l175 -230l160 230h162l-241 -342l252 -355h-164l-170 241l-185 -241h-161l265 352z" />
    <glyph glyph-name="afii10040" unicode="&#x426;" horiz-adv-x="773" 
d="M88 697h132v-578h298v578h130v-578h125l-22 -273h-115v154h-548v697z" />
    <glyph glyph-name="afii10041" unicode="&#x427;" horiz-adv-x="667" 
d="M277 192q-118 0 -181 46q-71 53 -71 199v260h132v-251q0 -80 31 -105q32 -26 115 -26q67 0 105.5 17t38.5 47v318h132v-697h-132v224q-56 -32 -170 -32z" />
    <glyph glyph-name="afii10042" unicode="&#x428;" horiz-adv-x="974" 
d="M755 697h131v-697h-798v697h132v-578h202v578h131v-578h202v578z" />
    <glyph glyph-name="afii10043" unicode="&#x429;" horiz-adv-x="1010" 
d="M88 697h132v-578h202v578h131v-578h202v578h131v-578h124l-21 -273h-116v154h-785v697z" />
    <glyph glyph-name="afii10044" unicode="&#x42a;" horiz-adv-x="721" 
d="M122 0v583h-105v114h237v-248h243q94 0 140.5 -59.5t46.5 -165.5q0 -224 -181 -224h-381zM463 339h-209v-228h212q75 0 75 113q0 115 -78 115z" />
    <glyph glyph-name="afii10045" unicode="&#x42b;" horiz-adv-x="935" 
d="M429 339h-209v-228h212q75 0 75 113q0 115 -78 115zM88 0v697h132v-248h243q91 0 139 -61.5t48 -163.5q0 -224 -181 -224h-381zM715 0v697h132v-697h-132z" />
    <glyph glyph-name="afii10046" unicode="&#x42c;" horiz-adv-x="687" 
d="M429 339h-209v-228h212q75 0 75 113q0 115 -78 115zM88 0v697h132v-248h243q91 0 139 -61.5t48 -163.5q0 -224 -181 -224h-381z" />
    <glyph glyph-name="afii10047" unicode="&#x42d;" horiz-adv-x="616" 
d="M419 310h-298v112h297q-10 110 -61 143q-27 17 -59 23t-90 6q-93 0 -153 -22l-29 116q96 26 205 26q89 0 147.5 -16.5t100.5 -55.5q84 -75 84 -287q0 -205 -80 -288q-79 -81 -252 -81q-117 0 -205 25l29 118q60 -22 153 -22q106 0 154 36q51 40 57 167z" />
    <glyph glyph-name="afii10048" unicode="&#x42e;" horiz-adv-x="966" 
d="M643 714q93 0 148 -30q122 -63 122 -326q0 -106 -17.5 -178.5t-53 -115t-83.5 -60.5t-116 -18q-129 0 -196 73q-66 72 -74 250h-153v-309h-132v697h132v-266h154q11 158 77 220q67 63 192 63zM643 105q80 0 107 49q27 50 27 204q0 81 -6 127t-22.5 71.5t-39.5 33t-66 7.5
q-33 0 -53 -5t-37.5 -18.5t-26.5 -40.5t-13.5 -69t-4.5 -106q2 -108 14.5 -160.5t39 -71.5t81.5 -21z" />
    <glyph glyph-name="afii10049" unicode="&#x42f;" horiz-adv-x="706" 
d="M289 375h197v210h-200q-78 0 -78 -108q0 -102 81 -102zM244 305q-183 7 -183 189q0 203 194 203h363v-697h-132v266h-111q-46 0 -74 -19q-60 -39 -122 -247h-152q42 119 79 189q34 63 64 87q27 21 74 29z" />
    <glyph glyph-name="afii10065" unicode="&#x430;" horiz-adv-x="560" 
d="M494 326v-300q-101 -40 -230 -40q-122 0 -169 35q-46 36 -46 135q0 100 49 133q49 34 151 34q56 0 126 -14q0 67 -24 88t-103 21q-88 0 -154 -23l-23 102q102 27 203 27q116 0 168 -44q52 -43 52 -154zM375 98v127q-42 9 -101 9q-58 0 -76.5 -13.5t-18.5 -59.5
q0 -51 18 -66q19 -14 76 -14q51 0 102 17z" />
    <glyph glyph-name="afii10066" unicode="&#x431;" horiz-adv-x="575" 
d="M282 88q49 1 70 11t31.5 42t12.5 104q0 89 -23 120q-23 30 -84 30q-66 0 -88 -31q-21 -30 -21 -119q0 -88 23 -122.5t79 -34.5zM179 442q43 60 138 60q105 0 155 -56q51 -55 51 -199q0 -148 -57 -205q-58 -56 -187 -56q-111 0 -166 59q-59 66 -59 249q0 190 35 280
q16 42 49 69q32 24 68.5 35t97.5 16q122 11 191 39v-110q-61 -28 -185 -35q-121 -7 -131 -146z" />
    <glyph glyph-name="afii10067" unicode="&#x432;" horiz-adv-x="580" 
d="M193 96h152q29 0 42 13.5t13 44.5q0 66 -58 66h-149v-124zM193 311h147q26 0 37.5 12.5t11.5 39.5q0 29 -11 39.5t-38 10.5h-147v-102zM402 270q70 -2 99 -34t29 -97q0 -139 -150 -139h-311v509h307q78 0 110 -29.5t32 -92.5q0 -57 -25 -84.5t-91 -32.5z" />
    <glyph glyph-name="afii10068" unicode="&#x433;" horiz-adv-x="424" 
d="M423 401h-230v-401h-124v509h354v-108z" />
    <glyph glyph-name="afii10069" unicode="&#x434;" horiz-adv-x="649" 
d="M166 509h380v-401h98l-29 -249h-99v141h-384v-141h-100l-28 249h91q61 211 71 401zM422 108v293h-143q-11 -128 -54 -293h197z" />
    <glyph glyph-name="afii10070" unicode="&#x435;" horiz-adv-x="552" 
d="M288 524q66 0 106 -13t69 -45q56 -62 50 -244h-332q2 -78 31 -105q31 -26 101 -26q73 0 143 21l20 -98q-83 -28 -178 -28q-119 0 -183 61t-64 210q0 143 58 205t179 62zM293 426q-58 0 -81.5 -23t-29.5 -86h209q-3 65 -23 87q-19 22 -75 22z" />
    <glyph glyph-name="afii10072" unicode="&#x436;" horiz-adv-x="799" 
d="M144 0h-142q47 106 85 166t60 79q23 18 52 30q-25 20 -76.5 84.5t-108.5 149.5h143q110 -159 180 -242v242h124v-242q72 84 181 242h143q-128 -185 -185 -234q41 -17 78 -60q46 -52 118 -215h-141q-56 123 -101 172q-46 50 -93 64v-236h-124v236q-47 -14 -93 -64
t-100 -172z" />
    <glyph glyph-name="afii10073" unicode="&#x437;" horiz-adv-x="516" 
d="M333 269q71 -4 103 -37t32 -97q0 -85 -57 -117q-56 -32 -192 -32q-106 0 -188 19l26 111q69 -24 160 -24q70 0 94.5 14t24.5 53q0 35 -25 49t-85 14h-78v93h78q57 0 78 10.5t21 40.5t-23 41t-85 11q-89 0 -156 -22l-26 108q89 20 184 20q132 0 184 -29q52 -28 52 -102
q0 -59 -27.5 -88.5t-94.5 -35.5z" />
    <glyph glyph-name="afii10074" unicode="&#x438;" horiz-adv-x="593" 
d="M69 509h124v-324q87 109 207 324h124v-509h-124v311q-85 -153 -207 -311h-124v509z" />
    <glyph glyph-name="afii10075" unicode="&#x439;" horiz-adv-x="593" 
d="M69 509h124v-324q87 109 207 324h124v-509h-124v311q-85 -153 -207 -311h-124v509zM147 697h85q0 -33 15 -45.5t51 -12.5t51.5 13t15.5 45h80q0 -137 -150 -137q-148 0 -148 137z" />
    <glyph glyph-name="afii10076" unicode="&#x43a;" horiz-adv-x="551" 
d="M549 0h-145q-60 125 -108 175q-48 49 -103 61v-236h-124v509h124v-245q74 82 197 245h147q-142 -192 -193 -233q30 -12 52 -31q56 -43 153 -245z" />
    <glyph glyph-name="afii10077" unicode="&#x43b;" horiz-adv-x="572" 
d="M378 0v401h-129q-11 -168 -55 -283q-24 -63 -65 -97.5t-94 -34.5l-22 125q49 0 82 103t42 295h365v-509h-124z" />
    <glyph glyph-name="afii10078" unicode="&#x43c;" horiz-adv-x="753" 
d="M382 206q58 154 129 303h173v-509h-123v371q-64 -139 -140 -341h-93q-88 239 -136 341v-371h-123v509h181q58 -123 132 -303z" />
    <glyph glyph-name="afii10079" unicode="&#x43d;" horiz-adv-x="587" 
d="M69 509h124v-187h200v187h124v-509h-124v216h-200v-216h-124v509z" />
    <glyph glyph-name="afii10080" unicode="&#x43e;" 
d="M293 -14q-126 0 -185 59q-57 60 -57 212q0 150 58 208q59 59 184 59q127 0 186 -59q58 -58 58 -208q0 -153 -58 -212q-59 -59 -186 -59zM293 423q-69 0 -91 -31q-23 -32 -23 -137q0 -102 23 -136q24 -32 91 -32q69 0 92 32q24 33 24 136q-2 76 -12 110t-32 45.5t-72 12.5
z" />
    <glyph glyph-name="afii10081" unicode="&#x43f;" horiz-adv-x="587" 
d="M393 401h-200v-401h-124v509h448v-509h-124v401z" />
    <glyph glyph-name="afii10082" unicode="&#x440;" 
d="M315 -14q-62 0 -122 29v-207h-124v678q93 38 223 38t187 -59t57 -210q0 -147 -56 -209q-56 -60 -165 -60zM292 417q-60 0 -99 -15v-262q0 -21 28.5 -35t71.5 -14q66 0 91 34t25 127q0 102 -25 133q-24 32 -92 32z" />
    <glyph glyph-name="afii10083" unicode="&#x441;" horiz-adv-x="470" 
d="M430 118l28 -106q-66 -26 -155 -26q-124 0 -188 61t-64 210t64 207q65 60 188 60q91 0 155 -24l-28 -106q-57 22 -118 22q-75 0 -102 -29.5t-31 -131.5q0 -96 30 -129q32 -32 103 -32q60 0 118 24z" />
    <glyph glyph-name="afii10084" unicode="&#x442;" horiz-adv-x="485" 
d="M480 401h-176v-401h-124v401h-175v108h475v-108z" />
    <glyph glyph-name="afii10085" unicode="&#x443;" horiz-adv-x="511" 
d="M381 509h126q-117 -395 -272 -701h-138q31 54 83 167q-82 299 -180 534h129q67 -168 126 -386q86 229 126 386z" />
    <glyph glyph-name="afii10086" unicode="&#x444;" horiz-adv-x="810" 
d="M467 -12v-180h-124v180q-158 8 -225 67q-67 60 -67 202q0 140 67 198q69 60 225 67v187h124v-187q156 -7 225 -67q67 -58 67 -198q0 -141 -67 -201q-68 -61 -225 -68zM179 255q0 -93 34 -127q36 -36 130 -40v333q-96 -4 -131 -38q-33 -33 -33 -128zM631 255q0 94 -34 127
q-35 35 -130 39v-333q93 4 129 40q35 35 35 127z" />
    <glyph glyph-name="afii10087" unicode="&#x445;" horiz-adv-x="521" 
d="M377 509h138l-175 -251q104 -147 176 -258h-140q-39 65 -107 161q-76 -102 -125 -161h-138q74 87 198 254q-110 154 -197 255h148q53 -66 117 -156q63 85 105 156z" />
    <glyph glyph-name="afii10088" unicode="&#x446;" horiz-adv-x="636" 
d="M517 509v-401h114l-29 -249h-100v141h-433v509h124v-401h200v401h124z" />
    <glyph glyph-name="afii10089" unicode="&#x447;" horiz-adv-x="556" 
d="M222 154q-63 0 -102 17q-82 40 -82 214v124h124v-114q0 -77 24 -103t79 -26q41 0 69 12.5t28 32.5v198h124v-509h-124v189q-67 -35 -140 -35z" />
    <glyph glyph-name="afii10090" unicode="&#x448;" horiz-adv-x="858" 
d="M664 509h124v-509h-719v509h124v-401h174v401h124v-401h173v401z" />
    <glyph glyph-name="afii10091" unicode="&#x449;" horiz-adv-x="907" 
d="M788 509v-401h114l-29 -249h-100v141h-704v509h124v-401h174v401h124v-401h173v401h124z" />
    <glyph glyph-name="afii10092" unicode="&#x44a;" horiz-adv-x="604" 
d="M227 509v-184h179q158 0 158 -161q0 -87 -38.5 -125.5t-119.5 -38.5h-303v401h-98v108h222zM227 229v-137h150q57 0 57 70q0 36 -14.5 51.5t-44.5 15.5h-148z" />
    <glyph glyph-name="afii10093" unicode="&#x44b;" horiz-adv-x="776" 
d="M193 229v-137h150q57 0 57 70q0 36 -14.5 51.5t-44.5 15.5h-148zM193 509v-184h179q158 0 158 -161q0 -87 -38.5 -125.5t-119.5 -38.5h-303v509h124zM583 509h124v-509h-124v509z" />
    <glyph glyph-name="afii10094" unicode="&#x44c;" horiz-adv-x="570" 
d="M193 229v-137h150q57 0 57 70q0 36 -14.5 51.5t-44.5 15.5h-148zM193 509v-184h179q158 0 158 -161q0 -87 -38.5 -125.5t-119.5 -38.5h-303v509h124z" />
    <glyph glyph-name="afii10095" unicode="&#x44d;" horiz-adv-x="481" 
d="M24 12l27 99q53 -21 120 -21q65 0 95 29t34 103h-203v95h201q-8 58 -37 80t-90 22q-75 0 -120 -19l-27 100q65 24 155 24q121 0 186 -60t65 -207q0 -148 -65 -210q-64 -61 -186 -61q-89 0 -155 26z" />
    <glyph glyph-name="afii10096" unicode="&#x44e;" horiz-adv-x="848" 
d="M558 -14q-114 0 -171 51q-57 52 -64 179h-130v-216h-124v509h124v-187h131q12 110 67.5 156t166.5 46q124 0 181 -59q58 -58 58 -208q0 -152 -58 -211q-57 -60 -181 -60zM558 424q-64 0 -87 -32t-23 -137q0 -102 23 -136q23 -33 87 -33q66 0 88 33q24 33 24 136
q0 105 -23 137t-89 32z" />
    <glyph glyph-name="afii10097" unicode="&#x44f;" horiz-adv-x="593" 
d="M258 279h142v130h-145q-60 0 -60 -64q0 -66 63 -66zM206 220q-73 3 -109 40t-36 100q0 149 161 149h302v-509h-124v181h-77q-53 0 -85 -35q-30 -32 -71 -146h-142q53 128 88 169q37 43 93 51z" />
    <glyph glyph-name="afii10071" unicode="&#x451;" horiz-adv-x="552" 
d="M288 524q66 0 106 -13t69 -45q56 -62 50 -244h-332q2 -78 31 -105q31 -26 101 -26q73 0 143 21l20 -98q-83 -28 -178 -28q-119 0 -183 61t-64 210q0 143 58 205t179 62zM293 426q-58 0 -81.5 -23t-29.5 -86h209q-3 65 -23 87q-19 22 -75 22zM242 626q0 -38 -12 -50
t-48 -12t-47.5 12t-11.5 50q0 35 11.5 45t47.5 10t48 -10.5t12 -44.5zM396 681q36 0 47.5 -10t11.5 -45q0 -38 -12 -50t-47 -12q-37 0 -48.5 12t-11.5 50q0 35 11.5 45t48.5 10z" />
    <glyph glyph-name="afii10099" unicode="&#x452;" horiz-adv-x="576" 
d="M296 581h-103v-104q62 35 140 35q53 0 85.5 -12t57.5 -43q49 -57 49 -236q0 -167 -47 -269q-46 -100 -112 -135l-88 85q52 28 84 99q31 69 31 216q-2 81 -11.5 117.5t-28.5 48.5t-62 13q-40 0 -68 -11.5t-30 -31.5v-353h-124v581h-51v87h51v54h124v-54h103v-87z" />
    <glyph glyph-name="afii10100" unicode="&#x453;" horiz-adv-x="424" 
d="M423 402h-230v-402h-124v509h354v-107zM415 697l-145 -129h-109l121 129h133z" />
    <glyph glyph-name="afii10101" unicode="&#x454;" horiz-adv-x="481" 
d="M430 111l27 -99q-66 -26 -154 -26q-123 0 -187 61q-65 62 -65 210q0 147 65 207q64 60 186 60q90 0 155 -24l-27 -100q-45 19 -120 19q-61 0 -90 -22t-37 -80h201v-95h-203q4 -74 34 -103t95 -29q68 0 120 21z" />
    <glyph glyph-name="afii10102" unicode="&#x455;" horiz-adv-x="491" 
d="M434 496l-27 -97q-73 24 -148 24q-53 0 -72.5 -11.5t-19.5 -47.5q0 -26 21.5 -37.5t83.5 -17.5q96 -10 136.5 -44.5t40.5 -108.5q0 -94 -56 -132t-162 -38q-105 0 -182 27l26 98q67 -24 151 -24q57 0 78.5 12.5t21.5 49.5q0 28 -23 41.5t-86 19.5q-92 7 -132 39.5
t-40 105.5q0 90 54.5 129.5t163.5 39.5q88 0 171 -28z" />
    <glyph glyph-name="afii10103" unicode="&#x456;" horiz-adv-x="262" 
d="M69 509h124v-509h-124v509zM132 721q43 0 57 -11.5t14 -49.5q0 -42 -14 -55.5t-57 -13.5t-57.5 13.5t-14.5 55.5q0 38 14.5 49.5t57.5 11.5z" />
    <glyph glyph-name="afii10104" unicode="&#x457;" horiz-adv-x="262" 
d="M84 626q0 -38 -12 -50t-48 -12t-47.5 12t-11.5 50q0 35 11.5 45t47.5 10t48 -10.5t12 -44.5zM238 681q36 0 47.5 -10t11.5 -45q0 -38 -12.5 -50t-46.5 -12q-36 0 -48 12t-12 50q0 35 11.5 45t48.5 10zM69 509h124v-509h-124v509z" />
    <glyph glyph-name="afii10105" unicode="&#x458;" horiz-adv-x="262" 
d="M132 721q43 0 57 -11.5t14 -49.5q0 -42 -14 -55.5t-57 -13.5t-57.5 13.5t-14.5 55.5q0 38 14.5 49.5t57.5 11.5zM69 509h124v-519q0 -109 -50 -151q-49 -42 -159 -42v103q45 0 65 19.5t20 67.5v522z" />
    <glyph glyph-name="afii10106" unicode="&#x459;" horiz-adv-x="886" 
d="M502 92h150q57 0 57 70q0 36 -14.5 51.5t-44.5 15.5h-148v-137zM137 509h365v-184h179q158 0 158 -161q0 -87 -38.5 -125.5t-119.5 -38.5h-303v401h-129q-11 -168 -55 -283q-24 -63 -65 -97.5t-94 -34.5l-22 125q49 0 82 103t42 295z" />
    <glyph glyph-name="afii10107" unicode="&#x45a;" horiz-adv-x="901" 
d="M517 509v-184h179q158 0 158 -161q0 -87 -38.5 -125.5t-119.5 -38.5h-303v229h-200v-229h-124v509h124v-184h200v184h124zM517 92h150q57 0 57 71q0 35 -14 50.5t-45 15.5h-148v-137z" />
    <glyph glyph-name="afii10108" unicode="&#x45b;" horiz-adv-x="583" 
d="M69 581h-51v87h51v54h124v-54h103v-87h-103v-92q68 35 140 35q63 0 101 -18q83 -37 83 -213v-293h-124v283q0 75 -23.5 102t-78.5 27q-41 0 -69.5 -12.5t-28.5 -32.5v-367h-124v581z" />
    <glyph glyph-name="afii10109" unicode="&#x45c;" horiz-adv-x="551" 
d="M549 0h-145q-60 125 -108 175q-48 49 -103 61v-236h-124v509h124v-245q74 82 197 245h147q-142 -192 -193 -233q30 -12 52 -31q56 -43 153 -245zM468 697l-145 -129h-109l121 129h133z" />
    <glyph glyph-name="afii10110" unicode="&#x45e;" horiz-adv-x="511" 
d="M381 509h126q-117 -395 -272 -701h-138q31 54 83 167q-82 299 -180 534h129q67 -168 126 -386q86 229 126 386zM107 699h85q0 -33 15 -45.5t51 -12.5t51.5 13t15.5 45h80q0 -137 -150 -137q-148 0 -148 137z" />
    <glyph glyph-name="afii10193" unicode="&#x45f;" horiz-adv-x="587" 
d="M69 509h124v-401h200v401h124v-509h-156l-21 -178h-88l-21 178h-162v509z" />
    <glyph glyph-name="afii10050" unicode="&#x490;" horiz-adv-x="544" 
d="M220 0h-132v697h350l33 178h88v-292h-339v-583z" />
    <glyph glyph-name="afii10098" unicode="&#x491;" horiz-adv-x="424" 
d="M69 0v509h246l30 164h78v-272h-230v-401h-124z" />
    <glyph glyph-name="Wgrave" unicode="&#x1e80;" horiz-adv-x="975" 
d="M691 164q85 267 145 533h136q-88 -360 -202 -697h-168q-40 212 -109 478q-37 -183 -128 -478h-167q-109 441 -200 697h144q81 -242 150 -533q104 344 140 533h122q102 -365 137 -533zM459 876l135 -129h-114l-158 129h137z" />
    <glyph glyph-name="wgrave" unicode="&#x1e81;" horiz-adv-x="830" 
d="M699 509h126q-74 -266 -174 -509h-154q-39 198 -82 341q-37 -167 -98 -341h-153q-77 277 -164 509h131q66 -179 116 -382q27 78 60 193q29 101 50 189h121q58 -173 103 -382q83 229 118 382zM409 697l122 -129h-110l-144 129h132z" />
    <glyph glyph-name="Wacute" unicode="&#x1e82;" horiz-adv-x="975" 
d="M691 164q85 267 145 533h136q-88 -360 -202 -697h-168q-40 212 -109 478q-37 -183 -128 -478h-167q-109 441 -200 697h144q81 -242 150 -533q104 344 140 533h122q102 -365 137 -533zM650 876l-158 -129h-108l129 129h137z" />
    <glyph glyph-name="wacute" unicode="&#x1e83;" horiz-adv-x="805" 
 />
    <glyph glyph-name="Wdieresis" unicode="&#x1e84;" horiz-adv-x="975" 
d="M691 164q85 267 145 533h136q-88 -360 -202 -697h-168q-40 212 -109 478q-37 -183 -128 -478h-167q-109 441 -200 697h144q81 -242 150 -533q104 344 140 533h122q102 -365 137 -533zM446 808q0 -38 -11.5 -49.5t-47.5 -11.5t-48 11.5t-12 49.5q0 35 12 45.5t48 10.5
t47.5 -10.5t11.5 -45.5zM600 864q36 0 47.5 -10.5t11.5 -45.5q0 -38 -11.5 -49.5t-47.5 -11.5t-48 11.5t-12 49.5q0 35 11.5 45.5t48.5 10.5z" />
    <glyph glyph-name="wdieresis" unicode="&#x1e85;" horiz-adv-x="830" 
d="M699 509h126q-74 -266 -174 -509h-154q-39 198 -82 341q-37 -167 -98 -341h-153q-77 277 -164 509h131q66 -179 116 -382q27 78 60 193q29 101 50 189h121q58 -173 103 -382q83 229 118 382zM367 626q0 -38 -12 -50t-48 -12t-47.5 12t-11.5 50q0 35 11.5 45t47.5 10
t48 -10.5t12 -44.5zM521 681q36 0 47.5 -10t11.5 -45q0 -38 -12 -50t-47 -12q-37 0 -48.5 12t-11.5 50q0 35 11.5 45t48.5 10z" />
    <glyph glyph-name="uni1EA0" unicode="&#x1ea0;" horiz-adv-x="682" 
d="M701 0h-146q-52 130 -67 174h-305l-54 -174h-139q112 351 253 697h207q125 -397 251 -697zM353 585h-27q-51 -131 -108 -298h232q-52 147 -97 298zM341 -59q37 0 49.5 -11t12.5 -47q0 -39 -12.5 -51.5t-49.5 -12.5q-36 0 -48.5 12.5t-12.5 51.5q0 36 12 47t49 11z" />
    <glyph glyph-name="uni1EA1" unicode="&#x1ea1;" horiz-adv-x="560" 
d="M494 326v-300q-101 -40 -230 -40q-122 0 -169 35q-46 36 -46 135q0 100 49 133q49 34 151 34q56 0 126 -14q0 68 -24 89q-23 22 -103 22q-85 0 -154 -25l-23 102q102 27 203 27q116 0 168 -44q52 -43 52 -154zM375 98v127q-42 9 -101 9q-58 0 -76.5 -13.5t-18.5 -59.5
q0 -51 18 -66q19 -14 76 -14q51 0 102 17zM280 -59q37 0 49.5 -11t12.5 -47q0 -39 -12.5 -51.5t-49.5 -12.5q-36 0 -48.5 12.5t-12.5 51.5q0 36 12 47t49 11z" />
    <glyph glyph-name="uni1EA2" unicode="&#x1ea2;" horiz-adv-x="682" 
d="M701 0h-146q-52 130 -67 174h-305l-54 -174h-139q112 351 253 697h207q125 -397 251 -697zM353 585h-27q-51 -131 -108 -298h232q-52 147 -97 298zM345 721h-47q47 26 61.5 42t14.5 40q0 18 -10.5 25t-39.5 7q-47 0 -76 -22l-33 60q44 29 122 29q68 0 96 -17.5t28 -57.5
q0 -71 -116 -106z" />
    <glyph glyph-name="uni1EA3" unicode="&#x1ea3;" horiz-adv-x="560" 
d="M494 326v-300q-101 -40 -230 -40q-122 0 -169 35q-46 36 -46 135q0 100 49 133q49 34 151 34q56 0 126 -14q0 68 -24 89q-23 22 -103 22q-85 0 -154 -25l-23 102q102 27 203 27q116 0 168 -44q52 -43 52 -154zM375 98v127q-42 9 -101 9q-58 0 -76.5 -13.5t-18.5 -59.5
q0 -51 18 -66q19 -14 76 -14q51 0 102 17zM288 555h-47q47 26 61 43q15 16 15 42q0 19 -10.5 26.5t-39.5 7.5q-44 0 -76 -23l-33 62q43 30 122 30q68 0 95.5 -18t27.5 -60q0 -74 -115 -110z" />
    <glyph glyph-name="uni1EA4" unicode="&#x1ea4;" horiz-adv-x="682" 
d="M701 0h-146q-52 130 -67 174h-305l-54 -174h-139q112 351 253 697h207q125 -397 251 -697zM353 585h-27q-51 -131 -108 -298h232q-52 147 -97 298zM492 927l-157 -96h-107l128 96h136zM525 726h-114l-71 54l-69 -54h-110l120 89h120z" />
    <glyph glyph-name="uni1EA5" unicode="&#x1ea5;" horiz-adv-x="560" 
d="M494 326v-300q-101 -40 -230 -40q-122 0 -169 35q-46 36 -46 135q0 100 49 133q49 34 151 34q56 0 126 -14q0 68 -24 89q-23 22 -103 22q-85 0 -154 -25l-23 102q102 27 203 27q116 0 168 -44q52 -43 52 -154zM375 98v127q-42 9 -101 9q-58 0 -76.5 -13.5t-18.5 -59.5
q0 -51 18 -66q19 -14 76 -14q51 0 102 17zM467 568h-117l-71 76l-69 -76h-113l122 129h122zM435 876l-158 -129h-108l129 129h137z" />
    <glyph glyph-name="uni1EA6" unicode="&#x1ea6;" horiz-adv-x="682" 
d="M701 0h-146q-52 130 -67 174h-305l-54 -174h-139q112 351 253 697h207q125 -397 251 -697zM353 585h-27q-51 -131 -108 -298h232q-52 147 -97 298zM525 726h-114l-71 54l-69 -54h-110l120 89h120zM328 927l132 -96h-111l-154 96h133z" />
    <glyph glyph-name="uni1EA7" unicode="&#x1ea7;" horiz-adv-x="560" 
d="M494 326v-300q-101 -40 -230 -40q-122 0 -169 35q-46 36 -46 135q0 100 49 133q49 34 151 34q56 0 126 -14q0 68 -24 89q-23 22 -103 22q-85 0 -154 -25l-23 102q102 27 203 27q116 0 168 -44q52 -43 52 -154zM375 98v127q-42 9 -101 9q-58 0 -76.5 -13.5t-18.5 -59.5
q0 -51 18 -66q19 -14 76 -14q51 0 102 17zM467 568h-117l-71 76l-69 -76h-113l122 129h122zM263 876l135 -129h-114l-158 129h137z" />
    <glyph glyph-name="uni1EA8" unicode="&#x1ea8;" horiz-adv-x="682" 
d="M701 0h-146q-52 130 -67 174h-305l-54 -174h-139q112 351 253 697h207q125 -397 251 -697zM353 585h-27q-51 -131 -108 -298h232q-52 147 -97 298zM525 726h-114l-71 54l-69 -54h-110l120 89h120zM351 831h-48q47 20 62 32.5t15 31.5q0 13 -11 19t-39 6q-46 0 -78 -17
l-33 46q44 23 124 23q69 0 97 -14t28 -45q0 -57 -117 -82z" />
    <glyph glyph-name="uni1EA9" unicode="&#x1ea9;" horiz-adv-x="560" 
d="M494 326v-300q-101 -40 -230 -40q-122 0 -169 35q-46 36 -46 135q0 100 49 133q49 34 151 34q56 0 126 -14q0 68 -24 89q-23 22 -103 22q-85 0 -154 -25l-23 102q102 27 203 27q116 0 168 -44q52 -43 52 -154zM375 98v127q-42 9 -101 9q-58 0 -76.5 -13.5t-18.5 -59.5
q0 -51 18 -66q19 -14 76 -14q51 0 102 17zM467 568h-117l-71 76l-69 -76h-113l122 129h122zM288 713h-47q47 26 61 43q15 16 15 42q0 19 -10.5 26.5t-39.5 7.5q-44 0 -76 -23l-33 62q43 30 122 30q68 0 95.5 -18t27.5 -60q0 -74 -115 -110z" />
    <glyph glyph-name="uni1EAA" unicode="&#x1eaa;" horiz-adv-x="682" 
d="M701 0h-146q-52 130 -67 174h-305l-54 -174h-139q112 351 253 697h207q125 -397 251 -697zM353 585h-27q-51 -131 -108 -298h232q-52 147 -97 298zM464 940l60 -39q-15 -33 -46 -52.5t-72 -19.5q-31 0 -76 21q-43 21 -65 21q-31 0 -51 -39l-55 43q46 61 106 61
q35 0 81 -20t65 -20q32 0 53 44zM525 726h-114l-71 54l-69 -54h-110l120 89h120z" />
    <glyph glyph-name="uni1EAB" unicode="&#x1eab;" horiz-adv-x="560" 
d="M494 326v-300q-101 -40 -230 -40q-122 0 -169 35q-46 36 -46 135q0 100 49 133q49 34 151 34q56 0 126 -14q0 68 -24 89q-23 22 -103 22q-85 0 -154 -25l-23 102q102 27 203 27q116 0 168 -44q52 -43 52 -154zM375 98v127q-42 9 -101 9q-58 0 -76.5 -13.5t-18.5 -59.5
q0 -51 18 -66q19 -14 76 -14q51 0 102 17zM419 879l61 -50q-15 -42 -47 -67.5t-73 -25.5q-31 0 -76 27t-67 27q-31 0 -51 -50l-56 55q45 79 107 79q36 0 82 -26q47 -26 66 -26q18 0 30 12.5t24 44.5zM467 568h-117l-71 76l-69 -76h-113l122 129h122z" />
    <glyph glyph-name="uni1EAC" unicode="&#x1eac;" horiz-adv-x="682" 
d="M701 0h-146q-52 130 -67 174h-305l-54 -174h-139q112 351 253 697h207q125 -397 251 -697zM353 585h-27q-51 -131 -108 -298h232q-52 147 -97 298zM341 -59q37 0 49.5 -11t12.5 -47q0 -39 -12.5 -51.5t-49.5 -12.5q-36 0 -48.5 12.5t-12.5 51.5q0 36 12 47t49 11z
M526 747h-116l-72 78l-70 -78h-112l122 129h122z" />
    <glyph glyph-name="uni1EAD" unicode="&#x1ead;" horiz-adv-x="560" 
d="M494 326v-300q-101 -40 -230 -40q-122 0 -169 35q-46 36 -46 135q0 100 49 133q49 34 151 34q56 0 126 -14q0 68 -24 89q-23 22 -103 22q-85 0 -154 -25l-23 102q102 27 203 27q116 0 168 -44q52 -43 52 -154zM375 98v127q-42 9 -101 9q-58 0 -76.5 -13.5t-18.5 -59.5
q0 -51 18 -66q19 -14 76 -14q51 0 102 17zM280 -59q37 0 49.5 -11t12.5 -47q0 -39 -12.5 -51.5t-49.5 -12.5q-36 0 -48.5 12.5t-12.5 51.5q0 36 12 47t49 11zM465 568h-117l-71 76l-69 -76h-113l122 129h122z" />
    <glyph glyph-name="uni1EAE" unicode="&#x1eae;" horiz-adv-x="682" 
d="M701 0h-146q-52 130 -67 174h-305l-54 -174h-139q112 351 253 697h207q125 -397 251 -697zM353 585h-27q-51 -131 -108 -298h232q-52 147 -97 298zM509 927l-157 -96h-107l128 96h136zM187 817h88q0 -21 16 -30t53 -9q36 0 52.5 9t16.5 30h83q0 -92 -156 -92
q-153 0 -153 92z" />
    <glyph glyph-name="uni1EAF" unicode="&#x1eaf;" horiz-adv-x="560" 
d="M494 326v-300q-101 -40 -230 -40q-122 0 -169 35q-46 36 -46 135q0 100 49 133q49 34 151 34q56 0 126 -14q0 68 -24 89q-23 22 -103 22q-85 0 -154 -25l-23 102q102 27 203 27q116 0 168 -44q52 -43 52 -154zM375 98v127q-42 9 -101 9q-58 0 -76.5 -13.5t-18.5 -59.5
q0 -51 18 -66q19 -14 76 -14q51 0 102 17zM128 697h85q0 -33 15 -45.5t51 -12.5t51.5 13t15.5 45h80q0 -137 -150 -137q-148 0 -148 137zM435 876l-158 -129h-108l129 129h137z" />
    <glyph glyph-name="uni1EB0" unicode="&#x1eb0;" horiz-adv-x="682" 
d="M701 0h-146q-52 130 -67 174h-305l-54 -174h-139q112 351 253 697h207q125 -397 251 -697zM353 585h-27q-51 -131 -108 -298h232q-52 147 -97 298zM187 817h88q0 -21 16 -30t53 -9q36 0 52.5 9t16.5 30h83q0 -92 -156 -92q-153 0 -153 92zM313 927l132 -96h-111l-154 96
h133z" />
    <glyph glyph-name="uni1EB1" unicode="&#x1eb1;" horiz-adv-x="560" 
d="M494 326v-300q-101 -40 -230 -40q-122 0 -169 35q-46 36 -46 135q0 100 49 133q49 34 151 34q56 0 126 -14q0 68 -24 89q-23 22 -103 22q-85 0 -154 -25l-23 102q102 27 203 27q116 0 168 -44q52 -43 52 -154zM375 98v127q-42 9 -101 9q-58 0 -76.5 -13.5t-18.5 -59.5
q0 -51 18 -66q19 -14 76 -14q51 0 102 17zM128 697h85q0 -33 15 -45.5t51 -12.5t51.5 13t15.5 45h80q0 -137 -150 -137q-148 0 -148 137zM262 876l135 -129h-114l-158 129h137z" />
    <glyph glyph-name="uni1EB2" unicode="&#x1eb2;" horiz-adv-x="682" 
d="M701 0h-146q-52 130 -67 174h-305l-54 -174h-139q112 351 253 697h207q125 -397 251 -697zM353 585h-27q-51 -131 -108 -298h232q-52 147 -97 298zM187 817h88q0 -21 16 -30t53 -9q36 0 52.5 9t16.5 30h83q0 -92 -156 -92q-153 0 -153 92zM351 831h-48q47 20 62 32.5
t15 31.5q0 13 -11 19t-39 6q-46 0 -78 -17l-33 46q44 23 124 23q69 0 97 -14t28 -45q0 -57 -117 -82z" />
    <glyph glyph-name="uni1EB3" unicode="&#x1eb3;" horiz-adv-x="560" 
d="M494 326v-300q-101 -40 -230 -40q-122 0 -169 35q-46 36 -46 135q0 100 49 133q49 34 151 34q56 0 126 -14q0 68 -24 89q-23 22 -103 22q-85 0 -154 -25l-23 102q102 27 203 27q116 0 168 -44q52 -43 52 -154zM375 98v127q-42 9 -101 9q-58 0 -76.5 -13.5t-18.5 -59.5
q0 -51 18 -66q19 -14 76 -14q51 0 102 17zM128 697h85q0 -33 15 -45.5t51 -12.5t51.5 13t15.5 45h80q0 -137 -150 -137q-148 0 -148 137zM285 705h-47q47 26 61 43q15 16 15 42q0 19 -10.5 26.5t-39.5 7.5q-44 0 -76 -23l-33 62q43 30 122 30q68 0 95.5 -18t27.5 -60
q0 -74 -115 -110z" />
    <glyph glyph-name="uni1EB4" unicode="&#x1eb4;" horiz-adv-x="682" 
d="M701 0h-146q-52 130 -67 174h-305l-54 -174h-139q112 351 253 697h207q125 -397 251 -697zM353 585h-27q-51 -131 -108 -298h232q-52 147 -97 298zM187 817h88q0 -21 16 -30t53 -9q36 0 52.5 9t16.5 30h83q0 -92 -156 -92q-153 0 -153 92zM464 940l60 -39
q-15 -33 -46 -52.5t-72 -19.5q-31 0 -76 21q-43 21 -65 21q-31 0 -51 -39l-55 43q46 61 106 61q35 0 81 -20t65 -20q32 0 53 44z" />
    <glyph glyph-name="uni1EB5" unicode="&#x1eb5;" horiz-adv-x="560" 
d="M494 326v-300q-101 -40 -230 -40q-122 0 -169 35q-46 36 -46 135q0 100 49 133q49 34 151 34q56 0 126 -14q0 68 -24 89q-23 22 -103 22q-85 0 -154 -25l-23 102q102 27 203 27q116 0 168 -44q52 -43 52 -154zM375 98v127q-42 9 -101 9q-58 0 -76.5 -13.5t-18.5 -59.5
q0 -51 18 -66q19 -14 76 -14q51 0 102 17zM405 879l61 -50q-15 -42 -47 -67.5t-73 -25.5q-31 0 -76 27t-67 27q-31 0 -51 -50l-56 55q45 79 107 79q36 0 82 -26q47 -26 66 -26q18 0 30 12.5t24 44.5zM128 697h85q0 -33 15 -45.5t51 -12.5t51.5 13t15.5 45h80
q0 -137 -150 -137q-148 0 -148 137z" />
    <glyph glyph-name="uni1EB6" unicode="&#x1eb6;" horiz-adv-x="682" 
d="M701 0h-146q-52 130 -67 174h-305l-54 -174h-139q112 351 253 697h207q125 -397 251 -697zM353 585h-27q-51 -131 -108 -298h232q-52 147 -97 298zM192 871h85q0 -33 15 -45.5t51 -12.5t51.5 13t15.5 45h80q0 -137 -150 -137q-148 0 -148 137zM341 -59q37 0 49.5 -11
t12.5 -47q0 -39 -12.5 -51.5t-49.5 -12.5q-36 0 -48.5 12.5t-12.5 51.5q0 36 12 47t49 11z" />
    <glyph glyph-name="uni1EB7" unicode="&#x1eb7;" horiz-adv-x="560" 
d="M494 326v-300q-101 -40 -230 -40q-122 0 -169 35q-46 36 -46 135q0 100 49 133q49 34 151 34q56 0 126 -14q0 68 -24 89q-23 22 -103 22q-85 0 -154 -25l-23 102q102 27 203 27q116 0 168 -44q52 -43 52 -154zM375 98v127q-42 9 -101 9q-58 0 -76.5 -13.5t-18.5 -59.5
q0 -51 18 -66q19 -14 76 -14q51 0 102 17zM130 697h85q0 -33 15 -45.5t51 -12.5t51.5 13t15.5 45h80q0 -137 -150 -137q-148 0 -148 137zM275 -59q37 0 49.5 -11t12.5 -47q0 -39 -12.5 -51.5t-49.5 -12.5q-36 0 -48.5 12.5t-12.5 51.5q0 36 12 47t49 11z" />
    <glyph glyph-name="uni1EB8" unicode="&#x1eb8;" horiz-adv-x="620" 
d="M88 0v697h506v-114h-374v-161h267v-113h-267v-195h374v-114h-506zM330 -59q37 0 49.5 -11t12.5 -47q0 -39 -12.5 -51.5t-49.5 -12.5q-36 0 -48.5 12.5t-12.5 51.5q0 36 12 47t49 11z" />
    <glyph glyph-name="uni1EB9" unicode="&#x1eb9;" horiz-adv-x="552" 
d="M288 524q66 0 106 -13t69 -45q56 -62 50 -244h-332q2 -78 31 -105q31 -26 101 -26q73 0 143 21l20 -98q-83 -28 -178 -28q-119 0 -183 61t-64 210q0 143 58 205t179 62zM293 426q-58 0 -81.5 -23t-29.5 -86h209q-3 65 -23 87q-19 22 -75 22zM288 -59q37 0 49.5 -11
t12.5 -47q0 -39 -12.5 -51.5t-49.5 -12.5q-36 0 -48.5 12.5t-12.5 51.5q0 36 12 47t49 11z" />
    <glyph glyph-name="uni1EBA" unicode="&#x1eba;" horiz-adv-x="620" 
d="M88 0v697h506v-114h-374v-161h267v-113h-267v-195h374v-114h-506zM353 721h-47q47 26 61.5 42t14.5 40q0 18 -10.5 25t-39.5 7q-47 0 -76 -22l-33 60q44 29 122 29q68 0 96 -17.5t28 -57.5q0 -71 -116 -106z" />
    <glyph glyph-name="uni1EBB" unicode="&#x1ebb;" horiz-adv-x="552" 
d="M288 524q66 0 106 -13t69 -45q56 -62 50 -244h-332q2 -78 31 -105q31 -26 101 -26q73 0 143 21l20 -98q-83 -28 -178 -28q-119 0 -183 61t-64 210q0 143 58 205t179 62zM293 426q-58 0 -81.5 -23t-29.5 -86h209q-3 65 -23 87q-19 22 -75 22zM290 555h-47q47 26 61 43
q15 16 15 42q0 19 -10.5 26.5t-39.5 7.5q-44 0 -76 -23l-33 62q43 30 122 30q68 0 95.5 -18t27.5 -60q0 -74 -115 -110z" />
    <glyph glyph-name="uni1EBC" unicode="&#x1ebc;" horiz-adv-x="620" 
d="M88 0v697h506v-114h-374v-161h267v-113h-267v-195h374v-114h-506zM472 879l61 -50q-15 -42 -47 -67.5t-73 -25.5q-31 0 -76 27t-67 27q-31 0 -51 -50l-56 55q45 79 107 79q36 0 82 -26q47 -26 66 -26q18 0 30 12.5t24 44.5z" />
    <glyph glyph-name="uni1EBD" unicode="&#x1ebd;" horiz-adv-x="552" 
d="M288 524q66 0 106 -13t69 -45q56 -62 50 -244h-332q2 -78 31 -105q31 -26 101 -26q73 0 143 21l20 -98q-83 -28 -178 -28q-119 0 -183 61t-64 210q0 143 58 205t179 62zM293 426q-58 0 -81.5 -23t-29.5 -86h209q-3 65 -23 87q-19 22 -75 22zM412 702l62 -50
q-33 -93 -117 -93q-31 0 -75 26q-44 27 -66 27q-31 0 -52 -51l-56 55q46 81 109 81q37 0 79 -27q43 -26 63 -26q18 0 29.5 12.5t23.5 45.5z" />
    <glyph glyph-name="uni1EBE" unicode="&#x1ebe;" horiz-adv-x="620" 
d="M88 0v697h506v-114h-374v-161h267v-113h-267v-195h374v-114h-506zM493 927l-157 -96h-107l128 96h136zM526 726h-114l-71 54l-69 -54h-110l120 89h120z" />
    <glyph glyph-name="uni1EBF" unicode="&#x1ebf;" horiz-adv-x="552" 
d="M288 524q66 0 106 -13t69 -45q56 -62 50 -244h-332q2 -78 31 -105q31 -26 101 -26q73 0 143 21l20 -98q-83 -28 -178 -28q-119 0 -183 61t-64 210q0 143 58 205t179 62zM293 426q-58 0 -81.5 -23t-29.5 -86h209q-3 65 -23 87q-19 22 -75 22zM473 568h-117l-71 76l-69 -76
h-113l122 129h122zM441 876l-158 -129h-108l129 129h137z" />
    <glyph glyph-name="uni1EC0" unicode="&#x1ec0;" horiz-adv-x="620" 
d="M88 0v697h506v-114h-374v-161h267v-113h-267v-195h374v-114h-506zM522 726h-114l-71 54l-69 -54h-110l120 89h120zM325 927l132 -96h-111l-154 96h133z" />
    <glyph glyph-name="uni1EC1" unicode="&#x1ec1;" horiz-adv-x="552" 
d="M288 524q66 0 106 -13t69 -45q56 -62 50 -244h-332q2 -78 31 -105q31 -26 101 -26q73 0 143 21l20 -98q-83 -28 -178 -28q-119 0 -183 61t-64 210q0 143 58 205t179 62zM476 568h-117l-71 76l-69 -76h-113l122 129h122zM293 426q-58 0 -81.5 -23t-29.5 -86h209
q-3 65 -23 87q-19 22 -75 22zM268 876l135 -129h-114l-158 129h137z" />
    <glyph glyph-name="uni1EC2" unicode="&#x1ec2;" horiz-adv-x="620" 
d="M88 0v697h506v-114h-374v-161h267v-113h-267v-195h374v-114h-506zM521 726h-114l-71 54l-69 -54h-110l120 89h120zM347 831h-48q47 20 62 32.5t15 31.5q0 13 -11 19t-39 6q-46 0 -78 -17l-33 46q44 23 124 23q69 0 97 -14t28 -45q0 -57 -117 -82z" />
    <glyph glyph-name="uni1EC3" unicode="&#x1ec3;" horiz-adv-x="552" 
d="M288 524q66 0 106 -13t69 -45q56 -62 50 -244h-332q2 -78 31 -105q31 -26 101 -26q73 0 143 21l20 -98q-83 -28 -178 -28q-119 0 -183 61t-64 210q0 143 58 205t179 62zM293 426q-58 0 -81.5 -23t-29.5 -86h209q-3 65 -23 87q-19 22 -75 22zM293 713h-47q47 26 61 43
q15 16 15 42q0 19 -10.5 26.5t-39.5 7.5q-44 0 -76 -23l-33 62q43 30 122 30q68 0 95.5 -18t27.5 -60q0 -74 -115 -110zM472 568h-117l-71 76l-69 -76h-113l122 129h122z" />
    <glyph glyph-name="uni1EC4" unicode="&#x1ec4;" horiz-adv-x="620" 
d="M88 0v697h506v-114h-374v-161h267v-113h-267v-195h374v-114h-506zM468 940l60 -39q-15 -33 -46 -52.5t-72 -19.5q-31 0 -76 21q-43 21 -65 21q-31 0 -51 -39l-55 43q46 61 106 61q35 0 81 -20t65 -20q32 0 53 44zM529 726h-114l-71 54l-69 -54h-110l120 89h120z" />
    <glyph glyph-name="uni1EC5" unicode="&#x1ec5;" horiz-adv-x="552" 
d="M288 524q66 0 106 -13t69 -45q56 -62 50 -244h-332q2 -78 31 -105q31 -26 101 -26q73 0 143 21l20 -98q-83 -28 -178 -28q-119 0 -183 61t-64 210q0 143 58 205t179 62zM293 426q-58 0 -81.5 -23t-29.5 -86h209q-3 65 -23 87q-19 22 -75 22zM420 879l61 -50
q-15 -42 -47 -67.5t-73 -25.5q-31 0 -76 27t-67 27q-31 0 -51 -50l-56 55q45 79 107 79q36 0 82 -26q47 -26 66 -26q18 0 30 12.5t24 44.5zM475 568h-117l-71 76l-69 -76h-113l122 129h122z" />
    <glyph glyph-name="uni1EC6" unicode="&#x1ec6;" horiz-adv-x="620" 
d="M88 0v697h506v-114h-374v-161h267v-113h-267v-195h374v-114h-506zM345 -59q37 0 49.5 -11t12.5 -47q0 -39 -12.5 -51.5t-49.5 -12.5q-36 0 -48.5 12.5t-12.5 51.5q0 36 12 47t49 11zM530 747h-116l-72 78l-70 -78h-112l122 129h122z" />
    <glyph glyph-name="uni1EC7" unicode="&#x1ec7;" horiz-adv-x="552" 
d="M288 524q66 0 106 -13t69 -45q56 -62 50 -244h-332q2 -78 31 -105q31 -26 101 -26q73 0 143 21l20 -98q-83 -28 -178 -28q-119 0 -183 61t-64 210q0 143 58 205t179 62zM293 426q-58 0 -81.5 -23t-29.5 -86h209q-3 65 -23 87q-19 22 -75 22zM281 -59q37 0 49.5 -11
t12.5 -47q0 -39 -12.5 -51.5t-49.5 -12.5q-36 0 -48.5 12.5t-12.5 51.5q0 36 12 47t49 11zM466 568h-117l-71 76l-69 -76h-113l122 129h122z" />
    <glyph glyph-name="uni1EC8" unicode="&#x1ec8;" horiz-adv-x="308" 
d="M88 0v697h132v-697h-132zM162 727h-47q47 26 61.5 42t14.5 40q0 18 -10.5 25t-39.5 7q-47 0 -76 -22l-33 60q44 29 122 29q68 0 96 -17.5t28 -57.5q0 -71 -116 -106z" />
    <glyph glyph-name="uni1EC9" unicode="&#x1ec9;" horiz-adv-x="262" 
d="M139 555h-47q47 26 61 43q15 16 15 42q0 19 -10.5 26.5t-39.5 7.5q-44 0 -76 -23l-33 62q44 30 122 30q68 0 95.5 -18t27.5 -60q0 -74 -115 -110zM69 509h124v-509h-124v509z" />
    <glyph glyph-name="uni1ECA" unicode="&#x1eca;" horiz-adv-x="308" 
d="M155 -59q37 0 49.5 -11t12.5 -47q0 -39 -12.5 -51.5t-49.5 -12.5q-36 0 -48.5 12.5t-12.5 51.5q0 36 12 47t49 11zM88 0v697h132v-697h-132z" />
    <glyph glyph-name="uni1ECB" unicode="&#x1ecb;" horiz-adv-x="262" 
d="M69 509h124v-509h-124v509zM132 721q43 0 57 -11.5t14 -49.5q0 -42 -14 -55.5t-57 -13.5t-57.5 13.5t-14.5 55.5q0 38 14.5 49.5t57.5 11.5zM132 -59q37 0 49.5 -11t12.5 -47q0 -39 -12.5 -51.5t-49.5 -12.5q-36 0 -48.5 12.5t-12.5 51.5q0 36 12 47t49 11z" />
    <glyph glyph-name="uni1ECC" unicode="&#x1ecc;" horiz-adv-x="770" 
d="M385 -14q-170 0 -249 76q-83 82 -83 293q0 209 83 286q44 39 102.5 56t146.5 17t147 -17t101 -56q83 -77 83 -286q0 -107 -20 -179t-63 -113.5t-102 -59t-146 -17.5zM194 353q0 -107 17 -159t55.5 -70.5t118.5 -18.5t118.5 18.5t55.5 70.5t17 159q0 85 -8 129.5t-31 69.5
q-22 26 -55 34.5t-97 8.5t-97 -8.5t-56 -34.5q-22 -25 -30 -69.5t-8 -129.5zM385 -59q37 0 49.5 -11t12.5 -47q0 -39 -12.5 -51.5t-49.5 -12.5q-36 0 -48.5 12.5t-12.5 51.5q0 36 12 47t49 11z" />
    <glyph glyph-name="uni1ECD" unicode="&#x1ecd;" 
d="M293 -14q-126 0 -185 59q-57 60 -57 212q0 150 58 208q59 59 184 59q127 0 186 -59q58 -58 58 -208q0 -153 -58 -212q-59 -59 -186 -59zM293 424q-68 0 -91 -32t-23 -137q0 -102 23 -136q24 -33 91 -33q68 0 92 33t24 136q-2 76 -12 110t-32 46t-72 13zM294 -59
q37 0 49.5 -11t12.5 -47q0 -39 -12.5 -51.5t-49.5 -12.5q-36 0 -48.5 12.5t-12.5 51.5q0 36 12 47t49 11z" />
    <glyph glyph-name="uni1ECE" unicode="&#x1ece;" horiz-adv-x="770" 
d="M385 -14q-170 0 -249 76q-83 82 -83 293q0 209 83 286q44 39 102.5 56t146.5 17t147 -17t101 -56q83 -77 83 -286q0 -107 -20 -179t-63 -113.5t-102 -59t-146 -17.5zM194 353q0 -107 17 -159t55.5 -70.5t118.5 -18.5t118.5 18.5t55.5 70.5t17 159q0 85 -8 129.5t-31 69.5
q-22 26 -55 34.5t-97 8.5t-97 -8.5t-56 -34.5q-22 -25 -30 -69.5t-8 -129.5zM391 733h-47q47 26 61.5 42t14.5 40q0 18 -10.5 25t-39.5 7q-47 0 -76 -22l-33 60q44 29 122 29q68 0 96 -17.5t28 -57.5q0 -71 -116 -106z" />
    <glyph glyph-name="uni1ECF" unicode="&#x1ecf;" 
d="M293 -14q-126 0 -185 59q-57 60 -57 212q0 150 58 208q59 59 184 59q127 0 186 -59q58 -58 58 -208q0 -153 -58 -212q-59 -59 -186 -59zM293 424q-68 0 -91 -32t-23 -137q0 -102 23 -136q24 -33 91 -33q68 0 92 33t24 136q-2 76 -12 110t-32 46t-72 13zM302 555h-47
q47 26 61 43q15 16 15 42q0 19 -10.5 26.5t-39.5 7.5q-44 0 -76 -23l-33 62q44 30 122 30q68 0 95.5 -18t27.5 -60q0 -74 -115 -110z" />
    <glyph glyph-name="uni1ED0" unicode="&#x1ed0;" horiz-adv-x="770" 
d="M385 -14q-170 0 -249 76q-83 82 -83 293q0 209 83 286q44 39 102.5 56t146.5 17t147 -17t101 -56q83 -77 83 -286q0 -107 -20 -179t-63 -113.5t-102 -59t-146 -17.5zM194 353q0 -107 17 -159t55.5 -70.5t118.5 -18.5t118.5 18.5t55.5 70.5t17 159q0 85 -8 129.5t-31 69.5
q-22 26 -55 34.5t-97 8.5t-97 -8.5t-56 -34.5q-22 -25 -30 -69.5t-8 -129.5zM534 927l-157 -96h-107l128 96h136zM567 726h-114l-71 54l-69 -54h-110l120 89h120z" />
    <glyph glyph-name="uni1ED1" unicode="&#x1ed1;" 
d="M293 -14q-126 0 -185 59q-57 60 -57 212q0 150 58 208q59 59 184 59q127 0 186 -59q58 -58 58 -208q0 -153 -58 -212q-59 -59 -186 -59zM293 424q-68 0 -91 -32t-23 -137q0 -102 23 -136q24 -33 91 -33q68 0 92 33t24 136q-2 76 -12 110t-32 46t-72 13zM477 568h-117
l-71 76l-69 -76h-113l122 129h122zM457 876l-158 -129h-108l129 129h137z" />
    <glyph glyph-name="uni1ED2" unicode="&#x1ed2;" horiz-adv-x="770" 
d="M385 -14q-170 0 -249 76q-83 82 -83 293q0 209 83 286q44 39 102.5 56t146.5 17t147 -17t101 -56q83 -77 83 -286q0 -107 -20 -179t-63 -113.5t-102 -59t-146 -17.5zM194 353q0 -107 17 -159t55.5 -70.5t118.5 -18.5t118.5 18.5t55.5 70.5t17 159q0 85 -8 129.5t-31 69.5
q-22 26 -55 34.5t-97 8.5t-97 -8.5t-56 -34.5q-22 -25 -30 -69.5t-8 -129.5zM566 726h-114l-71 54l-69 -54h-110l120 89h120zM369 927l132 -96h-111l-154 96h133z" />
    <glyph glyph-name="uni1ED3" unicode="&#x1ed3;" 
d="M293 -14q-126 0 -185 59q-57 60 -57 212q0 150 58 208q59 59 184 59q127 0 186 -59q58 -58 58 -208q0 -153 -58 -212q-59 -59 -186 -59zM293 424q-68 0 -91 -32t-23 -137q0 -102 23 -136q24 -33 91 -33q68 0 92 33t24 136q-2 76 -12 110t-32 46t-72 13zM474 568h-117
l-71 76l-69 -76h-113l122 129h122zM270 876l135 -129h-114l-158 129h137z" />
    <glyph glyph-name="uni1ED4" unicode="&#x1ed4;" horiz-adv-x="770" 
d="M385 -14q-170 0 -249 76q-83 82 -83 293q0 209 83 286q44 39 102.5 56t146.5 17t147 -17t101 -56q83 -77 83 -286q0 -107 -20 -179t-63 -113.5t-102 -59t-146 -17.5zM194 353q0 -107 17 -159t55.5 -70.5t118.5 -18.5t118.5 18.5t55.5 70.5t17 159q0 85 -8 129.5t-31 69.5
q-22 26 -55 34.5t-97 8.5t-97 -8.5t-56 -34.5q-22 -25 -30 -69.5t-8 -129.5zM564 726h-114l-71 54l-69 -54h-110l120 89h120zM390 831h-48q47 20 62 32.5t15 31.5q0 13 -11 19t-39 6q-46 0 -78 -17l-33 46q44 23 124 23q69 0 97 -14t28 -45q0 -57 -117 -82z" />
    <glyph glyph-name="uni1ED5" unicode="&#x1ed5;" 
d="M293 -14q-126 0 -185 59q-57 60 -57 212q0 150 58 208q59 59 184 59q127 0 186 -59q58 -58 58 -208q0 -153 -58 -212q-59 -59 -186 -59zM293 424q-68 0 -91 -32t-23 -137q0 -102 23 -136q24 -33 91 -33q68 0 92 33t24 136q-2 76 -12 110t-32 46t-72 13zM304 713h-47
q47 26 61 43q15 16 15 42q0 19 -10.5 26.5t-39.5 7.5q-44 0 -76 -23l-33 62q43 30 122 30q68 0 95.5 -18t27.5 -60q0 -74 -115 -110zM483 568h-117l-71 76l-69 -76h-113l122 129h122z" />
    <glyph glyph-name="uni1ED6" unicode="&#x1ed6;" horiz-adv-x="770" 
d="M385 -14q-170 0 -249 76q-83 82 -83 293q0 209 83 286q44 39 102.5 56t146.5 17t147 -17t101 -56q83 -77 83 -286q0 -107 -20 -179t-63 -113.5t-102 -59t-146 -17.5zM194 353q0 -107 17 -159t55.5 -70.5t118.5 -18.5t118.5 18.5t55.5 70.5t17 159q0 85 -8 129.5t-31 69.5
q-22 26 -55 34.5t-97 8.5t-97 -8.5t-56 -34.5q-22 -25 -30 -69.5t-8 -129.5zM504 940l60 -39q-15 -33 -46 -52.5t-72 -19.5q-31 0 -76 21q-44 21 -65 21q-31 0 -51 -39l-55 43q46 61 106 61q35 0 81 -20t65 -20q32 0 53 44zM566 726h-114l-71 54l-69 -54h-110l120 89h120z
" />
    <glyph glyph-name="uni1ED7" unicode="&#x1ed7;" 
d="M293 -14q-126 0 -185 59q-57 60 -57 212q0 150 58 208q59 59 184 59q127 0 186 -59q58 -58 58 -208q0 -153 -58 -212q-59 -59 -186 -59zM293 424q-68 0 -91 -32t-23 -137q0 -102 23 -136q24 -33 91 -33q68 0 92 33t24 136q-2 76 -12 110t-32 46t-72 13zM418 879l61 -50
q-15 -42 -47 -67.5t-73 -25.5q-31 0 -76 27t-67 27q-31 0 -51 -50l-56 55q45 79 107 79q36 0 82 -26q47 -26 66 -26q18 0 30 12.5t24 44.5zM477 568h-117l-71 76l-69 -76h-113l122 129h122z" />
    <glyph glyph-name="uni1ED8" unicode="&#x1ed8;" horiz-adv-x="770" 
d="M385 -14q-170 0 -249 76q-83 82 -83 293q0 209 83 286q44 39 102.5 56t146.5 17t147 -17t101 -56q83 -77 83 -286q0 -107 -20 -179t-63 -113.5t-102 -59t-146 -17.5zM194 353q0 -107 17 -159t55.5 -70.5t118.5 -18.5t118.5 18.5t55.5 70.5t17 159q0 85 -8 129.5t-31 69.5
q-22 26 -55 34.5t-97 8.5t-97 -8.5t-56 -34.5q-22 -25 -30 -69.5t-8 -129.5zM569 747h-116l-72 78l-70 -78h-112l122 129h122zM385 -59q37 0 49.5 -11t12.5 -47q0 -39 -12.5 -51.5t-49.5 -12.5q-36 0 -48.5 12.5t-12.5 51.5q0 36 12 47t49 11z" />
    <glyph glyph-name="uni1ED9" unicode="&#x1ed9;" 
d="M293 -14q-126 0 -185 59q-57 60 -57 212q0 150 58 208q59 59 184 59q127 0 186 -59q58 -58 58 -208q0 -153 -58 -212q-59 -59 -186 -59zM293 424q-68 0 -91 -32t-23 -137q0 -102 23 -136q24 -33 91 -33q68 0 92 33t24 136q-2 76 -12 110t-32 46t-72 13zM294 -59
q37 0 49.5 -11t12.5 -47q0 -39 -12.5 -51.5t-49.5 -12.5q-36 0 -48.5 12.5t-12.5 51.5q0 36 12 47t49 11zM479 568h-117l-71 76l-69 -76h-113l122 129h122z" />
    <glyph glyph-name="uni1EDA" unicode="&#x1eda;" horiz-adv-x="770" 
d="M707 696h97v-81q0 -28 -17.5 -58.5t-44.5 -45.5h-42q16 -61 16 -156q0 -107 -20 -179t-63 -113.5t-102 -59t-146 -17.5q-170 0 -249 76q-83 82 -83 293q0 209 83 286q44 39 102.5 56t146.5 17q138 0 213 -45t101 -153q49 37 49 91h-41v89zM194 353q0 -107 17 -159
t55.5 -70.5t118.5 -18.5t118.5 18.5t55.5 70.5t17 159q0 85 -8 129.5t-31 69.5q-22 26 -55 34.5t-97 8.5t-97 -8.5t-56 -34.5q-22 -25 -30 -69.5t-8 -129.5zM540 876l-158 -129h-108l129 129h137z" />
    <glyph glyph-name="uni1EDB" unicode="&#x1edb;" 
d="M539 509h97v-81q0 -28 -17.5 -58.5t-44.5 -45.5h-41q4 -37 4 -67q0 -153 -58 -212q-59 -59 -186 -59q-126 0 -185 59q-57 60 -57 212q0 150 58 208q59 59 184 59q114 0 171 -44t69 -150q47 38 47 90h-41v89zM293 424q-68 0 -91 -32t-23 -137q0 -102 23 -136
q24 -33 91 -33q68 0 92 33t24 136q-2 76 -12 110t-32 46t-72 13zM451 697l-145 -129h-109l121 129h133z" />
    <glyph glyph-name="uni1EDC" unicode="&#x1edc;" horiz-adv-x="770" 
d="M707 696h97v-81q0 -28 -17.5 -58.5t-44.5 -45.5h-42q16 -61 16 -156q0 -107 -20 -179t-63 -113.5t-102 -59t-146 -17.5q-170 0 -249 76q-83 82 -83 293q0 209 83 286q44 39 102.5 56t146.5 17q138 0 213 -45t101 -153q49 37 49 91h-41v89zM194 353q0 -107 17 -159
t55.5 -70.5t118.5 -18.5t118.5 18.5t55.5 70.5t17 159q0 85 -8 129.5t-31 69.5q-22 26 -55 34.5t-97 8.5t-97 -8.5t-56 -34.5q-22 -25 -30 -69.5t-8 -129.5zM366 876l135 -129h-114l-158 129h137z" />
    <glyph glyph-name="uni1EDD" unicode="&#x1edd;" 
d="M539 509h97v-81q0 -28 -17.5 -58.5t-44.5 -45.5h-41q4 -37 4 -67q0 -153 -58 -212q-59 -59 -186 -59q-126 0 -185 59q-57 60 -57 212q0 150 58 208q59 59 184 59q114 0 171 -44t69 -150q47 38 47 90h-41v89zM293 424q-68 0 -91 -32t-23 -137q0 -102 23 -136
q24 -33 91 -33q68 0 92 33t24 136q-2 76 -12 110t-32 46t-72 13zM279 697l122 -129h-110l-144 129h132z" />
    <glyph glyph-name="uni1EDE" unicode="&#x1ede;" horiz-adv-x="770" 
d="M707 696h97v-81q0 -28 -17.5 -58.5t-44.5 -45.5h-42q16 -61 16 -156q0 -107 -20 -179t-63 -113.5t-102 -59t-146 -17.5q-170 0 -249 76q-83 82 -83 293q0 209 83 286q44 39 102.5 56t146.5 17q138 0 213 -45t101 -153q49 37 49 91h-41v89zM194 353q0 -107 17 -159
t55.5 -70.5t118.5 -18.5t118.5 18.5t55.5 70.5t17 159q0 85 -8 129.5t-31 69.5q-22 26 -55 34.5t-97 8.5t-97 -8.5t-56 -34.5q-22 -25 -30 -69.5t-8 -129.5zM398 732h-47q47 26 61.5 42t14.5 40q0 18 -10.5 25t-39.5 7q-47 0 -76 -22l-33 60q44 29 122 29q68 0 96 -17.5
t28 -57.5q0 -71 -116 -106z" />
    <glyph glyph-name="uni1EDF" unicode="&#x1edf;" 
d="M539 509h97v-81q0 -28 -17.5 -58.5t-44.5 -45.5h-41q4 -37 4 -67q0 -153 -58 -212q-59 -59 -186 -59q-126 0 -185 59q-57 60 -57 212q0 150 58 208q59 59 184 59q114 0 171 -44t69 -150q47 38 47 90h-41v89zM293 424q-68 0 -91 -32t-23 -137q0 -102 23 -136
q24 -33 91 -33q68 0 92 33t24 136q-2 76 -12 110t-32 46t-72 13zM306 555h-47q47 26 61 43q15 16 15 42q0 19 -10.5 26.5t-39.5 7.5q-44 0 -76 -23l-33 62q43 30 122 30q68 0 95.5 -18t27.5 -60q0 -74 -115 -110z" />
    <glyph glyph-name="uni1EE0" unicode="&#x1ee0;" horiz-adv-x="770" 
d="M707 696h97v-81q0 -28 -17.5 -58.5t-44.5 -45.5h-42q16 -61 16 -156q0 -107 -20 -179t-63 -113.5t-102 -59t-146 -17.5q-170 0 -249 76q-83 82 -83 293q0 209 83 286q44 39 102.5 56t146.5 17q138 0 213 -45t101 -153q49 37 49 91h-41v89zM194 353q0 -107 17 -159
t55.5 -70.5t118.5 -18.5t118.5 18.5t55.5 70.5t17 159q0 85 -8 129.5t-31 69.5q-22 26 -55 34.5t-97 8.5t-97 -8.5t-56 -34.5q-22 -25 -30 -69.5t-8 -129.5zM510 879l61 -50q-15 -42 -47 -67.5t-73 -25.5q-31 0 -76 27t-67 27q-31 0 -51 -50l-56 55q45 79 107 79
q36 0 82 -26q47 -26 66 -26q18 0 30 12.5t24 44.5z" />
    <glyph glyph-name="uni1EE1" unicode="&#x1ee1;" 
d="M539 509h97v-81q0 -28 -17.5 -58.5t-44.5 -45.5h-41q4 -37 4 -67q0 -153 -58 -212q-59 -59 -186 -59q-126 0 -185 59q-57 60 -57 212q0 150 58 208q59 59 184 59q114 0 171 -44t69 -150q47 38 47 90h-41v89zM293 424q-68 0 -91 -32t-23 -137q0 -102 23 -136
q24 -33 91 -33q68 0 92 33t24 136q-2 76 -12 110t-32 46t-72 13zM416 702l62 -50q-33 -93 -117 -93q-31 0 -75 26q-44 27 -66 27q-31 0 -52 -51l-56 55q46 81 109 81q37 0 79 -27q43 -26 63 -26q18 0 29.5 12.5t23.5 45.5z" />
    <glyph glyph-name="uni1EE2" unicode="&#x1ee2;" horiz-adv-x="770" 
d="M707 696h97v-81q0 -28 -17.5 -58.5t-44.5 -45.5h-42q16 -61 16 -156q0 -107 -20 -179t-63 -113.5t-102 -59t-146 -17.5q-170 0 -249 76q-83 82 -83 293q0 209 83 286q44 39 102.5 56t146.5 17q138 0 213 -45t101 -153q49 37 49 91h-41v89zM194 353q0 -107 17 -159
t55.5 -70.5t118.5 -18.5t118.5 18.5t55.5 70.5t17 159q0 85 -8 129.5t-31 69.5q-22 26 -55 34.5t-97 8.5t-97 -8.5t-56 -34.5q-22 -25 -30 -69.5t-8 -129.5zM385 -59q37 0 49.5 -11t12.5 -47q0 -39 -12.5 -51.5t-49.5 -12.5q-36 0 -48.5 12.5t-12.5 51.5q0 36 12 47t49 11z
" />
    <glyph glyph-name="uni1EE3" unicode="&#x1ee3;" 
d="M539 509h97v-81q0 -28 -17.5 -58.5t-44.5 -45.5h-41q4 -37 4 -67q0 -153 -58 -212q-59 -59 -186 -59q-126 0 -185 59q-57 60 -57 212q0 150 58 208q59 59 184 59q114 0 171 -44t69 -150q47 38 47 90h-41v89zM293 424q-68 0 -91 -32t-23 -137q0 -102 23 -136
q24 -33 91 -33q68 0 92 33t24 136q-2 76 -12 110t-32 46t-72 13zM294 -59q37 0 49.5 -11t12.5 -47q0 -39 -12.5 -51.5t-49.5 -12.5q-36 0 -48.5 12.5t-12.5 51.5q0 36 12 47t49 11z" />
    <glyph glyph-name="uni1EE4" unicode="&#x1ee4;" horiz-adv-x="742" 
d="M532 231v466h132v-486q0 -129 -73 -177q-72 -48 -220 -48q-147 0 -221 48q-72 48 -72 177v486h133v-467q0 -69 37 -96t123 -27q89 0 125 27t36 97zM371 -59q37 0 49.5 -11t12.5 -47q0 -39 -12.5 -51.5t-49.5 -12.5q-36 0 -48.5 12.5t-12.5 51.5q0 36 12 47t49 11z" />
    <glyph glyph-name="uni1EE5" unicode="&#x1ee5;" horiz-adv-x="583" 
d="M390 110v399h124v-479q-117 -44 -241 -44q-109 0 -159 53q-48 52 -48 187v283h124v-271q0 -84 21 -113q23 -27 87 -27q47 0 92 12zM292 -59q37 0 49.5 -11t12.5 -47q0 -39 -12.5 -51.5t-49.5 -12.5q-36 0 -48.5 12.5t-12.5 51.5q0 36 12 47t49 11z" />
    <glyph glyph-name="uni1EE6" unicode="&#x1ee6;" horiz-adv-x="742" 
d="M532 231v466h132v-486q0 -129 -73 -177q-72 -48 -220 -48q-147 0 -221 48q-72 48 -72 177v486h133v-467q0 -69 37 -96t123 -27q89 0 125 27t36 97zM379 717h-47q47 26 61.5 42t14.5 40q0 18 -10.5 25t-39.5 7q-47 0 -76 -22l-33 60q44 29 122 29q68 0 96 -17.5t28 -57.5
q0 -71 -116 -106z" />
    <glyph glyph-name="uni1EE7" unicode="&#x1ee7;" horiz-adv-x="583" 
d="M390 110v399h124v-479q-117 -44 -241 -44q-109 0 -159 53q-48 52 -48 187v283h124v-271q0 -84 21 -113q23 -27 87 -27q47 0 92 12zM299 555h-47q47 26 61 43q15 16 15 42q0 19 -10.5 26.5t-39.5 7.5q-44 0 -76 -23l-33 62q43 30 122 30q68 0 95.5 -18t27.5 -60
q0 -74 -115 -110z" />
    <glyph glyph-name="uni1EE8" unicode="&#x1ee8;" horiz-adv-x="742" 
d="M532 231v466h132v-486q0 -129 -73 -177q-72 -48 -220 -48q-147 0 -221 48q-72 48 -72 177v486h133v-467q0 -69 37 -96t123 -27q89 0 125 27t36 97zM712 696h97v-81q0 -28 -17.5 -58.5t-44.5 -45.5h-49q55 40 55 96h-41v89zM548 876l-158 -129h-108l129 129h137z" />
    <glyph glyph-name="uni1EE9" unicode="&#x1ee9;" horiz-adv-x="583" 
d="M390 110v399h124v-479q-117 -44 -241 -44q-109 0 -159 53q-48 52 -48 187v283h124v-271q0 -84 21 -113q23 -27 87 -27q47 0 92 12zM549 509h97v-81q0 -28 -17.5 -58.5t-44.5 -45.5h-49q55 40 55 96h-41v89zM443 697l-145 -129h-109l121 129h133z" />
    <glyph glyph-name="uni1EEA" unicode="&#x1eea;" horiz-adv-x="742" 
d="M532 231v466h132v-486q0 -129 -73 -177q-72 -48 -220 -48q-147 0 -221 48q-72 48 -72 177v486h133v-467q0 -69 37 -96t123 -27q89 0 125 27t36 97zM712 696h97v-81q0 -28 -17.5 -58.5t-44.5 -45.5h-49q55 40 55 96h-41v89zM340 876l135 -129h-114l-158 129h137z" />
    <glyph glyph-name="uni1EEB" unicode="&#x1eeb;" horiz-adv-x="583" 
d="M390 110v399h124v-479q-117 -44 -241 -44q-109 0 -159 53q-48 52 -48 187v283h124v-271q0 -84 21 -113q23 -27 87 -27q47 0 92 12zM549 509h97v-81q0 -28 -17.5 -58.5t-44.5 -45.5h-49q55 40 55 96h-41v89zM283 697l122 -129h-110l-144 129h132z" />
    <glyph glyph-name="uni1EEC" unicode="&#x1eec;" horiz-adv-x="742" 
d="M532 231v466h132v-486q0 -129 -73 -177q-72 -48 -220 -48q-147 0 -221 48q-72 48 -72 177v486h133v-467q0 -69 37 -96t123 -27q89 0 125 27t36 97zM712 696h97v-81q0 -28 -17.5 -58.5t-44.5 -45.5h-49q55 40 55 96h-41v89zM381 727h-47q47 26 61.5 42t14.5 40
q0 18 -10.5 25t-39.5 7q-47 0 -76 -22l-33 60q44 29 122 29q68 0 96 -17.5t28 -57.5q0 -71 -116 -106z" />
    <glyph glyph-name="uni1EED" unicode="&#x1eed;" horiz-adv-x="583" 
d="M390 110v399h124v-479q-117 -44 -241 -44q-109 0 -159 53q-48 52 -48 187v283h124v-271q0 -84 21 -113q23 -27 87 -27q47 0 92 12zM549 509h97v-81q0 -28 -17.5 -58.5t-44.5 -45.5h-49q55 40 55 96h-41v89zM299 555h-47q47 26 61 43q15 16 15 42q0 19 -10.5 26.5
t-39.5 7.5q-44 0 -76 -23l-33 62q43 30 122 30q68 0 95.5 -18t27.5 -60q0 -74 -115 -110z" />
    <glyph glyph-name="uni1EEE" unicode="&#x1eee;" horiz-adv-x="742" 
d="M532 231v466h132v-486q0 -129 -73 -177q-72 -48 -220 -48q-147 0 -221 48q-72 48 -72 177v486h133v-467q0 -69 37 -96t123 -27q89 0 125 27t36 97zM499 879l61 -50q-15 -42 -47 -67.5t-73 -25.5q-31 0 -76 27t-67 27q-31 0 -51 -50l-56 55q45 79 107 79q36 0 82 -26
q47 -26 66 -26q18 0 30 12.5t24 44.5zM712 696h97v-81q0 -28 -17.5 -58.5t-44.5 -45.5h-49q55 40 55 96h-41v89z" />
    <glyph glyph-name="uni1EEF" unicode="&#x1eef;" horiz-adv-x="583" 
d="M390 110v399h124v-479q-117 -44 -241 -44q-109 0 -159 53q-48 52 -48 187v283h124v-271q0 -84 21 -113q23 -27 87 -27q47 0 92 12zM549 509h97v-81q0 -28 -17.5 -58.5t-44.5 -45.5h-49q55 40 55 96h-41v89zM411 702l62 -50q-33 -93 -117 -93q-31 0 -75 26q-43 27 -66 27
q-31 0 -52 -51l-56 55q47 81 109 81q37 0 79 -27q43 -26 63 -26q18 0 29.5 12.5t23.5 45.5z" />
    <glyph glyph-name="uni1EF0" unicode="&#x1ef0;" horiz-adv-x="742" 
d="M532 231v466h132v-486q0 -129 -73 -177q-72 -48 -220 -48q-147 0 -221 48q-72 48 -72 177v486h133v-467q0 -69 37 -96t123 -27q89 0 125 27t36 97zM712 696h97v-81q0 -28 -17.5 -58.5t-44.5 -45.5h-49q55 40 55 96h-41v89zM371 -59q37 0 49.5 -11t12.5 -47
q0 -39 -12.5 -51.5t-49.5 -12.5q-36 0 -48.5 12.5t-12.5 51.5q0 36 12 47t49 11z" />
    <glyph glyph-name="uni1EF1" unicode="&#x1ef1;" horiz-adv-x="583" 
d="M390 110v399h124v-479q-117 -44 -241 -44q-109 0 -159 53q-48 52 -48 187v283h124v-271q0 -84 21 -113q23 -27 87 -27q47 0 92 12zM549 509h97v-81q0 -28 -17.5 -58.5t-44.5 -45.5h-49q55 40 55 96h-41v89zM292 -59q37 0 49.5 -11t12.5 -47q0 -39 -12.5 -51.5
t-49.5 -12.5q-36 0 -48.5 12.5t-12.5 51.5q0 36 12 47t49 11z" />
    <glyph glyph-name="Ygrave" unicode="&#x1ef2;" horiz-adv-x="638" 
d="M-38 697h172q90 -112 194 -266q108 144 184 266h160q-127 -191 -281 -396v-301h-132v300q-182 257 -297 397zM309 876l135 -129h-114l-158 129h137z" />
    <glyph glyph-name="ygrave" unicode="&#x1ef3;" horiz-adv-x="511" 
d="M381 509h126q-117 -395 -272 -701h-138q31 54 83 167q-82 299 -180 534h129q67 -168 126 -386q86 229 126 386zM259 697l122 -129h-110l-144 129h132z" />
    <glyph glyph-name="uni1EF4" unicode="&#x1ef4;" horiz-adv-x="638" 
d="M-38 697h172q90 -112 194 -266q108 144 184 266h160q-127 -191 -281 -396v-301h-132v300q-182 257 -297 397zM319 -59q37 0 49.5 -11t12.5 -47q0 -39 -12.5 -51.5t-49.5 -12.5q-36 0 -48.5 12.5t-12.5 51.5q0 36 12 47t49 11z" />
    <glyph glyph-name="uni1EF5" unicode="&#x1ef5;" horiz-adv-x="511" 
d="M381 509h126q-117 -395 -272 -701h-138q31 54 83 167q-82 299 -180 534h129q67 -168 126 -386q86 229 126 386zM415 -59q37 0 49.5 -11t12.5 -47q0 -39 -12.5 -51.5t-49.5 -12.5q-36 0 -48.5 12.5t-12.5 51.5q0 36 12 47t49 11z" />
    <glyph glyph-name="uni1EF6" unicode="&#x1ef6;" horiz-adv-x="638" 
d="M-38 697h172q90 -112 194 -266q108 144 184 266h160q-127 -191 -281 -396v-301h-132v300q-182 257 -297 397zM326 727h-47q47 26 61.5 42t14.5 40q0 18 -10.5 25t-39.5 7q-47 0 -76 -22l-33 60q44 29 122 29q68 0 96 -17.5t28 -57.5q0 -71 -116 -106z" />
    <glyph glyph-name="uni1EF7" unicode="&#x1ef7;" horiz-adv-x="511" 
d="M381 509h126q-117 -395 -272 -701h-138q31 54 83 167q-82 299 -180 534h129q67 -168 126 -386q86 229 126 386zM265 555h-47q47 26 61 43q15 16 15 42q0 19 -10.5 26.5t-39.5 7.5q-44 0 -76 -23l-33 62q44 30 122 30q68 0 95.5 -18t27.5 -60q0 -74 -115 -110z" />
    <glyph glyph-name="uni1EF8" unicode="&#x1ef8;" horiz-adv-x="638" 
d="M-38 697h172q90 -112 194 -266q108 144 184 266h160q-127 -191 -281 -396v-301h-132v300q-182 257 -297 397zM448 879l61 -50q-15 -42 -47 -67.5t-73 -25.5q-31 0 -76 27t-67 27q-31 0 -51 -50l-56 55q45 79 107 79q36 0 82 -26q47 -26 66 -26q18 0 30 12.5t24 44.5z" />
    <glyph glyph-name="uni1EF9" unicode="&#x1ef9;" horiz-adv-x="511" 
d="M381 509h126q-117 -395 -272 -701h-138q31 54 83 167q-82 299 -180 534h129q67 -168 126 -386q86 229 126 386zM378 702l62 -50q-33 -93 -117 -93q-31 0 -75 26q-44 27 -66 27q-31 0 -52 -51l-56 55q46 81 109 81q37 0 79 -27q43 -26 63 -26q18 0 29.5 12.5t23.5 45.5z
" />
    <glyph glyph-name="endash" unicode="&#x2013;" horiz-adv-x="578" 
d="M529 222h-480v118h480v-118z" />
    <glyph glyph-name="emdash" unicode="&#x2014;" horiz-adv-x="865" 
d="M816 222h-767v118h767v-118z" />
    <glyph glyph-name="quoteleft" unicode="&#x2018;" horiz-adv-x="255" 
d="M155 505h-131l109 262h100z" />
    <glyph glyph-name="quoteright" unicode="&#x2019;" horiz-adv-x="255" 
d="M101 762h131l-109 -262h-100z" />
    <glyph glyph-name="quotesinglbase" unicode="&#x201a;" horiz-adv-x="245" 
d="M96 103h131l-109 -262h-100z" />
    <glyph glyph-name="quotedblleft" unicode="&#x201c;" horiz-adv-x="450" 
d="M349 505h-131l109 262h100zM155 505h-131l109 262h100z" />
    <glyph glyph-name="quotedblright" unicode="&#x201d;" horiz-adv-x="450" 
d="M101 763h131l-109 -262h-100zM295 763h131l-109 -262h-100z" />
    <glyph glyph-name="quotedblbase" unicode="&#x201e;" horiz-adv-x="450" 
d="M101 98h131l-109 -262h-100zM295 98h131l-109 -262h-100z" />
    <glyph glyph-name="dagger" unicode="&#x2020;" horiz-adv-x="446" 
d="M171 479h-141v100h141v143h103v-143h142v-100h-142v-228h-103v228z" />
    <glyph glyph-name="daggerdbl" unicode="&#x2021;" horiz-adv-x="446" 
d="M171 282h-141v101h141v96h-141v100h141v143h103v-143h142v-100h-142v-96h142v-101h-142v-143h-103v143z" />
    <glyph glyph-name="bullet" unicode="&#x2022;" 
d="M293 56q-126 0 -185 59q-57 60 -57 212q0 150 58 208q59 59 184 59q127 0 186 -59q58 -58 58 -208q0 -153 -58 -212q-59 -59 -186 -59z" />
    <glyph glyph-name="ellipsis" unicode="&#x2026;" horiz-adv-x="1141" 
d="M218 143q49 0 64.5 -13t15.5 -57q0 -47 -16 -62.5t-64 -15.5q-46 0 -61.5 15.5t-15.5 62.5q0 44 15 57t62 13zM569 143q48 0 63.5 -13t15.5 -57q0 -47 -16 -62.5t-63 -15.5q-46 0 -62 15.5t-16 62.5q0 43 15.5 56.5t62.5 13.5zM920 143q49 0 64.5 -13t15.5 -57
q0 -47 -16 -62.5t-64 -15.5q-46 0 -61.5 15.5t-15.5 62.5q0 43 15.5 56.5t61.5 13.5z" />
    <glyph glyph-name="perthousand" unicode="&#x2030;" horiz-adv-x="1354" 
d="M205 0l428 697h117l-429 -697h-116zM35 491q0 129 41 176t141 47t141 -47t41 -176q0 -131 -42 -181q-41 -50 -140 -50t-141 50q-41 50 -41 181zM217 349q43 0 57 27q15 28 15 114q0 84 -15 110q-14 26 -57 26t-58 -26t-15 -110t15 -113q16 -28 58 -28zM560 217
q0 128 41 175t141 47t141 -47t41 -175q0 -131 -42 -181q-41 -50 -140 -50t-141 50q-41 50 -41 181zM669 216q0 -86 15 -114q16 -28 58 -28q44 0 57 28q15 28 15 114q0 84 -15 110q-13 25 -57 25q-43 0 -58 -25q-15 -26 -15 -110zM955 217q0 128 41 175t141 47t141 -47
t41 -175q0 -131 -42 -181q-41 -50 -140 -50t-141 50q-41 50 -41 181zM1064 216q0 -86 15 -114q16 -28 58 -28q44 0 57 28q15 28 15 114q0 84 -15 110q-13 25 -57 25q-43 0 -58 -25q-15 -26 -15 -110z" />
    <glyph glyph-name="guilsinglleft" unicode="&#x2039;" horiz-adv-x="395" 
d="M297 591l71 -73l-176 -204l176 -208l-70 -75l-271 281z" />
    <glyph glyph-name="guilsinglright" unicode="&#x203a;" horiz-adv-x="395" 
d="M99 32l-72 73l177 204l-177 209l70 74l272 -280z" />
    <glyph glyph-name="fraction" unicode="&#x2044;" horiz-adv-x="593" 
d="M22 0l438 697h117l-439 -697h-116z" />
    <glyph glyph-name="fraction" unicode="&#x2215;" horiz-adv-x="593" 
d="M22 0l438 697h117l-439 -697h-116z" />
    <glyph glyph-name="dong" unicode="&#x20ab;" 
d="M394 577h-90v82h90v63h124v-63h49v-82h-49v-554q-90 -37 -222 -37q-131 0 -188 58t-57 211q0 143 54.5 206t166.5 63q69 0 122 -29v82zM296 92q54 0 98 15v245q0 67 -100 67q-66 0 -91 -34q-24 -35 -24 -128q0 -101 24 -133q26 -32 93 -32zM502 -181h-412v118h412v-118z
" />
    <glyph glyph-name="Euro" unicode="&#x20ac;" horiz-adv-x="619" 
d="M30 309h63v90h-83l20 85h71q20 131 89 180q71 50 212 50q104 0 200 -26l-29 -116q-60 22 -148 22q-91 0 -132 -22q-42 -21 -55 -88h242l-20 -85h-231v-90h203l-20 -85h-174q13 -70 55 -94q43 -23 132 -23q88 0 148 22l29 -118q-88 -25 -200 -25q-141 0 -212 53
q-70 52 -90 185h-90z" />
    <glyph glyph-name="afii61352" unicode="&#x2116;" horiz-adv-x="1174" 
d="M554 697h131v-697h-161q-137 255 -307 525v-525h-129v697h173q149 -234 293 -503v503zM1102 123h-326v98h326v-98zM937 714q103 0 144 -44q42 -44 42 -164q0 -122 -42 -168t-144 -46t-144 46q-41 47 -41 168q0 120 41 164q42 44 144 44zM1014 506q0 77 -15 98
q-13 22 -62 22q-47 0 -62 -22q-14 -22 -14 -98q0 -79 14 -102q15 -23 62 -23t62 23q15 24 15 102z" />
    <glyph glyph-name="trademark" unicode="&#x2122;" horiz-adv-x="824" 
d="M210 619v-281h-89v281h-114v78h316v-78h-113zM361 697h117l91 -243l88 243h112v-359h-84v250l-87 -236h-69l-84 236v-250h-84v359z" />
    <glyph glyph-name="estimated" unicode="&#x212e;" horiz-adv-x="711" 
d="M563 129l28 -118q-88 -25 -200 -25q-174 0 -256 82t-82 287q0 207 83 286q77 73 229 73q157 0 230 -88q74 -89 74 -291v-32h-474q5 -119 46 -158q42 -39 151 -39q41 0 91 7q57 8 80 16zM365 595q-89 0 -126 -34t-43 -140h333q-5 105 -41 139q-38 35 -123 35z" />
    <glyph glyph-name="arrowleft" unicode="&#x2190;" horiz-adv-x="757" 
d="M477 115l-87 -89l-375 341l374 341l88 -89l-217 -194h482v-117h-482z" />
    <glyph glyph-name="arrowup" unicode="&#x2191;" horiz-adv-x="759" 
d="M128 267l-90 88l342 375l340 -375l-88 -88l-194 218v-482h-117v482z" />
    <glyph glyph-name="arrowright" unicode="&#x2192;" horiz-adv-x="757" 
d="M279 619l88 88l375 -340l-375 -342l-88 90l218 193h-482v117h482z" />
    <glyph glyph-name="arrowdown" unicode="&#x2193;" horiz-adv-x="759" 
d="M631 465l89 -87l-341 -375l-341 374l89 88l194 -217v482h117v-482z" />
    <glyph glyph-name="partialdiff" unicode="&#x2202;" horiz-adv-x="626" 
d="M309 428q42 0 87 -5q-57 113 -225 274h164q114 -111 179 -224t65 -249q0 -142 -55 -191q-55 -50 -211 -50q-146 0 -204 52t-58 183q0 117 56 164q55 46 202 46zM440 238q0 38 -9 72q-43 7 -108 7q-83 0 -109 -20q-25 -19 -25 -85q0 -63 25.5 -87t98.5 -24q75 0 101 24
q26 26 26 113z" />
    <glyph glyph-name="product" unicode="&#x220f;" horiz-adv-x="736" 
d="M518 578h-298v-578h-132v697h560v-697h-130v578z" />
    <glyph glyph-name="summation" unicode="&#x2211;" horiz-adv-x="622" 
d="M592 0h-572v26q95 123 220 320l-215 326v25h567v-114h-358l161 -236q-110 -165 -165 -233h362v-114z" />
    <glyph glyph-name="minus" unicode="&#x2212;" horiz-adv-x="582" 
d="M534 303h-486v118h486v-118z" />
    <glyph glyph-name="radical" unicode="&#x221a;" horiz-adv-x="578" 
d="M0 387v122h165q69 -173 126 -384q39 102 102 293q65 195 86 279h126q-38 -130 -117 -353q-82 -235 -127 -344h-153q-68 231 -126 387h-82z" />
    <glyph glyph-name="infinity" unicode="&#x221e;" horiz-adv-x="773" 
d="M235 450q-53 0 -73.5 -22t-20.5 -77q0 -57 20 -78.5t74 -21.5q55 0 78.5 23.5t23.5 76.5t-23.5 76t-78.5 23zM538 252q53 0 73.5 22t20.5 77t-20.5 77t-73.5 22q-55 0 -78.5 -23t-23.5 -76t23.5 -76t78.5 -23zM387 264q-8 -74 -49 -102t-125 -28q-99 0 -143 47
q-43 46 -43 170q0 123 43 169q44 47 143 47q84 0 125 -28t49 -101q7 73 47.5 101t125.5 28q98 0 142 -47t44 -169q0 -123 -44 -170t-142 -47q-84 0 -125 28.5t-48 101.5z" />
    <glyph glyph-name="integral" unicode="&#x222b;" horiz-adv-x="339" 
d="M75 -14v557q0 92 49 136.5t136 44.5q86 0 146 -22l-28 -98q-44 14 -97 14q-43 0 -62.5 -19t-19.5 -63v-550q0 -189 -198 -189q-83 0 -148 24l25 96q54 -20 111 -20q41 0 63.5 22.5t22.5 66.5z" />
    <glyph glyph-name="approxequal" unicode="&#x2248;" horiz-adv-x="582" 
d="M466 319l80 -63q-19 -51 -59 -82t-90 -31q-49 0 -122 42q-74 42 -101 42q-38 0 -64 -60l-72 69q57 98 137 98q56 0 164 -63q53 -28 80.5 -17t46.5 65zM466 530l80 -63q-19 -51 -59 -82t-90 -31q-49 0 -122 42q-74 42 -101 42q-38 0 -64 -60l-72 69q57 98 137 98
q58 0 164 -62q53 -29 80.5 -18t46.5 65z" />
    <glyph glyph-name="notequal" unicode="&#x2260;" horiz-adv-x="582" 
d="M328 553l52 95h124l-52 -95h82v-118h-143l-79 -149h222v-118h-282l-52 -96h-123l51 96h-80v118h141l79 149h-220v118h280z" />
    <glyph glyph-name="lessequal" unicode="&#x2264;" horiz-adv-x="582" 
d="M534 19h-486v118h486v-118zM435 710l64 -81l-261 -193l261 -195l-63 -82l-360 250v52z" />
    <glyph glyph-name="greaterequal" unicode="&#x2265;" horiz-adv-x="582" 
d="M49 137h486v-118h-486v118zM84 241l260 195l-260 193l64 81l359 -249v-52l-361 -250z" />
    <glyph glyph-name="lozenge" unicode="&#x25ca;" horiz-adv-x="600" 
d="M582 265q-105 -241 -171 -433h-207q-101 217 -185 433q80 204 185 434h207q63 -179 171 -434zM443 266l-41 104q-75 194 -88 235h-27q-109 -261 -138 -339q31 -84 138 -340h27q8 24 129 340z" />
    <glyph glyph-name="dotlessj" unicode="&#xf6be;" horiz-adv-x="262" 
d="M69 509h124v-519q0 -109 -50 -151q-49 -42 -159 -42v103q45 0 65 19.5t20 67.5v522z" />
    <glyph glyph-name="commaaccent" unicode="&#xf6c3;" horiz-adv-x="267" 
d="M133 -51h131l-92 -167h-95z" />
    <glyph glyph-name="Acute" unicode="&#xf6c9;" horiz-adv-x="408" 
d="M365 876l-158 -129h-108l129 129h137z" />
    <glyph glyph-name="Caron" unicode="&#xf6ca;" horiz-adv-x="654" 
d="M165 876h115l73 -78l70 78h112l-122 -129h-122z" />
    <glyph glyph-name="Dieresis" unicode="&#xf6cb;" horiz-adv-x="431" 
d="M205 808q0 -38 -11.5 -49.5t-47.5 -11.5t-48 11.5t-12 49.5q0 35 12 45.5t48 10.5t47.5 -10.5t11.5 -45.5zM359 864q36 0 47.5 -10.5t11.5 -45.5q0 -38 -11.5 -49.5t-47.5 -11.5t-48 11.5t-12 49.5q0 35 11.5 45.5t48.5 10.5z" />
    <glyph glyph-name="Grave" unicode="&#xf6ce;" horiz-adv-x="408" 
d="M274 876l135 -129h-114l-158 129h137z" />
    <glyph glyph-name="Hungarumlaut" unicode="&#xf6cf;" horiz-adv-x="618" 
d="M363 876l-115 -129h-85l91 129h109zM527 876l-114 -129h-86l91 129h109z" />
    <glyph glyph-name="Macron" unicode="&#xf6d0;" horiz-adv-x="326" 
d="M401 753h-278v92h278v-92z" />
    <glyph glyph-name="Lslashsmall" unicode="&#xf6f9;" horiz-adv-x="432" 
d="M287 314l-94 -82v-121h240v-111h-364v128l-42 -37v107l42 37v274h124v-170l94 83v-108z" />
    <glyph glyph-name="OEsmall" unicode="&#xf6fa;" horiz-adv-x="825" 
d="M406 509h381v-101h-278q21 -36 26 -95h188v-95h-188q-1 -74 -27 -117h279v-101h-384q-50 -14 -110 -14q-126 0 -185 59q-57 60 -57 212q0 150 58 208q59 59 184 59q65 0 113 -15zM293 424q-68 0 -91 -32t-23 -137q0 -102 23 -136q24 -33 91 -33q68 0 92 33t24 136
q-2 76 -12 110t-32 46t-72 13z" />
    <glyph glyph-name="Scaronsmall" unicode="&#xf6fd;" horiz-adv-x="491" 
d="M434 496l-27 -97q-73 24 -148 24q-53 0 -72.5 -11.5t-19.5 -47.5q0 -26 21.5 -37.5t83.5 -17.5q96 -10 136.5 -44.5t40.5 -108.5q0 -94 -56 -132t-162 -38q-105 0 -182 27l26 98q67 -24 151 -24q57 0 78.5 12.5t21.5 49.5q0 28 -23 41.5t-86 19.5q-92 7 -132 39.5
t-40 105.5q0 90 54.5 129.5t163.5 39.5q88 0 171 -28zM66 697h117l71 -76l69 76h113l-122 -129h-122z" />
    <glyph glyph-name="Zcaronsmall" unicode="&#xf6ff;" horiz-adv-x="497" 
d="M35 401v108h439v-25q-52 -86 -132 -198q-79 -114 -130 -178h255v-108h-449v25q69 87 148 199q73 105 118 177h-249zM67 697h117l71 -76l69 76h113l-122 -129h-122z" />
    <glyph glyph-name="exclamsmall" unicode="&#xf721;" horiz-adv-x="327" 
d="M117 207l-26 302h143l-27 -302h-90zM163 141q48 0 63.5 -13.5t15.5 -57.5q0 -47 -15.5 -62t-63.5 -15q-46 0 -62 15t-16 62q0 43 16 57t62 14z" />
    <glyph glyph-name="ampersandsmall" unicode="&#xf726;" horiz-adv-x="698" 
d="M556 299h134q-16 -88 -100 -172q46 -52 94 -127h-137q-20 32 -45 64q-119 -78 -245 -78q-127 0 -176 31t-49 118q0 128 143 136q-69 5 -88 33t-19 89q0 73 45 102q46 29 176 29t174 -29q45 -29 45 -102q0 -56 -31.5 -87t-100.5 -37q62 -8 131 -69q37 46 49 99zM261 82
q104 0 174 56q-78 82 -166 82q-55 0 -80.5 -16t-25.5 -52q0 -40 21.5 -55t76.5 -15zM387 374q0 32 -20 44t-76 12t-77 -12.5t-21 -43.5q0 -33 20 -45t74 -12q55 0 77.5 12.5t22.5 44.5z" />
    <glyph glyph-name="zerooldstyle" unicode="&#xf730;" horiz-adv-x="626" 
d="M77 257q0 149 60 207q60 60 177 60t176 -59q58 -58 58 -208t-58 -211q-58 -60 -176 -60t-178 61q-59 62 -59 210zM314 419q-60 0 -82 -31t-22 -133q0 -100 22 -132q23 -32 82 -32q62 0 81 31q20 32 20 133q0 102 -20 133q-19 31 -81 31z" />
    <glyph glyph-name="oneoldstyle" unicode="&#xf731;" horiz-adv-x="626" 
d="M439 524v-524h-130v357l-156 -66l-36 114z" />
    <glyph glyph-name="twooldstyle" unicode="&#xf732;" horiz-adv-x="626" 
d="M121 385l-29 116q100 23 210 23q131 0 183 -37q53 -38 53 -123q0 -72 -59 -133q-59 -60 -205 -125h273v-106h-459v96q188 102 245 148q60 50 60 99q0 36 -25 51.5t-87 15.5q-32 0 -86 -8t-74 -17z" />
    <glyph glyph-name="threeoldstyle" unicode="&#xf733;" horiz-adv-x="626" 
d="M281 524q146 0 205 -41t59 -137q0 -81 -32.5 -119.5t-116.5 -45.5q90 -4 126.5 -47t36.5 -133q0 -112 -65 -157q-64 -45 -215 -45q-119 0 -229 25l25 114q72 -20 178 -20q99 0 130 22q33 21 33 79q0 57 -27.5 79.5t-96.5 22.5h-99v112h96q66 0 91.5 19t25.5 69
q0 49 -30 67t-120 18q-106 0 -175 -22l-26 114q122 26 226 26z" />
    <glyph glyph-name="fouroldstyle" unicode="&#xf734;" horiz-adv-x="626" 
d="M369 -192v192h-346v40q176 309 297 469h175v-406h93v-103h-93v-192h-126zM183 103h186v296q-73 -92 -186 -296z" />
    <glyph glyph-name="fiveoldstyle" unicode="&#xf735;" horiz-adv-x="626" 
d="M95 120v389h432v-113h-307v-154q47 4 83 4q145 0 200 -49q56 -50 56 -168q0 -131 -62 -181q-61 -51 -212 -51q-120 0 -222 26q21 91 26 114q65 -21 171 -21q96 0 125 22q31 22 31 84q0 66 -29 89t-121 23q-95 0 -171 -14z" />
    <glyph glyph-name="sixoldstyle" unicode="&#xf736;" horiz-adv-x="626" 
d="M369 714q101 0 193 -27l-29 -116q-63 23 -164 23q-88 0 -127 -30q-41 -32 -47 -143q66 11 132 11q146 0 201 -49q57 -49 57 -168q0 -131 -58 -180t-204 -49q-151 0 -210 78q-59 80 -59 290t73 287q39 40 95.5 56.5t146.5 16.5zM323 105q74 0 99 22t25 81q0 65 -27 89
q-26 24 -107 24q-56 0 -120 -11q1 -123 31 -165q28 -40 99 -40z" />
    <glyph glyph-name="sevenoldstyle" unicode="&#xf737;" horiz-adv-x="626" 
d="M62 509h535v-39q-69 -110 -165 -316q-97 -207 -143 -346h-149q56 155 138 328q81 169 144 260h-360v113z" />
    <glyph glyph-name="eightoldstyle" unicode="&#xf738;" horiz-adv-x="626" 
d="M314 94q71 0 97.5 23t26.5 84t-28 87t-96 26q-69 0 -97 -26t-28 -87t26.5 -84t98.5 -23zM314 417q60 0 86.5 22.5t26.5 75.5q0 51 -25 70t-88 19q-64 0 -89 -19t-25 -70q0 -53 26.5 -75.5t87.5 -22.5zM314 -14q-144 0 -204 45q-59 47 -59 157q0 90 36.5 133.5t126.5 47.5
q-84 8 -116 47t-32 120q0 95 53 136q53 42 194 42t194 -42q54 -40 54 -136q0 -81 -32 -120t-116 -47q90 -4 126 -47.5t36 -133.5q0 -110 -59 -157q-58 -45 -202 -45z" />
    <glyph glyph-name="nineoldstyle" unicode="&#xf739;" horiz-adv-x="626" 
d="M309 78q-147 0 -202 46q-56 47 -56 164q0 132 58 184t204 52q156 0 211 -50q55 -49 55 -191q0 -131 -62 -244t-184 -231h-164q169 160 227 275q-45 -5 -87 -5zM440 269q0 86 -26 112q-25 25 -101 25q-73 0 -98.5 -24t-25.5 -88q0 -66 25 -85t109 -19q65 0 108 7
q9 35 9 72z" />
    </font>
</defs>
</svg>
